<?xml version="1.0" encoding="UTF-8"?>
<svg id="Layer_1" data-name="Layer 1" xmlns="http://www.w3.org/2000/svg" viewBox="0 0 258.02 130">
  <defs>
    <style>
      .cls-1 {
        fill: lime;
      }
    </style>
  </defs>
  <g id="MDT---Medium">
    <g id="MDT-Overview-M">
      <g id="Bentos">
        <g id="Battery">
          <g id="_" data-name="􀛨">
            <path id="Shape" class="cls-1" d="m43.74,115.78h50.21c11.17,0,17.83-2.09,21.67-6.81,3.94-4.61,5.82-12.52,5.82-25.38v-35.15c0-13.18-1.88-20.76-5.72-25.38-3.94-4.61-10.79-6.81-21.77-6.81h-33.05c-25.83,0,35.43,0-16.22,0-12.01,0-19.05,2.09-22.8,6.59-3.85,4.72-5.63,12.85-5.63,26.7v34.06c0,13.07,1.78,20.76,5.63,25.38,4.03,4.61,10.88,6.81,21.86,6.81Z"/>
          </g>
        </g>
      </g>
    </g>
  </g>
</svg>