<?xml version="1.0" encoding="utf-8"?>
<!-- Generator: Adobe Illustrator 25.1.0, SVG Export Plug-In . SVG Version: 6.00 Build 0)  -->
<svg version="1.1" id="Layer_1" xmlns="http://www.w3.org/2000/svg" xmlns:xlink="http://www.w3.org/1999/xlink" x="0px" y="0px"
	 viewBox="0 0 266 352" style="enable-background:new 0 0 266 352;" xml:space="preserve">
<style type="text/css">
	.st0{fill:#FFFFFF;}
	.st1{fill:url(#SVGID_1_);}
</style>
<g id="D49-Overview_1_">
	<g id="D49---Overview---Static---Large_1_" transform="translate(-334.000000, -12112.000000)">
		<g id="_x30_8---Water-Resistance_1_" transform="translate(0.000000, 10545.000000)">
			<g id="Spills_1_" transform="translate(0.000000, 1215.000000)">
				<g id="Drop-Illustrations_1_" transform="translate(336.000000, 80.000000)">
					<path class="st0" d="M130.3,322C71,410.7,41,472.3,41,505.1c0,49.3,40.1,89.3,89.3,89.3c49.3,0,89.3-40.1,89.3-89.3
						C219.6,472.3,189.6,410.7,130.3,322z"/>
				</g>
			</g>
		</g>
	</g>
</g>
<g id="D49-Overview">
	<g id="D49---Overview---Static---Large" transform="translate(-334.000000, -12112.000000)">
		<g id="_x30_8---Water-Resistance" transform="translate(0.000000, 10545.000000)">
			<g id="Spills" transform="translate(0.000000, 1215.000000)">
				<g id="Drop-Illustrations" transform="translate(336.000000, 80.000000)">
					
						<linearGradient id="SVGID_1_" gradientUnits="userSpaceOnUse" x1="-1707.4689" y1="132.5403" x2="-1707.4689" y2="133.7733" gradientTransform="matrix(36.3685 0 0 55 62228.3789 -6852.2773)">
						<stop  offset="0" style="stop-color:#2A71CC"/>
						<stop  offset="1" style="stop-color:#37A08B"/>
					</linearGradient>
					<path class="st1" d="M130.3,607c-57.2,0-103.7-46.5-103.7-103.7c0-37.1,31.5-101.5,96.3-196.8l7.4-10.9l7.4,10.9
						c64.8,95.4,96.3,159.8,96.3,196.8C234,560.4,187.5,607,130.3,607z M130.3,327.5c-56.9,85.1-85.7,144.2-85.7,175.7
						c0,47.3,38.5,85.7,85.7,85.7c47.3,0,85.7-38.5,85.7-85.7C216,471.7,187.2,412.6,130.3,327.5z"/>
				</g>
			</g>
		</g>
	</g>
</g>
</svg>
