<?xml version="1.0" encoding="utf-8"?>
<!-- Generator: Adobe Illustrator 26.5.2, SVG Export Plug-In . SVG Version: 6.00 Build 0)  -->
<svg version="1.1" id="Layer_1" xmlns="http://www.w3.org/2000/svg" xmlns:xlink="http://www.w3.org/1999/xlink" x="0px" y="0px"
	 width="1608px" height="900px" viewBox="0 0 1608 900" style="enable-background:new 0 0 1608 900;" xml:space="preserve">
<path style="fill:none;" d="M0,0h1608v900H0V0z"/>
<path style="fill:none;" d="M0,156.58v-1c-0.04,0.3-0.08,0.59-0.12,0.89C-0.09,156.5-0.04,156.55,0,156.58z"/>
<path style="fill:none;" d="M573.69,256.72c0.54-13.2-7.25-27.69-23.84-44.27c-13.36-13.36-37.69-19.55-59.62-19.55
	c-7.81,0-15.31,0.79-21.9,2.31c-21.83,5.06-50.98,20.22-65.91,63.73c-23.77,69.33-18.67,136.02-1.8,163.58
	c4.49,7.34,9.73,11.62,15.15,12.4c2.23,0.32,4.47,0.47,6.71,0.47c24.32,0,48.94-18.25,60.41-45.68
	c14.75-35.25,47.19-78.6,67.08-95.46C565.64,280.97,573.18,269.04,573.69,256.72z"/>
<path style="fill:none;" d="M155.56,776.32c-0.67-31.17-1.3-60.61,2.85-89.12c2.99-20.54,8.74-39.36,13.81-55.97
	c11.91-39,19.78-64.77-15.06-78.01C112.63,536.29,37.2,598.28,0,632.7v67.95c3.41-0.74,7.07-1.34,10.92-1.69
	c18.45-1.68,44.57,2.31,64.26,30.82C117.07,790.44,91.79,847.43,73,876c-4.85,7.37-11.48,15.57-19.01,24h93.87
	C157.31,857.75,156.42,816.44,155.56,776.32z"/>
<path style="fill:none;" d="M590.97,420.75c20.9-40.26,31.71-81.9,29.66-114.25c-2.7-42.62-25.38-80.21-43.61-110.41
	c-9.74-16.14-18.15-30.07-21.76-41.8c-1.67-5.43-3.14-12.09-4.69-19.14c-8.18-37.12-19.37-87.96-80.54-74.95h0
	c-25.21,5.36-49.28,26.36-71.52,62.42c-20.68,33.52-33.14,69.89-36.47,80.24c-5.2,16.17-8.04,44.06-11.05,73.58
	c-3.64,35.69-7.4,72.6-15.79,96.37c-8.51,24.1-19.62,45.89-29.42,65.12c-7.89,15.47-15.33,30.08-20.03,43.22
	c-5.69,15.92-8.01,31.41-6.71,44.78c1.52,15.62,7.86,27.73,18.84,36.01c23.38,17.6,134.52,3.39,207.07-42.21
	C538.1,498.89,568.66,463.74,590.97,420.75z M422.45,439.39c-2.42,0-4.84-0.17-7.24-0.51c-6.64-0.95-12.86-5.88-17.99-14.27
	c-17.35-28.33-22.74-96.48,1.42-166.96c15.52-45.25,45.97-61.05,68.79-66.33c34.02-7.88,70.06,3.12,85.25,18.31
	c17.42,17.42,25.6,32.88,25.01,47.26c-0.56,13.52-8.54,26.36-25.13,40.42c-19.54,16.57-51.44,59.22-65.97,93.95
	C474.5,420.16,448.36,439.39,422.45,439.39z"/>
<path style="fill:none;" d="M1234.29,881.46c-22.82-16.04-39.24-38.1-48.8-65.58c-1.69-4.86-3.29-11.6-5.14-19.41
	c-4.9-20.66-11.61-48.95-23.91-52.86c-0.93-0.29-1.89-0.44-2.88-0.44c-3.63,0-7.69,1.96-12.12,5.86
	c-16.17,14.23-24.75,41.08-22.96,71.84c1.12,19.31,6.61,46.97,24.31,79.13h127.94C1257.39,895.31,1245.2,889.12,1234.29,881.46z"/>
<path style="fill:none;" d="M1488.83,867.53c-8.57-5.79-29.29-6.67-61.75,8.27c-4.46,2.05-9.32,4.53-14.46,7.14
	c-10.9,5.55-23.42,11.93-37.56,17.06h120.69c0.68-3.6,1.12-7.2,1.3-10.79C1497.57,878.86,1494.8,871.57,1488.83,867.53z"/>
<path style="fill:none;" d="M1589.66,530.01c-4.11,1.2-8.78,2.55-13.96,4.38c-6.25,2.2-16.24,9.63-18.89,19.27
	c-1.72,6.23-0.09,12.38,4.84,18.3c10,12.01,25.91,19.97,46.36,23.54v-72.14C1602.3,526.32,1596.49,528.03,1589.66,530.01z"/>
<path style="fill:none;" d="M71.89,732.05c-14.92-21.61-35.31-31.4-60.6-29.11c-3.98,0.36-7.77,1.01-11.28,1.81V900h48.61
	c8.38-9.21,15.78-18.21,21.04-26.2C87.9,846.07,112.44,790.79,71.89,732.05z"/>
<path style="fill:none;" d="M158.59,549.48c38.33,14.58,29.12,44.74,17.46,82.92c-5.03,16.47-10.73,35.14-13.68,55.38
	c-4.11,28.18-3.48,57.46-2.81,88.46c0.86,40.09,1.74,81.37-7.62,123.76h134.42c0.61-4.55,0.97-8.99,1.04-13.28
	c0.74-46.67-15.7-87.94-31.59-127.85c-11.35-28.49-22.06-55.39-25.87-82.6c-4.42-31.56,1.32-50.53,6.38-67.26
	c5.19-17.17,9.68-32,1.37-56.27c-7.14-20.88-23.07-34.46-47.34-40.38c-22.43-5.47-47.52-3.26-64.61-0.45
	c-21.17,3.48-48.9,16.65-74.19,35.23C29.26,563.51,11.4,582,0,600.3v26.92c11.59-10.63,26.38-23.45,42.54-35.64
	C92.95,553.53,132,539.37,158.59,549.48z"/>
<path style="fill:none;" d="M1576.07,900H1608v-32.27C1595.19,877.24,1585.02,888.19,1576.07,900z"/>
<path style="fill:none;" d="M935.46,651.8l2.54-3.95c10.49-16.34,26.7-36.08,43.87-56.98c30.42-37.04,64.91-79.02,76.24-113.02
	c13.72-41.16-3.67-90.46-16.36-126.45c-3.59-10.17-6.98-19.78-9.22-27.93c-3.39-12.28-15.08-35.14-28.62-61.6
	c-26.77-52.32-63.43-123.98-65.99-172.69C935.45,42.46,948.17,16.74,962,0h-50.02c-0.77,61.23,13.69,107.04,19.92,126.77
	c24.8,78.53,24.52,120.75-0.86,129.06c-28.12,9.21-42.88-12.93-67.35-49.62c-4.55-6.82-9.25-13.86-14.53-21.5
	C812.25,131.4,779.62,75.77,740.89,0h-60.61c6.7,13.77,14.4,27.76,23.09,41.95c36.65,59.86,85.03,113.81,118.23,149.19
	c41.04,43.73,71.43,88.11,87.89,128.35c18.67,45.65,19.73,85.32,3.12,117.9c-27.21,53.41-91.41,77.05-148.06,97.9
	c-16.34,6.02-31.78,11.7-45.89,17.88c-82.32,36.06-134.79,83.84-155.95,142.02c-10.21,28.08-19.23,63.98-28.78,101.99
	c-8.22,32.73-17.08,67.96-27.82,102.82h22.42c14.93-42.46,37.08-93.52,65.64-144.6c71.71-128.22,140.6-182.95,185.77-206.27
	l19.96-10.3c131.95-68.08,146.55-76.57,149.94-107.08c1.65-14.89-5.64-41.54-12.69-67.32c-9.22-33.71-18.76-68.58-11.39-85.41
	c5.79-13.23,15.46-20.2,27.22-19.63c24.48,1.18,52.59,33.71,66.86,77.34c11.14,34.09,12.55,66.66,4.3,99.58
	c-8.27,33.02-26.27,66.39-55.02,102.01c-41.68,51.66-59.94,101.08-79.26,153.42c-9.45,25.59-19.23,52.05-31.96,78.69
	c-22.48,47.01-55.84,88.56-98.35,129.59h109.49C862.15,765.68,907.55,695.15,935.46,651.8z"/>
<path style="fill:none;" d="M957.68,717.48c29.96-48.34,67.9-87.24,93.01-112.97c1.94-1.99,3.81-3.91,5.61-5.76
	c45.59-46.92,80.55-87.33,81.75-144.02c1.33-63.92-22.98-115.16-63.18-191.95c-19.2-36.67-31.62-81.71-34.97-126.83
	c-3.29-44.32,2.41-83.75,16.04-111.02c4.55-9.1,9.2-17.39,14-24.93H968.55c-14.52,16.13-28.2,40.57-25.65,88.92
	c2.51,47.65,38.89,118.76,65.45,170.68c14.23,27.8,25.46,49.77,28.99,62.54c2.2,7.98,5.56,17.51,9.12,27.6
	c12.94,36.68,30.65,86.91,16.39,129.7c-11.63,34.88-46.42,77.24-77.12,114.61c-17.07,20.78-33.19,40.41-43.52,56.51l-2.54,3.96
	C912.07,697.36,867.18,767.1,874.07,900h36.17c-0.3-3.08-0.56-6.17-0.77-9.28C905.73,833.42,921.95,775.14,957.68,717.48z"/>
<path style="fill:none;" d="M1557.79,575.16c-5.95-7.14-7.96-15.04-5.81-22.82c2.95-10.71,13.57-19.67,22.05-22.66
	c5.31-1.87,10.05-3.25,14.23-4.46c7.67-2.23,13.74-4,19.74-7.56V407.83c-9.43,0.45-20.12,1.25-32.51,2.52
	c-49.54,5.07-119.27,53.73-169.58,118.34c-35.93,46.16-41.64,92.8-17.46,142.6c8.56,17.62,31.75,26.18,68.9,25.44
	c32.06-0.63,68.22-7.87,94.63-13.16l1.27-0.25c6.69-1.34,15.62-3.02,25.96-4.97c8.58-1.62,18.28-3.45,28.8-5.47v-72.32
	C1585.93,596.85,1568.69,588.25,1557.79,575.16z"/>
<path style="fill:none;" d="M973.62,860.95c1.28-40.67,11.24-81.28,28.04-114.33c18.87-37.13,49.98-74.42,80.06-110.49
	c33.17-39.77,64.5-77.33,75.66-110.23c23.19-68.36,9.72-127.11,3.24-155.34l-0.74-3.24c-2.09-9.18-7.57-28.47-13.92-50.82
	c-12.99-45.71-30.79-108.31-33.38-133.36c-1.65-15.97-4.42-42.7,1.47-69.45c6.67-30.31,23.22-54.84,49.19-72.9
	c37.98-26.42,99.68-13.34,159.35-0.69c34.03,7.22,66.18,14.03,92.08,13.1c28.65-1.02,66.24-7.38,106.05-14.11
	c29.43-4.98,59.34-10.03,87.27-13.26V0h-533.39c-5.82,8.93-10.76,18.06-15.09,26.72c-13.32,26.64-18.87,65.32-15.63,108.93
	c3.31,44.59,15.57,89.08,34.52,125.27c40.5,77.36,64.99,129.01,63.64,193.89c-1.23,58.16-36.67,99.16-82.88,146.73
	c-1.8,1.85-3.67,3.77-5.62,5.76c-24.99,25.61-62.74,64.32-92.47,112.29c-35.28,56.94-51.3,114.43-47.61,170.87
	c0.21,3.2,0.49,6.38,0.8,9.55h60.85C973.72,887.25,973.21,874.2,973.62,860.95z"/>
<path style="fill:none;" d="M853.41,768.25c12.64-26.42,22.37-52.78,31.78-78.26c9.33-25.26,18.98-51.38,31.32-77.08
	c13.85-28.83,29.79-54.26,48.74-77.74c28.28-35.05,45.97-67.78,54.06-100.09c8.01-31.98,6.64-63.64-4.2-96.81
	c-15.46-47.29-43.07-72.97-62.35-73.9c-9.71-0.47-17.43,5.29-22.4,16.64c-6.66,15.22,2.64,49.21,11.63,82.09
	c7.5,27.44,14.59,53.35,12.83,69.19c-3.8,34.19-23.62,44.42-152.62,110.97l-19.96,10.3c-44.56,23.01-112.59,77.13-183.7,204.27
	c-22.02,39.38-47.08,92.58-64.82,142.16h88.09c-0.04-0.03-0.08-0.05-0.12-0.08c-36.34-23.81-8.17-83.38,8.67-118.97
	c1.04-2.2,2.04-4.31,2.98-6.32c8.31-17.77,35.65-62.46,65.35-100.14c26.41-33.49,62.71-71.61,85.74-62.97
	c32.62,12.23,21.44,59.75,11.57,101.68c-1.93,8.18-3.74,15.91-5.2,23.21c-1.61,8.04,1.67,12.56,5.46,17.79
	c3.75,5.17,8.01,11.04,8.02,20.98c0.01,10.97-5.32,25.36-16.27,43.98c-12.23,20.8-29.52,40.18-49.99,56.05
	c-13.71,10.63-27.96,19-42.03,24.78h56.35C796.26,858.18,830.56,816.02,853.41,768.25z"/>
<path style="fill:none;" d="M343.62,775.83c0.15-36.04,0.28-70.08,19.04-113.6C383.5,613.9,465.04,570.13,519,541.17
	c13.43-7.21,25.02-13.43,33.17-18.41c5.88-3.59,13.12-7.66,21.51-12.36c48.78-27.37,130.43-73.17,140.08-137.51
	c11.33-75.53-38.63-159.64-88.99-231.96C576.49,71.62,568.57,35.66,562.86,0H348.01c-20.14,48.66-20.02,94.58-19.92,132.43
	c0.06,22.12,0.11,41.23-3.73,57.07c-5.47,22.56-17.04,40.86-27.24,57.02c-8.99,14.22-17.48,27.66-20.4,41.67
	c-3.16,15.16,1.16,40.42,5.74,67.16c4.48,26.2,9.12,53.29,7.33,74.23c-0.86,10.18-4.2,18.55-9.92,24.88
	c-16.82,18.57-52.29,9.64-75.76,3.73c-1.36-0.34-2.68-0.67-3.96-0.99c-35.75-8.88-84.72-21.04-151.04-25.34
	c-12.22-0.79-29.45-1.5-49.1-1.12v162.27c28.93-42.12,86.45-78.69,125.1-85.05c17.46-2.87,43.12-5.12,66.21,0.51
	c25.68,6.26,42.57,20.72,50.18,42.97c8.72,25.5,4.07,40.9-1.33,58.73c-4.94,16.34-10.54,34.86-6.25,65.55
	c3.74,26.73,14.37,53.42,25.62,81.67c16.04,40.28,32.63,81.93,31.88,129.4c-0.07,4.3-0.4,8.71-0.98,13.22h35.3
	c5.99-17.99,10.49-36.82,13.77-57.08C343.45,818.56,343.54,796.84,343.62,775.83z M294.86,565.94
	c-12.14-9.15-19.14-22.45-20.8-39.52c-1.74-17.82,2.83-35.37,6.98-46.95c4.81-13.44,12.32-28.19,20.29-43.81
	c9.73-19.09,20.76-40.73,29.16-64.51c8.19-23.21,11.93-59.82,15.54-95.22c3.04-29.79,5.91-57.94,11.27-74.6
	c4.32-13.44,16.57-48.27,36.98-81.34c22.99-37.26,48.13-59.02,74.74-64.68c66.01-14.05,78.32,41.81,86.46,78.76
	c1.53,6.95,2.98,13.51,4.59,18.75c3.43,11.14,11.69,24.83,21.26,40.69c18.51,30.67,41.54,68.83,44.32,112.67
	c2.1,33.23-8.91,75.83-30.21,116.87c-22.72,43.77-53.9,79.61-87.81,100.92c-32.89,20.67-77.87,37.21-123.4,45.36
	c-18.26,3.27-35.03,4.89-49.21,4.89C316.34,574.22,302.15,571.43,294.86,565.94z"/>
<path style="fill:none;" d="M376.92,778.21c-1.88-35.25-3.36-63.09,4.75-87.08c7.65-22.62,21.16-41.02,42.53-57.91
	c21.99-17.38,51.86-32.63,80.86-46.53c29.44-14.1,64.55-28.65,98.5-42.72c54.54-22.6,106.06-43.94,131.12-61.85
	c40.78-29.13,60.02-59.65,64.32-102.04c6.67-65.68-13.71-106.95-36.72-141.76c-8.33-12.6-24.54-31.06-43.31-52.43
	c-36.25-41.27-81.36-92.64-99.92-135.65C612.41,34.87,606.99,17.75,602.6,0h-34.68c5.62,34.82,13.69,70.22,60.94,138.08
	c50.93,73.12,101.42,158.29,89.83,235.55c-10.01,66.76-92.99,113.31-142.57,141.13c-8.35,4.68-15.56,8.73-21.35,12.27
	c-8.26,5.05-19.92,11.3-33.41,18.54c-53.35,28.64-133.97,71.91-154.11,118.63c-18.36,42.58-18.49,76.13-18.63,111.64
	c-0.09,21.2-0.17,43.13-4.19,67.87c-3.27,20.15-7.69,38.69-13.47,56.28h43.77C380.84,851.89,378.69,811.4,376.92,778.21z"/>
<path style="fill:none;" d="M784.57,817.15c23.47-39.91,15.5-50.89,8.47-60.59c-3.98-5.49-8.1-11.16-6.15-20.92
	c1.47-7.37,3.3-15.13,5.23-23.34c9.49-40.32,20.24-86.02-9.08-97.02c-1.77-0.67-3.7-0.99-5.76-0.99c-16.83,0-43.23,21.85-75.43,62.7
	c-29.52,37.44-56.64,81.76-64.87,99.36c-0.94,2.02-1.94,4.13-2.99,6.33c-16.28,34.41-43.53,92.01-10.09,113.91
	c1.98,1.3,4.07,2.42,6.24,3.42h54.17C722.16,887.82,762.33,854.95,784.57,817.15z"/>
<path style="fill:none;" d="M500.45,714.25c0.69-44.09,1.19-75.94,35.21-99.87c15.84-11.14,49.44-25.73,88.34-42.64
	c76.84-33.39,172.48-74.94,200.85-118.07c43.38-65.94,31.27-141.55,0.02-187.23c-20.96-30.64-51.96-62.82-81.94-93.94
	c-30.17-31.32-58.66-60.9-78.17-89.37C646.71,56.8,632.68,28.86,622.86,0h-16.15c4.29,17.19,9.57,33.76,16,48.66
	c18.3,42.43,63.19,93.53,99.25,134.59c18.87,21.48,35.16,40.04,43.65,52.87c23.42,35.43,44.16,77.44,37.36,144.37
	c-4.43,43.65-24.16,75.02-65.97,104.89c-25.44,18.17-77.16,39.6-131.92,62.29c-33.9,14.05-68.96,28.57-98.3,42.63
	c-28.79,13.79-58.42,28.92-80.11,46.06c-20.73,16.39-33.83,34.2-41.22,56.05c-7.86,23.26-6.4,50.77-4.54,85.59
	c1.77,33.24,3.92,73.78-2.14,122.01h85.53c14.08-36.51,28.64-82.7,33.24-126.5C499.87,751.32,500.18,731.63,500.45,714.25z"/>
<path style="fill:none;" d="M867.02,203.99c24.21,36.3,37.55,56.3,62.78,48.04c22.53-7.38,21.96-49.12-1.71-124.06
	c-6.97-22.07-16.57-56.35-19.41-98.99c-0.64-9.66-0.89-19.32-0.77-28.99H889.4c6.57,52.73,22.37,117.34,32.17,157.39
	c5.51,22.54,9.15,37.43,9.15,41.51c0,7.7-3.15,13.99-8.65,17.28c-6.02,3.59-13.97,3.07-22.4-1.47
	c-19.87-10.7-60.65-79.96-106.96-210.58c-0.49-1.39-0.96-2.76-1.43-4.14h-45.89c38.24,74.67,70.56,129.71,107.06,182.44
	C857.75,190.1,862.46,197.16,867.02,203.99z"/>
<path style="fill:none;" d="M49.43,426.87c66.77,4.32,118.01,17.05,151.92,25.48c1.29,0.32,2.61,0.65,3.98,1
	c22.31,5.61,56.03,14.1,70.84-2.24c4.97-5.49,7.88-12.88,8.65-21.95c1.73-20.3-2.85-47.07-7.28-72.96
	c-4.66-27.22-9.06-52.93-5.7-69.02c3.1-14.9,11.83-28.7,21.06-43.32c10.49-16.6,21.33-33.76,26.61-55.52
	c3.7-15.26,3.65-34.08,3.59-55.88c-0.1-37.84-0.21-83.64,19.53-132.45H158.01c0,0.25,0,0.5,0,0.75
	c0.19,37.01,0.29,57.39-25.29,76.88c-5.98,4.56-12.35,6.86-18.64,6.86c-4.04,0-8.05-0.95-11.92-2.86
	c-15.96-7.9-27.1-30.85-27.1-55.81c0-10.13-0.91-18.63-2.47-25.82H0v127.99c1.4-9.2,3.06-19.71,4.84-30.19
	c10.3-60.75,14.18-60.92,16.75-61.04c2.86-0.13,3.72,3.62,4.08,5.21c3.29,14.46,20.9,42.07,40.98,64.23
	c24.77,27.34,48.87,42.06,66.11,40.41c17.5-1.69,32.57-16.63,48.53-32.45c20.6-20.43,41.9-41.55,70.16-34.1
	c10.41,2.75,17.57,9.98,20.69,20.91c8.3,29.08-12.73,81.01-47.87,118.24C177.74,268.47,74.86,301.63,0,315.28v110.46
	C19.79,425.36,37.12,426.07,49.43,426.87z"/>
<path style="fill:none;" d="M221.35,216.48c34.27-36.3,54.88-86.55,46.93-114.4c-2.75-9.64-8.76-15.74-17.86-18.14
	c-26.05-6.87-46.52,13.43-66.33,33.07c-15.75,15.62-32.04,31.77-50.96,33.59c-25.36,2.45-54.4-25.09-69.46-41.71
	c-20.48-22.6-38.5-50.98-41.91-66.02c-0.1-0.45-0.2-0.83-0.29-1.13C17.51,49.26,9.1,89.54,0,155.58v1
	c3.21,2.79,14.9,12.51,31.06,20.9c17.39,9.03,43.65,18.32,70.04,11.28c10.35-2.76,35.77-7.29,48.21,10.07
	c6.2,8.66,6.71,20.43,1.25,28.63c-5.58,8.36-30.84,19.44-62.88,27.56c-30.7,7.79-61.74,11.31-87.68,10.13v46.05
	C74.2,297.6,175.65,264.87,221.35,216.48z"/>
<path style="fill:none;" d="M104.38,77.15c8.21,4.07,16.97,2.86,25.31-3.5c23.59-17.98,23.51-35.18,23.32-72.88
	c0-0.25,0-0.52,0-0.77H77.64c1.53,7.32,2.42,15.83,2.42,25.82C80.06,48.95,90.06,70.05,104.38,77.15z"/>
<path style="fill:none;" d="M1420.84,191.77c-39.25-7.73-72.8-20.18-99.77-30.18c-30.96-11.49-53.34-19.79-66.15-14.66
	c-16.23,6.49-26.93,18.87-32.71,37.85c-8.3,27.25-6.25,68.13,6.11,121.49c15.37,66.39,19.8,112.52,14.82,154.27
	c-5.38,45.03-22.07,86.73-54.12,135.22c-8.82,13.35-18.46,26.93-27.78,40.06c-54.78,77.2-111.29,156.86-64.99,264.18h41.98
	c-17.22-31.98-22.62-59.54-23.74-78.9c-1.86-31.98,7.22-60.05,24.31-75.08c6.77-5.96,13.11-8.05,18.86-6.23
	c14.46,4.6,21.18,32.96,26.59,55.75c1.83,7.7,3.4,14.36,5.03,19.02c9.28,26.67,25.2,48.07,47.32,63.62
	c13.83,9.72,29.81,17.03,47.66,21.82h77.78c18.81-5.37,35.1-13.66,48.77-20.62c5.18-2.64,10.07-5.13,14.6-7.21
	c6.82-3.14,20.34-8.79,34.18-11.33c13.8-2.54,24.4-1.4,31.48,3.39c7.21,4.88,10.57,13.35,9.98,25.19
	c-0.18,3.53-0.59,7.06-1.23,10.59h70.04c3.69-5.02,7.57-9.92,11.73-14.62c8.11-9.16,16.87-17.04,26.41-23.77V749.58
	c-46.99,11.16-71.26,30.12-111.34,61.45c-11.07,8.65-23.62,18.46-38.08,29.19c-31.89,23.66-68.98,36.21-106.15,36.21
	c-6.3,0-12.61-0.36-18.89-1.09c-40.02-4.64-77.16-24.11-101.89-53.4c-20.92-24.77-26.84-60.52-17.13-103.4
	c8.08-35.68,24.21-65.03,29.74-73.32c3.18-4.77,8.02-11.05,13.62-18.31c17.1-22.19,42.93-55.71,56.07-91.05
	c15.27-41.06,2.42-115.47-3.06-147.25c-0.76-4.43-1.42-8.26-1.87-11.15c-5.24-34.03-4.48-55.89,2.44-70.88
	c6.55-14.2,18.99-22.75,40.34-27.73c25.51-5.95,65.34,8.26,103.87,22.01c20.44,7.29,41.58,14.84,59.47,18.86
	c27.11,6.1,62.34-5.89,92.88-20.33V155.31c-18.43,6.32-34.01,12.35-48.28,17.88C1510.7,192.18,1481.11,203.65,1420.84,191.77z"/>
<path style="fill:none;" d="M1414.82,57.2c-26.39,0.95-58.78-5.92-93.05-13.19c-58.83-12.48-119.67-25.38-156.24,0.06
	c-59.06,41.09-52.5,104.56-48.97,138.66c2.56,24.71,20.29,87.11,33.25,132.68c6.37,22.4,11.87,41.74,13.97,51.02l0.74,3.23
	c6.56,28.59,20.21,88.09-3.35,157.52c-11.4,33.61-42.96,71.45-76.38,111.5c-29.94,35.9-60.9,73.01-79.57,109.74
	c-16.54,32.54-26.34,72.54-27.6,112.64c-0.42,13.21,0.1,26.23,1.52,38.93h111.68c-19.13-45.52-21.69-90.02-7.9-135.29
	c14.5-47.59,44.87-90.39,74.24-131.78c9.3-13.1,18.91-26.65,27.69-39.93c31.6-47.8,48.05-88.84,53.33-133.05
	c4.92-41.14,0.51-86.76-14.72-152.55c-21.86-94.39-12.17-148.4,29.61-165.11c14.61-5.84,37.74,2.74,69.75,14.61
	c26.79,9.94,60.14,22.31,99,29.96c58.85,11.59,87.93,0.33,136.1-18.34c14.73-5.71,30.87-11.95,50.08-18.5V29.86
	c-27.7,3.22-57.39,8.24-86.61,13.18C1481.46,49.79,1443.73,56.17,1414.82,57.2z"/>
<path style="fill:none;" d="M1579.94,682.28c-10.33,1.95-19.24,3.63-25.91,4.96l-1.27,0.25c-28.38,5.68-66.66,13.34-99.93,13.34
	c-31.03,0-57.71-6.66-67.98-27.8c-24.92-51.3-19.06-99.32,17.9-146.8c50.93-65.4,121.8-114.69,172.33-119.86
	c12.55-1.28,23.38-2.09,32.92-2.55v-42.68c-15.64,6.51-33.32,9.98-54.19,6.93c-55.22-8.08-116.91-16.5-150.18-14.03
	c-21.04,1.56-33.36,6.27-41.21,15.74c-8.72,10.53-11.62,27.45-8.86,51.74c0.39,3.42,0.98,8.01,1.67,13.33
	c4.29,33.1,12.27,94.7,3.3,119.37c-4.93,13.55-18.64,37.07-31.9,59.81c-14.4,24.69-29.28,50.21-31.88,61.26l-0.1,0.43
	c-2.64,11.21-7.55,32.07-7.01,53c0.65,25.15,9.07,42.35,25.04,51.1c39.72,21.78,90.13,18.15,141.94-10.22
	c11.25-6.16,21.4-12.34,31.21-18.31c34.05-20.72,63.88-38.86,122.18-46.51v-27.83C1597.76,678.92,1588.32,680.7,1579.94,682.28z"/>
<path style="fill:none;" d="M796.48,2.8c45.71,128.91,86.51,198.39,105.08,208.39c7.14,3.85,13.69,4.4,18.45,1.55
	c4.26-2.54,6.7-7.59,6.7-13.84c0-3.6-3.99-19.91-9.04-40.56c-9.84-40.25-25.73-105.2-32.3-158.34h-89.87
	C795.84,0.93,796.15,1.86,796.48,2.8z"/>
<path style="fill:none;" d="M86.7,251.16c34.18-8.67,56.33-19.59,60.53-25.9c4.56-6.85,4.08-16.75-1.17-24.08
	c-7.73-10.8-23.75-13.91-43.93-8.54c-21.9,5.83-47.14,1.81-73.01-11.65C15.49,173.89,5.15,166.04,0,161.82v99.34
	C25.58,262.35,56.28,258.87,86.7,251.16z"/>
<path style="fill:none;" d="M1488.42,755.56c-9.86,6-20.05,12.21-31.41,18.42c-30.24,16.56-60.08,24.9-87.77,24.9
	c-21.18,0-41.09-4.88-58.97-14.68c-17.64-9.67-26.93-28.3-27.63-55.36c-0.56-21.58,4.45-42.85,7.14-54.27l0.1-0.43
	c2.77-11.77,17.18-36.48,32.43-62.63c13.15-22.55,26.75-45.87,31.52-59c8.55-23.53,0.37-86.67-3.56-117.02
	c-0.69-5.34-1.29-9.95-1.68-13.41v0c-2.92-25.71,0.34-43.86,9.98-55.49c11.13-13.44,29.73-16.43,44.69-17.54
	c33.76-2.51,93.25,5.58,151.27,14.07c20.56,3.01,38-0.72,53.47-7.46v-50.63c-24.91,11.66-52.46,21.36-76.94,21.36
	c-5.88,0-11.58-0.56-17.03-1.79c-18.19-4.09-39.47-11.69-60.06-19.03c-31.94-11.4-64.81-23.12-88.76-23.12
	c-4.42,0-8.54,0.4-12.29,1.28c-19.97,4.66-31.01,12.12-36.94,24.96c-6.48,14.05-7.11,35.03-2.03,68.03v0
	c0.44,2.84,1.09,6.65,1.85,11.05c6.02,34.9,18.56,107.52,2.82,149.84c-13.4,36.04-39.51,69.93-56.79,92.36
	c-5.54,7.2-10.33,13.41-13.42,18.04c-5.39,8.08-21.11,36.72-29.02,71.66c-6.52,28.79-9.02,69.34,16.08,99.06
	c23.93,28.33,59.88,47.16,98.65,51.66c42.06,4.88,85.21-7.26,121.49-34.17c14.4-10.69,26.93-20.48,37.98-29.11
	c39.79-31.1,65.27-51.01,114.42-62.58v-34.69C1551.13,717.4,1521.84,735.22,1488.42,755.56z"/>
<path style="fill:none;" d="M745.82,169.73c30.09,31.24,61.21,63.54,82.36,94.46c32,46.78,44.42,124.2,0.02,191.69
	C799.17,500,702.93,541.82,625.6,575.42c-38.7,16.82-72.13,31.34-87.64,42.24c-32.36,22.75-32.82,52.16-33.52,96.66
	c-0.27,17.46-0.58,37.24-2.93,59.6c-4.58,43.64-18.93,89.55-32.93,126.08h33.35c10.88-35.15,19.83-70.75,28.13-103.79
	c9.57-38.11,18.61-74.1,28.9-102.38c21.54-59.25,74.74-107.8,158.1-144.31c14.22-6.22,29.71-11.93,46.11-17.97
	c55.96-20.6,119.38-43.96,145.88-95.97c16.05-31.5,14.95-70.05-3.26-114.57c-16.28-39.79-46.4-83.75-87.11-127.12
	c-33.32-35.51-81.88-89.67-118.73-149.84C690.83,29.14,682.8,14.46,675.85,0h-48.76c9.68,28.07,23.4,55.23,40.98,80.88
	C687.39,109.07,715.77,138.54,745.82,169.73z"/>
<path style="opacity:0.25;fill:#D9D9DA;enable-background:new    ;" d="M380.91,777.99c-1.85-34.82-3.32-62.32,4.54-85.59
	c7.39-21.85,20.49-39.66,41.22-56.05c21.68-17.14,51.31-32.27,80.11-46.06c29.35-14.06,64.4-28.58,98.3-42.63
	c54.76-22.69,106.48-44.12,131.92-62.29c41.81-29.87,61.54-61.24,65.97-104.89c6.79-66.92-13.94-108.94-37.36-144.37
	c-8.48-12.83-24.78-31.38-43.65-52.87c-36.06-41.06-80.95-92.16-99.25-134.59c-6.43-14.9-11.71-31.47-16-48.66h-4.11
	c4.39,17.75,9.81,34.87,16.44,50.24c18.55,43.01,63.67,94.38,99.92,135.65c18.77,21.37,34.98,39.83,43.31,52.43
	c23.01,34.81,43.39,76.08,36.72,141.76c-4.3,42.39-23.54,72.91-64.32,102.04c-25.07,17.91-76.58,39.25-131.12,61.85
	c-33.95,14.07-69.06,28.61-98.5,42.72c-29,13.89-58.87,29.14-80.86,46.53c-21.37,16.89-34.88,35.29-42.53,57.91
	c-8.11,23.99-6.62,51.83-4.75,87.08c1.77,33.19,3.92,73.68-2.18,121.79h4.03C384.84,851.77,382.68,811.24,380.91,777.99z"/>
<path style="opacity:0.25;fill:#D9D9DA;enable-background:new    ;" d="M849.16,184.71c5.29,7.63,9.99,14.68,14.53,21.5
	c24.47,36.69,39.23,58.83,67.35,49.62c25.38-8.31,25.66-50.53,0.86-129.06C925.67,107.04,911.21,61.23,911.98,0h-4.07
	c-0.12,9.66,0.13,19.33,0.77,28.99c2.84,42.64,12.44,76.91,19.41,98.99c23.67,74.94,24.24,116.68,1.71,124.06
	c-25.23,8.26-38.57-11.74-62.78-48.04c-4.56-6.83-9.27-13.89-14.57-21.56C815.94,129.71,783.62,74.67,745.38,0h-4.49
	C779.62,75.77,812.25,131.4,849.16,184.71z"/>
<path style="opacity:0.25;fill:#D9D9DA;enable-background:new    ;" d="M501.52,773.92c2.35-22.36,2.66-42.15,2.93-59.6
	c0.7-44.5,1.16-73.91,33.52-96.66c15.51-10.9,48.93-25.42,87.64-42.24c77.33-33.6,173.57-75.41,202.6-119.54
	c44.4-67.49,31.98-144.9-0.02-191.69c-21.15-30.92-52.27-63.22-82.36-94.46c-30.05-31.2-58.43-60.66-77.75-88.85
	C650.49,55.23,636.77,28.07,627.09,0h-4.22c9.82,28.86,23.85,56.8,41.9,83.14c19.51,28.47,48.01,58.05,78.17,89.37
	c29.98,31.12,60.98,63.3,81.94,93.94c31.25,45.68,43.36,121.29-0.02,187.23c-28.38,43.13-124.01,84.68-200.85,118.07
	c-38.9,16.9-72.5,31.5-88.34,42.64c-34.02,23.93-34.52,55.78-35.21,99.87c-0.27,17.37-0.58,37.06-2.91,59.25
	c-4.59,43.8-19.16,89.99-33.24,126.5h4.28C482.59,863.46,496.94,817.56,501.52,773.92z"/>
<path style="opacity:0.25;fill:#D9D9DA;enable-background:new    ;" d="M899.67,214.71c8.43,4.54,16.38,5.06,22.4,1.47
	c5.5-3.28,8.65-9.58,8.65-17.28c0-4.08-3.64-18.97-9.15-41.51C911.77,117.34,895.97,52.73,889.4,0h-4.02
	c6.57,53.14,22.46,118.09,32.3,158.34c5.05,20.65,9.04,36.96,9.04,40.56c0,6.25-2.44,11.3-6.7,13.84
	c-4.76,2.84-11.31,2.29-18.45-1.55c-18.57-10-59.38-79.48-105.08-208.39c-0.33-0.94-0.65-1.86-0.97-2.8h-4.23
	c0.48,1.38,0.94,2.75,1.43,4.14C839.02,134.75,879.8,204.01,899.67,214.71z"/>
<path style="opacity:0.25;fill:#D9D9DA;enable-background:new    ;" d="M562.72,695.2c21.16-58.18,73.62-105.96,155.95-142.02
	c14.11-6.18,29.55-11.86,45.89-17.88c56.65-20.86,120.85-44.5,148.06-97.9c16.6-32.59,15.55-72.26-3.12-117.9
	c-16.46-40.23-46.85-84.62-87.89-128.35c-33.2-35.38-81.58-89.34-118.23-149.19C694.68,27.76,686.99,13.77,680.28,0h-4.43
	c6.96,14.46,14.99,29.14,24.11,44.04c36.84,60.17,85.4,114.33,118.73,149.84c40.71,43.38,70.83,87.34,87.11,127.12
	c18.21,44.52,19.31,83.07,3.26,114.57c-26.5,52.01-89.92,75.36-145.88,95.97c-16.4,6.04-31.9,11.74-46.11,17.97
	c-83.36,36.51-136.56,85.07-158.1,144.31c-10.28,28.28-19.32,64.27-28.9,102.38c-8.3,33.04-17.26,68.64-28.13,103.79h4.19
	c10.74-34.86,19.6-70.09,27.82-102.82C543.49,759.18,552.51,723.28,562.72,695.2z"/>
<path style="opacity:0.25;fill:#D9D9DA;enable-background:new    ;" d="M788.02,819.17c10.96-18.63,16.28-33.01,16.27-43.98
	c-0.01-9.94-4.26-15.81-8.02-20.98c-3.8-5.23-7.07-9.75-5.46-17.79c1.46-7.3,3.28-15.03,5.2-23.21
	c9.86-41.93,21.04-89.45-11.57-101.68c-23.03-8.64-59.34,29.48-85.74,62.97c-29.7,37.68-57.04,82.36-65.35,100.14
	c-0.94,2.01-1.94,4.12-2.98,6.32c-16.84,35.59-45.02,95.16-8.67,118.97c0.04,0.03,0.08,0.05,0.12,0.08h8.31
	c-2.17-1-4.26-2.13-6.24-3.42c-33.43-21.9-6.19-79.5,10.09-113.91c1.04-2.2,2.04-4.32,2.99-6.33c8.23-17.6,35.35-61.92,64.87-99.36
	c32.2-40.85,58.6-62.7,75.43-62.7c2.07,0,3.99,0.33,5.76,0.99c29.32,10.99,18.57,56.69,9.08,97.02c-1.93,8.22-3.76,15.98-5.23,23.34
	c-1.95,9.76,2.17,15.43,6.15,20.92c7.03,9.7,15.01,20.68-8.47,60.59c-22.24,37.8-62.41,70.68-100.27,82.85H696
	c14.07-5.78,28.32-14.15,42.03-24.78C758.5,859.35,775.78,839.97,788.02,819.17z"/>
<path style="opacity:0.25;fill:#D9D9DA;enable-background:new    ;" d="M977.62,861.07c1.26-40.1,11.07-80.1,27.6-112.64
	c18.67-36.73,49.63-73.84,79.57-109.74c33.42-40.06,64.98-77.9,76.38-111.5c23.56-69.43,9.91-128.93,3.35-157.52l-0.74-3.23
	c-2.11-9.28-7.61-28.62-13.97-51.02c-12.95-45.57-30.69-107.97-33.25-132.68c-3.53-34.1-10.09-97.57,48.97-138.66
	c36.56-25.43,97.4-12.53,156.24-0.06c34.28,7.27,66.67,14.14,93.05,13.19c28.91-1.03,66.63-7.41,106.57-14.16
	c29.21-4.94,58.91-9.96,86.61-13.18v-4.03c-27.93,3.23-57.85,8.28-87.27,13.26c-39.81,6.73-77.4,13.09-106.05,14.11
	c-25.9,0.93-58.05-5.89-92.08-13.1c-59.67-12.65-121.37-25.73-159.35,0.69c-25.97,18.06-42.52,42.59-49.19,72.9
	c-5.89,26.76-3.12,53.48-1.47,69.45c2.59,25.05,20.39,87.65,33.38,133.36c6.35,22.34,11.84,41.64,13.92,50.82l0.74,3.24
	c6.48,28.23,19.95,86.98-3.24,155.34c-11.16,32.9-42.49,70.46-75.66,110.23c-30.08,36.07-61.19,73.36-80.06,110.49
	c-16.8,33.05-26.75,73.66-28.04,114.33c-0.42,13.25,0.09,26.31,1.5,39.05h4.03C977.73,887.3,977.2,874.29,977.62,861.07z"/>
<path style="opacity:0.25;fill:#D9D9DA;enable-background:new    ;" d="M961.08,719.58c29.73-47.97,67.49-86.67,92.47-112.29
	c1.94-1.99,3.82-3.91,5.62-5.76c46.21-47.56,81.65-88.57,82.88-146.73c1.35-64.88-23.14-116.53-63.64-193.89
	c-18.95-36.2-31.21-80.69-34.52-125.27c-3.24-43.61,2.32-82.3,15.63-108.93c4.33-8.66,9.27-17.79,15.09-26.72h-4.67
	c-4.8,7.53-9.45,15.82-14,24.93c-13.64,27.27-19.33,66.7-16.04,111.02c3.35,45.12,15.77,90.16,34.97,126.83
	c40.2,76.79,64.51,128.03,63.18,191.95c-1.19,56.7-36.16,97.1-81.75,144.02c-1.8,1.85-3.67,3.77-5.61,5.76
	c-25.11,25.74-63.05,64.63-93.01,112.97c-35.73,57.66-51.95,115.94-48.2,173.24c0.2,3.11,0.47,6.2,0.77,9.28h4.02
	c-0.31-3.17-0.59-6.35-0.8-9.55C909.78,834.01,925.79,776.52,961.08,719.58z"/>
<path style="opacity:0.25;fill:#D9D9DA;enable-background:new    ;" d="M1412.62,882.94c5.14-2.62,10-5.09,14.46-7.14
	c32.46-14.93,53.18-14.06,61.75-8.27c5.97,4.04,8.74,11.33,8.22,21.68c-0.18,3.59-0.62,7.2-1.3,10.79h4.06
	c0.64-3.53,1.06-7.07,1.23-10.59c0.59-11.84-2.77-20.32-9.98-25.19c-7.08-4.79-17.68-5.93-31.48-3.39
	c-13.84,2.55-27.36,8.2-34.18,11.33c-4.53,2.08-9.42,4.58-14.6,7.21c-13.67,6.96-29.97,15.25-48.77,20.62h13.03
	C1389.2,894.87,1401.72,888.49,1412.62,882.94z"/>
<path style="opacity:0.25;fill:#D9D9DA;enable-background:new    ;" d="M1118.49,820.87c-1.79-30.76,6.79-57.62,22.96-71.84
	c4.43-3.9,8.49-5.86,12.12-5.86c0.99,0,1.96,0.15,2.88,0.44c12.3,3.92,19.01,32.21,23.91,52.86c1.85,7.81,3.45,14.55,5.14,19.41
	c9.56,27.47,25.97,49.54,48.8,65.58c10.91,7.66,23.1,13.86,36.45,18.54h13.51c-17.85-4.79-33.83-12.1-47.66-21.82
	c-22.12-15.55-38.04-36.95-47.32-63.62c-1.62-4.66-3.2-11.32-5.03-19.02c-5.4-22.79-12.13-51.15-26.59-55.75
	c-5.75-1.83-12.09,0.27-18.86,6.23c-17.08,15.03-26.17,43.1-24.31,75.08c1.13,19.36,6.52,46.92,23.74,78.9h4.56
	C1125.09,867.84,1119.61,840.18,1118.49,820.87z"/>
<path style="opacity:0.25;fill:#D9D9DA;enable-background:new    ;" d="M1402.75,526.23c-36.96,47.48-42.82,95.5-17.9,146.8
	c10.27,21.14,36.95,27.8,67.98,27.8c33.28,0,71.55-7.66,99.93-13.34l1.27-0.25c6.67-1.33,15.59-3.02,25.91-4.96
	c8.38-1.58,17.82-3.36,28.06-5.33v-4.07c-10.52,2.03-20.22,3.85-28.8,5.47c-10.34,1.95-19.27,3.63-25.96,4.97l-1.27,0.25
	c-26.41,5.29-62.57,12.53-94.63,13.16c-37.15,0.74-60.34-7.83-68.9-25.44c-24.19-49.8-18.48-96.44,17.46-142.6
	c50.31-64.61,120.05-113.27,169.58-118.34l-0.2-1.99l0.2,1.99c12.4-1.27,23.08-2.07,32.51-2.52v-4.01
	c-9.54,0.45-20.36,1.27-32.92,2.55C1524.54,411.54,1453.68,460.83,1402.75,526.23z"/>
<path style="opacity:0.25;fill:#D9D9DA;enable-background:new    ;" d="M552.55,297.3c16.59-14.06,24.57-26.9,25.13-40.42
	c0.59-14.38-7.59-29.84-25.01-47.26c-15.19-15.19-51.22-26.18-85.25-18.31c-22.82,5.28-53.27,21.08-68.79,66.33
	c-24.17,70.48-18.77,138.63-1.42,166.96c5.13,8.39,11.36,13.32,17.99,14.27c2.4,0.34,4.82,0.51,7.24,0.51
	c25.91,0,52.05-19.22,64.13-48.14C501.11,356.52,533.01,313.87,552.55,297.3z M482.89,389.71c-11.46,27.43-36.09,45.68-60.41,45.68
	c-2.24,0-4.48-0.16-6.71-0.47c-5.42-0.77-10.66-5.06-15.15-12.4c-16.87-27.55-21.97-94.25,1.8-163.58
	c14.92-43.52,44.08-58.68,65.91-63.73c6.59-1.53,14.09-2.31,21.9-2.31c21.92,0,46.26,6.19,59.62,19.55
	c16.58,16.58,24.38,31.06,23.84,44.27c-0.51,12.32-8.04,24.25-23.72,37.53C530.08,311.11,497.64,354.46,482.89,389.71z"/>
<path style="opacity:0.25;fill:#D9D9DA;enable-background:new    ;" d="M159.56,776.24c-0.67-31-1.3-60.28,2.81-88.46
	c2.95-20.23,8.65-38.9,13.68-55.38c11.66-38.18,20.87-68.34-17.46-82.92c-26.59-10.11-65.64,4.06-116.05,42.1
	C26.38,603.77,11.59,616.58,0,627.22v5.49c37.2-34.42,112.63-96.42,157.17-79.49c34.84,13.25,26.97,39.01,15.06,78.01
	c-5.07,16.61-10.82,35.43-13.81,55.97c-4.16,28.51-3.52,57.95-2.85,89.12c0.86,40.12,1.75,81.43-7.71,123.68h4.09
	C161.3,857.61,160.42,816.33,159.56,776.24z"/>
<path style="opacity:0.25;fill:#D9D9DA;enable-background:new    ;" d="M75.18,729.78c-19.68-28.51-45.8-32.49-64.26-30.82
	c-3.85,0.35-7.51,0.95-10.92,1.69v4.11c3.51-0.8,7.3-1.45,11.28-1.81c25.29-2.29,45.68,7.49,60.6,29.11
	c40.55,58.73,16.01,114.02-2.23,141.75c-5.26,7.99-12.66,16.99-21.04,26.2h5.37c7.53-8.43,14.16-16.64,19.01-24
	C91.79,847.43,117.07,790.44,75.18,729.78z"/>
<path style="opacity:0.25;fill:#D9D9DA;enable-background:new    ;" d="M259.53,757.39c-11.25-28.26-21.88-54.95-25.62-81.67
	c-4.3-30.69,1.31-49.21,6.25-65.55c5.39-17.83,10.05-33.23,1.33-58.73c-7.61-22.25-24.49-36.71-50.18-42.97
	c-23.09-5.63-48.75-3.38-66.21-0.51C86.45,514.32,28.93,550.88,0,593.01v7.29c11.4-18.3,29.26-36.79,51.55-53.16
	c25.29-18.58,53.03-31.75,74.19-35.23c17.09-2.81,42.18-5.02,64.61,0.45c24.27,5.92,40.2,19.5,47.34,40.38
	c8.31,24.28,3.82,39.1-1.37,56.27c-5.06,16.74-10.8,35.7-6.38,67.26c3.81,27.2,14.52,54.11,25.87,82.6
	c15.9,39.91,32.33,81.18,31.59,127.85c-0.07,4.29-0.42,8.73-1.04,13.28h4.06c0.57-4.5,0.91-8.92,0.98-13.22
	C292.16,839.31,275.57,797.66,259.53,757.39z"/>
<path style="opacity:0.25;fill:#D9D9DA;enable-background:new    ;" d="M87.68,255.04c32.03-8.12,57.3-19.2,62.88-27.56
	c5.47-8.2,4.95-19.97-1.25-28.63c-12.44-17.37-37.86-12.83-48.21-10.07c-26.4,7.03-52.66-2.26-70.04-11.28
	C14.9,169.09,3.21,159.37,0,156.58v5.24c5.15,4.22,15.49,12.07,29.13,19.16c25.86,13.45,51.11,17.48,73.01,11.65
	c20.18-5.37,36.19-2.26,43.93,8.54c5.25,7.33,5.73,17.24,1.17,24.08c-4.21,6.31-26.35,17.24-60.53,25.9
	c-30.42,7.71-61.12,11.19-86.7,10.01v4C25.94,266.34,56.98,262.82,87.68,255.04z"/>
<path style="opacity:0.25;fill:#D9D9DA;enable-background:new    ;" d="M224.26,219.23c35.15-37.23,56.17-89.16,47.87-118.24
	c-3.12-10.93-10.28-18.17-20.69-20.91c-28.26-7.45-49.56,13.67-70.16,34.1c-15.96,15.82-31.02,30.76-48.53,32.45
	c-17.24,1.65-41.34-13.07-66.11-40.41C46.57,84.05,28.95,56.44,25.67,41.98c-0.36-1.6-1.22-5.35-4.08-5.21
	c-2.57,0.11-6.45,0.28-16.75,61.04C3.06,108.28,1.4,118.79,0,127.99v27.59C9.1,89.54,17.51,49.26,21.47,41.74
	c0.09,0.3,0.19,0.68,0.29,1.13c3.42,15.04,21.44,43.42,41.91,66.02c15.06,16.62,44.1,44.16,69.46,41.71
	c18.92-1.82,35.21-17.97,50.96-33.59c19.8-19.64,40.28-39.94,66.33-33.07c9.1,2.4,15.11,8.5,17.86,18.14
	c7.95,27.85-12.66,78.1-46.93,114.4C175.65,264.87,74.2,297.6,0,311.22v4.07C74.86,301.63,177.74,268.47,224.26,219.23z"/>
<path style="opacity:0.5;fill:#D9D9DA;enable-background:new    ;" d="M939.66,654.51l2.54-3.96c10.33-16.1,26.45-35.73,43.52-56.51
	c30.7-37.37,65.5-79.73,77.12-114.61c14.26-42.79-3.45-93.02-16.39-129.7c-3.56-10.09-6.92-19.62-9.12-27.6
	c-3.53-12.78-14.76-34.74-28.99-62.54c-26.56-51.92-62.94-123.03-65.45-170.68C940.36,40.57,954.03,16.13,968.55,0H962
	c-13.83,16.74-26.55,42.46-24.09,89.18c2.56,48.71,39.22,120.37,65.99,172.69c13.54,26.46,25.23,49.31,28.62,61.6
	c2.25,8.14,5.64,17.75,9.22,27.93c12.7,35.99,30.08,85.29,16.36,126.45c-11.33,34-45.82,75.98-76.24,113.02
	c-17.17,20.9-33.38,40.64-43.87,56.98l-2.54,3.95c-27.91,43.34-73.31,113.88-66.39,248.2h5.01
	C867.18,767.1,912.07,697.36,939.66,654.51z"/>
<path style="opacity:0.5;fill:#D9D9DA;enable-background:new    ;" d="M1515.12,319.73c-17.89-4.03-39.03-11.57-59.47-18.86
	c-38.52-13.75-78.36-27.96-103.87-22.01c-21.35,4.98-33.79,13.53-40.34,27.73c-6.92,14.99-7.67,36.85-2.44,70.88
	c0.44,2.89,1.1,6.72,1.87,11.15c5.48,31.77,18.33,106.19,3.06,147.25c-13.13,35.33-38.97,68.86-56.07,91.05
	c-5.6,7.27-10.44,13.54-13.62,18.31c-5.53,8.3-21.66,37.65-29.74,73.32c-9.71,42.87-3.78,78.63,17.13,103.4
	c24.74,29.29,61.88,48.76,101.89,53.4c6.28,0.73,12.59,1.09,18.89,1.09c37.17,0,74.26-12.55,106.15-36.21
	c14.46-10.73,27-20.53,38.08-29.19c40.08-31.33,64.35-50.29,111.34-61.45v-5.07c-49.15,11.57-74.63,31.48-114.42,62.58
	c-11.05,8.64-23.57,18.42-37.98,29.11c-36.28,26.92-79.42,39.05-121.49,34.17c-38.77-4.5-74.72-23.33-98.65-51.66
	c-25.1-29.72-22.6-70.28-16.08-99.06c7.91-34.94,23.63-63.57,29.02-71.66c3.08-4.63,7.87-10.84,13.42-18.04
	c17.28-22.42,43.4-56.31,56.79-92.36c15.74-42.32,3.2-114.94-2.82-149.84c-0.76-4.41-1.42-8.21-1.85-11.05v0
	c-5.08-33-4.45-53.98,2.03-68.03c5.92-12.83,16.97-20.3,36.94-24.96c3.75-0.88,7.87-1.28,12.29-1.28
	c23.95,0,56.81,11.73,88.76,23.12c20.58,7.34,41.87,14.94,60.06,19.03c5.45,1.23,11.15,1.79,17.03,1.79
	c24.48,0,52.03-9.7,76.94-21.36v-5.63C1577.47,313.84,1542.23,325.82,1515.12,319.73z"/>
<path style="opacity:0.5;fill:#D9D9DA;enable-background:new    ;" d="M1574.03,529.67c-8.49,2.99-19.1,11.95-22.05,22.66
	c-2.15,7.79-0.14,15.68,5.81,22.82c10.9,13.09,28.14,21.69,50.21,25.4v-5.06c-20.45-3.57-36.36-11.53-46.36-23.54
	c-4.92-5.91-6.55-12.07-4.84-18.3c2.66-9.64,12.65-17.07,18.89-19.27c5.18-1.82,9.85-3.18,13.96-4.38
	c6.83-1.99,12.64-3.69,18.34-6.65v-5.71c-6,3.56-12.07,5.33-19.74,7.56C1584.08,526.43,1579.35,527.81,1574.03,529.67z"/>
<path style="opacity:0.5;fill:#D9D9DA;enable-background:new    ;" d="M348.62,775.85c0.14-35.52,0.28-69.06,18.63-111.64
	c20.14-46.72,100.76-90,154.11-118.63c13.49-7.24,25.15-13.5,33.41-18.54c5.8-3.54,13.01-7.59,21.35-12.27
	c49.58-27.81,132.56-74.37,142.57-141.13c11.59-77.26-38.91-162.43-89.83-235.55C581.61,70.22,573.54,34.82,567.93,0h-5.06
	c5.71,35.66,13.63,71.62,61.91,140.93c50.36,72.32,100.32,156.43,88.99,231.96c-9.65,64.34-91.29,110.14-140.08,137.51
	c-8.39,4.71-15.64,8.77-21.51,12.36c-8.14,4.97-19.74,11.2-33.17,18.41c-53.96,28.96-135.51,72.74-156.34,121.06
	c-18.76,43.52-18.9,77.56-19.04,113.6c-0.08,21.01-0.17,42.73-4.12,67.09c-3.29,20.25-7.79,39.08-13.77,57.08h5.24
	c5.78-17.59,10.2-36.13,13.47-56.28C348.45,818.98,348.54,797.05,348.62,775.85z"/>
<path style="opacity:0.5;fill:#D9D9DA;enable-background:new    ;" d="M49.1,431.85c66.32,4.3,115.29,16.46,151.04,25.34
	c1.28,0.32,2.6,0.65,3.96,0.99c23.47,5.91,58.94,14.83,75.76-3.73c5.72-6.33,9.06-14.7,9.92-24.88c1.78-20.94-2.85-48.03-7.33-74.23
	c-4.57-26.74-8.9-52-5.74-67.16c2.92-14.01,11.41-27.44,20.4-41.67c10.21-16.15,21.77-34.46,27.24-57.02
	c3.84-15.84,3.79-34.95,3.73-57.07c-0.1-37.85-0.22-83.78,19.92-132.43h-5.4c-19.73,48.81-19.63,94.61-19.53,132.45
	c0.06,21.8,0.11,40.62-3.59,55.88c-5.28,21.76-16.12,38.92-26.61,55.52c-9.24,14.62-17.96,28.42-21.06,43.32
	c-3.35,16.09,1.05,41.8,5.7,69.02c4.43,25.89,9.01,52.66,7.28,72.96c-0.77,9.07-3.68,16.45-8.65,21.95
	c-14.8,16.34-48.52,7.85-70.84,2.24c-1.36-0.34-2.69-0.68-3.98-1c-33.91-8.42-85.16-21.15-151.92-25.48
	c-12.3-0.8-29.64-1.5-49.43-1.13v5C19.65,430.36,36.88,431.06,49.1,431.85z"/>
<path style="opacity:0.5;fill:#D9D9DA;enable-background:new    ;" d="M102.16,81.63c3.87,1.91,7.88,2.86,11.92,2.86
	c6.3,0,12.66-2.31,18.64-6.86c25.58-19.49,25.47-39.87,25.29-76.88c0-0.25,0-0.5,0-0.75h-5c0,0.26,0,0.52,0,0.77
	c0.19,37.7,0.27,54.9-23.32,72.88c-8.34,6.36-17.1,7.57-25.31,3.5c-14.32-7.09-24.32-28.2-24.32-51.33c0-9.99-0.89-18.5-2.42-25.82
	h-5.05c1.57,7.19,2.47,15.69,2.47,25.82C75.06,50.78,86.2,73.72,102.16,81.63z"/>
<path style="opacity:0.5;fill:#D9D9DA;enable-background:new    ;" d="M1421.81,186.87c-38.85-7.65-72.2-20.02-99-29.96
	c-32.01-11.88-55.14-20.46-69.75-14.61c-41.78,16.71-51.47,70.72-29.61,165.11c15.24,65.79,19.64,111.41,14.72,152.55
	c-5.28,44.22-21.73,85.25-53.33,133.05c-8.78,13.28-18.39,26.83-27.69,39.93c-29.37,41.39-59.74,84.19-74.24,131.78
	c-13.79,45.27-11.23,89.78,7.9,135.29h5.43c-46.3-107.31,10.2-186.97,64.99-264.18c9.32-13.14,18.96-26.72,27.78-40.06
	c32.05-48.49,48.74-90.19,54.12-135.22c4.99-41.75,0.56-87.88-14.82-154.27c-12.36-53.36-14.41-94.24-6.11-121.49
	c5.78-18.98,16.48-31.35,32.71-37.85c12.82-5.13,35.19,3.17,66.15,14.66c26.96,10,60.52,22.45,99.77,30.18
	c60.27,11.87,89.86,0.41,138.88-18.58c14.27-5.53,29.85-11.56,48.28-17.88v-5.28c-19.21,6.54-35.35,12.79-50.08,18.5
	C1509.74,187.19,1480.66,198.46,1421.81,186.87z"/>
<path style="opacity:0.5;fill:#D9D9DA;enable-background:new    ;" d="M1581.59,885.38c-4.16,4.7-8.05,9.6-11.73,14.62h6.21
	c8.95-11.81,19.12-22.76,31.93-32.27v-6.13C1598.46,868.34,1589.71,876.22,1581.59,885.38z"/>
<path style="opacity:0.5;fill:#D9D9DA;enable-background:new    ;" d="M1554.53,363.12c-58.02-8.49-117.51-16.58-151.27-14.07
	c-14.96,1.11-33.56,4.1-44.69,17.54c-9.64,11.63-12.9,29.78-9.98,55.49v0c0.39,3.46,0.99,8.07,1.68,13.41
	c3.93,30.35,12.12,93.5,3.56,117.02c-4.77,13.13-18.37,36.45-31.52,59c-15.25,26.16-29.66,50.86-32.43,62.63l-0.1,0.43
	c-2.69,11.43-7.7,32.7-7.14,54.27c0.7,27.06,10,45.68,27.63,55.36c17.88,9.81,37.8,14.68,58.97,14.68c27.69,0,57.53-8.34,87.77-24.9
	c11.35-6.22,21.55-12.42,31.41-18.42c33.42-20.34,62.7-38.16,119.58-45.74v-5.04c-58.3,7.64-88.13,25.78-122.18,46.51
	c-9.81,5.97-19.96,12.15-31.21,18.31c-51.81,28.37-102.22,32-141.94,10.22c-15.96-8.75-24.39-25.95-25.04-51.1
	c-0.54-20.93,4.37-41.79,7.01-53l0.1-0.43c2.6-11.04,17.48-36.57,31.88-61.26c13.26-22.74,26.97-46.26,31.9-59.81
	c8.97-24.67,0.99-86.28-3.3-119.37c-0.69-5.32-1.28-9.91-1.67-13.33c-2.76-24.28,0.14-41.21,8.86-51.74
	c7.85-9.48,20.17-14.18,41.21-15.74c33.27-2.47,94.96,5.95,150.18,14.03c20.87,3.05,38.55-0.42,54.19-6.93v-5.48
	C1592.54,362.4,1575.1,366.13,1554.53,363.12z"/>
<path style="opacity:0.5;fill:#D9D9DA;enable-background:new    ;" d="M507.6,523.97c33.9-21.31,65.09-57.15,87.81-100.92
	c21.3-41.04,32.32-83.64,30.21-116.87c-2.78-43.84-25.81-82.01-44.32-112.67c-9.57-15.85-17.83-29.54-21.26-40.69
	c-1.61-5.24-3.06-11.8-4.59-18.75c-8.14-36.96-20.45-92.82-86.46-78.76c-26.6,5.66-51.75,27.42-74.74,64.68
	c-20.41,33.07-32.66,67.9-36.98,81.34c-5.36,16.67-8.23,44.81-11.27,74.6c-3.61,35.4-7.34,72-15.54,95.22
	c-8.4,23.79-19.43,45.42-29.16,64.51c-7.96,15.62-15.48,30.37-20.29,43.81c-4.14,11.58-8.71,29.13-6.98,46.95
	c1.66,17.07,8.66,30.36,20.8,39.52c7.29,5.49,21.48,8.28,40.13,8.28c14.18,0,30.95-1.62,49.21-4.89
	C429.73,561.18,474.71,544.64,507.6,523.97z M297.87,561.95c-10.98-8.27-17.31-20.39-18.84-36.01c-1.3-13.37,1.02-28.86,6.71-44.78
	c4.7-13.14,12.15-27.75,20.03-43.22c9.8-19.23,20.91-41.02,29.42-65.12c8.39-23.77,12.15-60.68,15.79-96.37
	c3.01-29.53,5.85-57.41,11.05-73.58c3.33-10.35,15.79-46.72,36.47-80.24c22.24-36.05,46.31-57.05,71.52-62.42h0
	c61.16-13.01,72.36,37.83,80.54,74.95c1.55,7.05,3.02,13.71,4.69,19.14c3.61,11.73,12.02,25.67,21.76,41.8
	c18.23,30.2,40.91,67.79,43.61,110.41c2.05,32.35-8.76,73.99-29.66,114.25c-22.32,42.99-52.87,78.15-86.03,98.99
	C432.4,565.33,321.25,579.55,297.87,561.95z"/>
<path style="opacity:0.5;fill:#D9D9DA;enable-background:new    ;" d="M857.92,770.41c12.74-26.63,22.51-53.09,31.96-78.69
	c19.33-52.33,37.58-101.76,79.26-153.42c28.75-35.62,46.75-68.99,55.02-102.01c8.25-32.92,6.84-65.49-4.3-99.58
	c-14.26-43.63-42.38-76.16-66.86-77.34c-11.76-0.56-21.44,6.4-27.22,19.63c-7.37,16.84,2.17,51.7,11.39,85.41
	c7.05,25.77,14.34,52.43,12.69,67.32c-3.39,30.51-18,39.01-149.94,107.08l-19.96,10.3C734.8,572.45,665.9,627.17,594.19,755.4
	c-28.57,51.08-50.71,102.15-65.64,144.6h5.19c17.75-49.58,42.8-102.78,64.82-142.16c71.1-127.14,139.14-181.26,183.7-204.27
	l19.96-10.3c128.99-66.55,148.82-76.78,152.62-110.97c1.76-15.84-5.33-41.75-12.83-69.19c-8.99-32.88-18.29-66.87-11.63-82.09
	c4.97-11.36,12.7-17.12,22.4-16.64c19.28,0.93,46.89,26.61,62.35,73.9c10.84,33.16,12.22,64.83,4.2,96.81
	c-8.09,32.3-25.78,65.04-54.06,100.09c-18.95,23.48-34.89,48.91-48.74,77.74c-12.35,25.71-22,51.82-31.32,77.08
	c-9.41,25.48-19.15,51.84-31.78,78.26c-22.85,47.77-57.15,89.93-101.06,131.75h7.22C802.08,858.97,835.44,817.42,857.92,770.41z"/>
</svg>
