<svg enable-background="new 0 0 36 54" height="54" viewBox="0 0 36 54" width="36" xmlns="http://www.w3.org/2000/svg"><path d="m32.0029 24h-28.0058c-2.2075 0-3.9971 1.7896-3.9971 3.9971v18.0058c0 2.2075 1.7896 3.9971 3.9971 3.9971h28.0059c2.2074 0 3.997-1.7896 3.997-3.9971v-18.0058c0-2.2075-1.7896-3.9971-3.9971-3.9971zm-24.7175 3.4506c.2732-.3208.6813-.533 1.0537-.533.0237.4158-.0986.7938-.3718 1.0908-.2378.3208-.6694.6052-1.0535.5579-.0833-.4161.1577-.8505.3716-1.1157zm2.0454 5.7022c-.2891.4393-.6288.9297-1.1157.9297-.4634 0-.6431-.3099-1.1776-.3099-.5741 0-.7383.3099-1.1776.3099-.4872 0-.8108-.4921-1.1157-.9277-.3961-.5702-.7318-1.4979-.7437-2.3572-.0081-.4554.0879-.8596.3098-1.2396.313-.5308.8777-.9178 1.4875-.9297.4673-.0159.8926.3099 1.1777.3099.2732 0 .7852-.3099 1.3635-.3099.2494 0 .8912.1101 1.303.7438-.0315.0198-.8071.4205-.8071 1.3512.0356 1.0613.9758 1.4379.9917 1.4379-.0158.0197-.1317.4806-.4958.9916z" fill="#f5f5f7"/><path d="m0 0h36v54h-36z" fill="none"/></svg>