<svg enable-background="new 0 0 51 54" height="54" viewBox="0 0 51 54" width="51" xmlns="http://www.w3.org/2000/svg"><path d="m0 0h51v54h-51z" fill="none"/><path d="m23.2057 29.2241c3.0443 0 5.1497 2.086 5.1497 5.1393s-2.1588 5.161-5.2259 5.161h-3.3612v5.3453h-2.4285v-15.6456zm-3.4374 8.2619h2.7865c2.1144 0 3.3177-1.1383 3.3177-3.1117 0-1.9732-1.2034-3.1009-3.3069-3.1009h-2.7974v6.2126zm9.2216 4.1419c0-1.9952 1.5288-3.2203 4.2396-3.3721l3.1224-.1842v-.8782c0-1.2686-.8566-2.0276-2.2875-2.0276-1.3556 0-2.2014.6504-2.4071 1.6697h-2.2118c.1301-2.0602 1.8864-3.5781 4.7055-3.5781 2.7648 0 4.532 1.4637 4.532 3.7515v7.8608h-2.2444v-1.8757h-.054c-.6613 1.2686-2.1035 2.0709-3.5996 2.0709-2.2337 0-3.7951-1.3879-3.7951-3.437zm11.812 7.4379v-1.8975c.1732.0433.5634.0433.7587.0433 1.2276-.0195 1.8158-.5136 2.2336-2.331l-4.12-11.4171h2.5368l2.8844 9.2812h.0431l2.8844-9.2812h2.472l-4.2722 12.0025c-.9754 2.765-2.1031 3.654-4.4667 3.654-.1954 0-.7809-.0217-.9541-.0542zm-4.45-8.4679v-.8999l-2.8083.1734c-1.3987.0977-2.1901.7157-2.1901 1.6915 0 .9974.824 1.648 2.0817 1.648 1.6372 0 2.9167-1.1277 2.9167-2.613zm-25.5905-8.4562c-1.3959-.1033-2.5802.7797-3.2409.7797-.6703 0-1.7039-.7574-2.7998-.7367-1.439.0211-2.7652.8373-3.5072 2.1257-1.4946 2.5942-.3815 6.4384 1.0743 8.5435.7121 1.0286 1.5614 2.1878 2.677 2.1456 1.0738-.0423 1.48-.6945 2.778-.6945 1.2972 0 1.6631.6945 2.7986.6737 1.1558-.0215 1.8881-1.05 2.595-2.0843.818-1.1939 1.1541-2.35 1.1741-2.4111-.0256-.0097-2.253-.8643-2.2752-3.4305-.0201-2.1455 1.7512-3.1768 1.8317-3.2264-1.0054-1.4808-2.5585-1.6441-3.1056-1.6847zm-.8613-1.3896c.5928-.7165.9917-1.7143.8819-2.7069-.8533.0339-1.8852.5684-2.4972 1.2844-.5481.6343-1.0294 1.6502-.8987 2.6224.951.0736 1.9217-.483 2.514-1.1999z" fill="#1d1d1f"/></svg>