<svg height="56" viewBox="0 0 36 56" width="36" xmlns="http://www.w3.org/2000/svg"><g fill="none" fill-rule="evenodd"><path d="m0 0h36v56h-36z"/><path d="m28 12c3.3083 0 6 2.6916 6 6v20c0 3.3084-2.6917 6-6 6h-20c-3.3083 0-6-2.6916-6-6v-20c0-3.3084 2.6917-6 6-6zm0-2h-20c-4.4182 0-8 3.5817-8 8v20c0 4.4183 3.5818 8 8 8h20c4.4182 0 8-3.5817 8-8v-20c0-4.4183-3.5818-8-8-8zm-16.5215 28.4358c.4619 0 .9795-.1348 1.5527-.4053.5732-.27 1.0645-.6919 1.4736-1.2656.4082-.5732.6123-1.335.6123-2.2842v-9.2148c0-.2241.0303-.3726.0898-.4453.0586-.0723.1943-.1284.4053-.168l7.8311-1.6216c.4219-.0923.6328.0396.6328.3955l.0586 6.1899c0 .4746-.2236.7578-.6719.8501l-1.4628.3365c-1.9912.4346-2.9863 1.3906-2.9863 2.8672 0 .7646.2695 1.3911.8105 1.8789.54.4878 1.2324.7314 2.0762.7314.4746 0 .9922-.125 1.5527-.376.5605-.25 1.041-.6587 1.4434-1.2256s.6035-1.3315.6035-2.2939v-13.7046c0-.4878-.1221-.814-.3662-.979-.2441-.1646-.6426-.1812-1.1963-.0493l-9.2744 1.8984c-.6855.1582-1.0283.5273-1.0283 1.1074l.0391 11.0942c0 .4482-.1914.7119-.5732.791l-1.542.3164c-1.9521.3955-2.9277 1.3838-2.9277 2.9658 0 .752.2676 1.3745.8018 1.8691.533.4943 1.2156.7414 2.0457.7414z" fill="#6e6e73" fill-rule="nonzero"/></g></svg>