<svg enable-background="new 0 0 27.9981 54" height="54" viewBox="0 0 27.9981 54" width="27.9981" xmlns="http://www.w3.org/2000/svg"><path d="m28 43.8477v3.6586c0 .8214-.06 1.4484-.5527 1.9415-.4774.4779-1.0453.5522-1.941.5522h-3.659c-.7013 0-1.0453-.1344-1.598-.687l-19.5623-19.5627c-.5374-.5227-.687-.8662-.687-1.598v-3.6586c0-.8214.06-1.4484.5527-1.9415.4783-.4779 1.0453-.5522 1.9419-.5522h3.6733c.7013 0 1.0453.1344 1.598.687l19.5471 19.5627c.5374.5227.687.8662.687 1.598zm-15.5899 5.7187c.1191.0448.1791.1344.1791.2239 0 .1196-.1048.2092-.2687.2092h-9.826c-.8966 0-1.4636-.0743-1.9419-.5522-.4926-.4931-.5526-1.1201-.5526-1.9415v-9.826c0-.1644.1048-.2539.2096-.2539.1039 0 .1791.0448.2382.1644 2.8825 5.6596 6.3176 9.0794 11.9623 11.9761zm3.1655-27.1333c-.1191-.0448-.1639-.1344-.1639-.2239 0-.1196.0896-.2092.2535-.2092h9.826c.8966 0 1.4636.0743 1.9419.5522.4926.4931.5517 1.1201.5517 1.9415v9.826c0 .1644-.0896.2539-.2087.2539-.0896 0-.1639-.0448-.2239-.1644-2.8968-5.6596-6.3166-9.0794-11.9766-11.9761z" fill="#f5f5f7"/><path d="m0 0h28v54h-28z" fill="none"/></svg>