<svg viewBox="0 0 2028 1056" xmlns="http://www.w3.org/2000/svg"><path d="m213.96 947.03c0 19.99.02 39.99 0 59.98-.03 27.09-18.82 46.01-45.77 46.03-40.15.03-80.3.03-120.45 0-26.76-.02-45.72-18.83-45.77-45.52-.06-40.49-.06-80.97 0-121.46.04-25.96 19.18-44.99 45.26-45.02 40.32-.05 80.63-.05 120.95 0 27 .03 45.75 18.92 45.78 46.01.02 19.99 0 39.99 0 59.98z"/><path d="m1897.04 503.51c0 19.33.03 38.66 0 57.98-.05 27.67-19.91 47.48-47.65 47.51-38.99.03-77.98.04-116.96 0-27.38-.03-47.34-19.93-47.38-47.27-.05-39.16-.05-78.31 0-117.47.04-27.33 19.99-47.23 47.39-47.26 39.15-.04 78.31-.05 117.46 0 27.07.04 47.05 19.99 47.13 47.02.06 19.83.01 39.66.01 59.48z"/><path d="m1587.02 988.32c0 11 .07 22-.02 32.99-.12 15.59-11.23 26.66-26.9 26.71-21.99.07-43.99.07-65.98 0-15.97-.05-27.05-11.1-27.09-27.02-.06-22-.06-43.99 0-65.99.04-15.9 11.16-26.93 27.15-26.97 21.99-.05 43.99-.07 65.98 0 15.63.05 26.71 11.17 26.85 26.77v.5 32.99z"/></svg>