<svg viewBox="0 0 872 1292" xmlns="http://www.w3.org/2000/svg"><path d="m424.29 280c21.32 0 42.64-.04 63.96.01 25.71.06 43.72 18.05 43.73 43.69.03 42.81.03 85.62 0 128.43-.02 25.94-18.01 43.85-44.07 43.86-42.64.02-85.29.02-127.93 0-26-.01-43.96-17.93-43.98-43.94-.04-42.81-.04-85.62 0-128.43.02-25.6 18.11-43.58 43.82-43.61 21.49-.03 42.98 0 64.46 0z"/><path d="m309 1148.84c0-21.49-.03-42.98 0-64.46.05-25.27 18.19-43.34 43.57-43.36 42.81-.04 85.62-.04 128.43 0 26.05.02 43.97 17.94 43.98 43.94.02 42.81.03 85.62 0 128.43-.02 25.6-18.11 43.59-43.81 43.61-42.81.02-85.62.03-128.43 0-25.66-.02-43.67-18.01-43.73-43.69-.05-21.49-.01-42.98-.01-64.46z"/></svg>