<svg viewBox="0 0 1454 964" xmlns="http://www.w3.org/2000/svg"><path d="m1238.78 139c-10.99 0-21.99.06-32.98-.01-20.03-.13-34.69-14.7-34.78-34.72-.1-22.15-.1-44.31 0-66.46.08-20.02 14.77-34.72 34.71-34.79 22.15-.07 44.31-.07 66.46 0 19.99.06 34.69 14.71 34.78 34.72.1 22.15.09 44.31 0 66.46-.08 20.04-14.71 34.65-34.71 34.79-11.16.07-22.32.01-33.48.01z"/><path d="m381 174.22c0 10.99.06 21.99-.01 32.98-.14 20.04-14.72 34.69-34.73 34.77-22.15.09-44.31.09-66.46 0-20.03-.08-34.68-14.7-34.77-34.72-.1-22.15-.1-44.31 0-66.46.08-20.02 14.78-34.72 34.71-34.78 22.15-.07 44.31-.07 66.46 0 19.98.06 34.64 14.72 34.78 34.72.08 11.16.01 22.32.01 33.48z"/><path d="m539.88 368c-11.16 0-22.32.08-33.48-.02-19.44-.17-34.23-14.76-34.36-34.11-.15-22.65-.16-45.31 0-67.96.14-19.05 15-33.77 34.09-33.87 22.49-.12 44.97-.1 67.46 0 19.39.08 34.24 14.78 34.36 34.11.15 22.65.16 45.31 0 67.96-.14 19.06-14.95 33.68-34.09 33.87-11.33.12-22.65.02-33.98.02z"/><path d="m1144 634.12c0 10.99.06 21.99-.01 32.98-.13 20.08-14.67 34.78-34.63 34.87-22.32.1-44.64.11-66.96 0-19.43-.1-34.23-14.76-34.35-34.11-.15-22.65-.16-45.31 0-67.96.14-19.05 15.01-33.77 34.09-33.87 22.49-.12 44.97-.1 67.46 0 19.38.08 34.16 14.78 34.37 34.12.12 11.33.02 22.65.03 33.98z"/><path d="m313.97 822c-11.16 0-22.32.07-33.48-.02-19.68-.16-34.36-14.81-34.46-34.53-.11-22.32-.12-44.64 0-66.96.1-19.7 14.85-34.39 34.51-34.47 22.32-.09 44.64-.09 66.96 0 19.65.08 34.37 14.8 34.46 34.53.11 22.32.11 44.64 0 66.96-.1 19.7-14.81 34.32-34.52 34.47-11.16.09-22.32.02-33.48.02z"/></svg>