<svg viewBox="0 0 872 1292" xmlns="http://www.w3.org/2000/svg"><path d="m829 85.99c0 11.83.08 23.65-.02 35.48-.16 19.72-14.79 34.41-34.49 34.5-23.65.11-47.31.11-70.96 0-19.7-.09-34.4-14.78-34.5-34.48-.12-23.65-.11-47.31 0-70.96.09-19.71 14.83-34.44 34.47-34.51 23.65-.09 47.31-.09 70.96 0 19.67.07 34.35 14.78 34.51 34.49.1 11.83.02 23.65.02 35.48z"/><path d="m504.99 221c-11.83 0-23.65.07-35.48-.02-19.69-.15-34.39-14.79-34.48-34.5-.11-23.65-.11-47.31 0-70.96.1-19.71 14.84-34.42 34.49-34.49 23.65-.09 47.31-.09 70.96 0 19.66.07 34.39 14.79 34.49 34.5.11 23.65.11 47.31 0 70.96-.09 19.71-14.8 34.34-34.5 34.49-11.83.09-23.65.02-35.48.02z"/><path d="m145 397c11.83 0 23.65-.06 35.48.01 19.66.13 34.39 14.8 34.49 34.51.11 23.65.11 47.31 0 70.96-.09 19.71-14.8 34.4-34.5 34.48-23.65.11-47.31.11-70.96 0-19.69-.09-34.39-14.79-34.48-34.5-.11-23.65-.11-47.31 0-70.96.1-19.71 14.84-34.38 34.49-34.5 11.83-.07 23.65-.01 35.48-.01z"/><path d="m469 817c11.83 0 23.65-.06 35.48.01 19.66.12 34.4 14.79 34.49 34.51.11 23.65.11 47.31 0 70.96-.09 19.71-14.79 34.4-34.49 34.49-23.65.11-47.31.11-70.96 0-19.69-.09-34.39-14.78-34.49-34.49-.11-23.65-.11-47.31 0-70.96.1-19.71 14.84-34.38 34.49-34.51 11.83-.08 23.65-.01 35.48-.01z"/><path d="m156 1290c-11.83 0-23.65.07-35.48-.02-19.69-.15-34.4-14.79-34.49-34.49-.12-23.65-.11-47.31 0-70.96.1-19.71 14.83-34.43 34.48-34.51 23.65-.09 47.31-.09 70.96 0 19.67.07 34.4 14.78 34.5 34.49.11 23.65.11 47.31 0 70.96-.09 19.71-14.79 34.35-34.49 34.5-11.83.09-23.65.02-35.48.02z"/></svg>