<svg viewBox="0 0 872 1292" xmlns="http://www.w3.org/2000/svg"><path d="m137.02 1007c-24.66 0-49.32.02-73.97 0-21.67-.02-36.02-14.34-36.04-35.99-.03-49.32-.03-98.63 0-147.95.01-21.67 14.37-36.04 35.99-36.04 49.32-.02 98.63-.02 147.95 0 21.65 0 36.03 14.34 36.04 36 .03 49.32.03 98.63 0 147.95-.01 21.68-14.34 36.01-35.99 36.04-24.66.03-49.32 0-73.97 0z"/><path d="m140.09 2c21 0 42-.04 63 0 27.62.06 46.88 19.31 46.9 46.84.03 42.16.03 84.33 0 126.49-.02 27.23-19.39 46.63-46.59 46.65-42.33.03-84.66.04-126.99 0-26.89-.02-46.34-19.4-46.39-46.34-.07-42.66-.08-85.33 0-127.99.05-25.92 19.68-45.54 45.58-45.64 21.5-.09 43-.02 64.49-.02z"/><path d="m868 467.24c0 21 .02 42 0 63-.04 27.27-19.36 46.73-46.49 46.75-42.33.04-84.66.03-126.99 0-26.95-.02-46.44-19.35-46.49-46.23-.08-42.66-.08-85.33 0-127.99.05-26.17 19.7-45.71 45.97-45.75 42.5-.06 84.99-.07 127.49 0 27.22.05 46.47 19.45 46.51 46.73.03 21.16 0 42.33 0 63.5z"/><path d="m739.11 824c21 0 42-.04 63 0 27.61.06 46.87 19.31 46.89 46.85.03 42.16.03 84.33 0 126.49-.02 27.23-19.4 46.61-46.6 46.63-42.33.03-84.66.04-126.99 0-26.89-.02-46.33-19.41-46.37-46.35-.07-42.66-.08-85.33 0-127.99.05-25.91 19.69-45.53 45.59-45.63 21.5-.08 43-.02 64.49-.02z"/></svg>