<svg id="Layer_1" data-name="Layer 1" xmlns="http://www.w3.org/2000/svg" viewBox="0 0 2028 1056"><path d="m1290.97,888.5c0,9.49.05,18.98-.01,28.47-.09,12.58-8.44,20.96-21.03,21-19.31.06-38.63.06-57.94,0-12.57-.04-20.95-8.44-21-21.02-.07-19.32-.07-38.63,0-57.95.05-12.57,8.44-20.95,21.02-21,19.31-.07,38.63-.07,57.94,0,12.58.05,20.92,8.43,21,21.02.07,9.82.01,19.65.01,29.47Z"/><path d="m195.92,387.92c0,9.67.06,19.33-.02,29-.08,10.31-6.62,16.94-16.86,16.98-19.5.07-39,.08-58.49,0-9.93-.05-16.56-6.74-16.6-16.72-.08-19.5-.08-39,0-58.5.04-9.98,6.67-16.68,16.6-16.73,19.66-.1,39.33-.11,58.99,0,9.64.06,16.24,6.78,16.35,16.46.11,9.83.02,19.67.03,29.5Z"/><path d="m1866.99,222.02c0,8.16.04,16.32,0,24.48-.07,12.98-8.29,21.35-21.14,21.39-16.65.06-33.3.07-49.95,0-12.32-.05-20.81-8.41-20.88-20.63-.1-16.98-.11-33.97,0-50.95.08-11.92,8.6-20.32,20.61-20.38,16.98-.1,33.96-.11,50.94,0,11.93.08,20.26,8.59,20.39,20.61.09,8.49.02,16.98.02,25.47Z"/><path d="m1257.83,272.9c-8.32,0-16.65.05-24.97-.01-12.31-.1-20.8-8.43-20.87-20.65-.1-16.98-.11-33.97,0-50.95.08-11.71,8.5-20.26,20.13-20.35,17.15-.14,34.3-.12,51.44,0,11.71.08,20.26,8.51,20.35,20.13.14,17.15.13,34.3,0,51.45-.08,11.92-8.61,20.26-20.63,20.38-8.49.08-16.98.02-25.47.02Z"/><path d="m612.69,709.96c-8.32,0-16.65.06-24.97-.01-12.27-.11-20.69-8.48-20.76-20.76-.09-16.82-.09-33.63,0-50.45.06-12.27,8.48-20.69,20.75-20.76,16.81-.09,33.63-.09,50.44,0,12.28.06,20.69,8.48,20.76,20.76.09,16.82.09,33.63,0,50.45-.06,12.28-8.48,20.66-20.75,20.76-8.49.08-16.98.01-25.47.01Z"/><path d="m787.94,879.99c8.49,0,16.98-.08,25.47.02,11.97.14,20.43,8.54,20.5,20.5.11,16.98.1,33.97,0,50.95-.07,11.97-8.54,20.43-20.49,20.51-16.98.1-33.96.1-50.94,0-11.95-.07-20.43-8.54-20.5-20.49-.11-16.98-.1-33.97,0-50.95.07-11.96,8.53-20.37,20.49-20.51,8.49-.1,16.98-.02,25.47-.02Z"/></svg>