<svg viewBox="0 0 1454 964" xmlns="http://www.w3.org/2000/svg"><path d="m774 716.32c0 12.83.05 25.65-.01 38.48-.1 20.64-14.63 35.15-35.32 35.19-25.82.06-51.64.06-77.46 0-20.63-.05-35.14-14.61-35.19-35.32-.06-25.82-.07-51.64 0-77.46.06-20.63 14.67-35.16 35.31-35.2 25.82-.04 51.64-.05 77.46 0 20.59.04 35.11 14.63 35.2 35.32.05 12.99.01 25.99 0 38.98z"/><path d="m132.99 73.43c0 9.83.1 19.66-.02 29.48-.22 19.13-14.86 33.9-33.92 34.05-19.99.16-39.97.15-59.96 0-19.12-.14-33.89-14.83-34.05-33.91-.16-19.99-.16-39.97 0-59.96.15-19.32 15-33.98 34.4-34.07 19.65-.09 39.31-.09 58.96 0 19.69.08 34.39 14.75 34.57 34.43.09 9.99.02 19.99.01 29.98z"/><path d="m655.01 128.5c0-9.83-.1-19.66.02-29.48.24-19.09 14.95-33.86 33.99-33.99 19.99-.13 39.97-.13 59.96 0 19.03.12 33.83 14.9 33.98 33.99.16 19.99.15 39.97 0 59.96-.15 19.1-14.89 33.83-33.98 33.98-19.99.15-39.97.15-59.96 0-19.09-.14-33.75-14.88-33.98-33.98-.13-10.16-.02-20.32-.02-30.48z"/><path d="m1077.99 207.48c0 9.83.1 19.66-.02 29.48-.23 19.11-14.89 33.85-33.97 34-19.99.15-39.97.15-59.96 0-19.09-.14-33.84-14.87-33.99-33.96-.16-19.99-.16-39.97 0-59.96.15-19.1 14.93-33.88 33.96-34.01 19.99-.13 39.97-.13 59.96 0 19.04.12 33.77 14.89 34.01 33.97.13 10.16.02 20.32.02 30.48z"/><path d="m303.02 423c9.99 0 19.99-.09 29.98.02 19.02.2 33.81 14.92 33.96 34.02.15 19.99.16 39.97 0 59.96-.15 19.09-14.9 33.82-34 33.96-19.99.15-39.97.15-59.96 0-19.08-.15-33.81-14.89-33.96-34-.16-19.99-.16-39.98 0-59.96.15-19.09 14.95-33.79 33.99-33.98 9.99-.1 19.99-.02 29.98-.02z"/><path d="m67.02 671c-9.83 0-19.65.07-29.48-.01-19.7-.16-34.39-14.78-34.51-34.48-.12-19.65-.11-39.31 0-58.96.11-19.71 14.83-34.43 34.47-34.52 19.65-.09 39.31-.09 58.96 0 19.67.09 34.39 14.78 34.51 34.48.11 19.65.11 39.31 0 58.96-.11 19.72-14.78 34.35-34.47 34.52-9.83.08-19.65.01-29.48.01z"/><path d="m1121.99 893.83c0 9.99.09 19.99-.02 29.98-.21 19.36-14.91 34.04-34.32 34.16-19.82.12-39.64.13-59.46 0-19.35-.13-34.03-14.88-34.15-34.31-.13-19.82-.14-39.64 0-59.46.14-19.36 14.94-34.07 34.31-34.17 19.65-.1 39.31-.08 58.96 0 19.93.08 34.53 14.78 34.68 34.83.07 9.66.01 19.32 0 28.98z"/><path d="m1276.3 673.99c-5.5 0-11 .11-16.49-.02-11.62-.28-20.56-9.07-20.76-20.67-.19-11.49-.18-22.99 0-34.49.18-11.63 9.05-20.56 20.65-20.76 11.49-.19 22.99-.18 34.49 0 11.63.18 20.56 9.05 20.75 20.65.19 11.49.18 22.99 0 34.49-.18 11.63-9.06 20.48-20.65 20.77-5.99.15-12 .03-17.99.03z"/></svg>