<svg viewBox="0 0 2028 1056" xmlns="http://www.w3.org/2000/svg"><path d="m1433.5 604c14.66 0 29.32-.04 43.98 0 26.67.1 45.49 19.01 45.52 45.76.03 29.48.03 58.97 0 88.45-.03 26.96-18.93 45.75-46.01 45.77-29.32.02-58.64.02-87.95 0-27.09-.02-45.97-18.76-46.01-45.77-.05-29.65-.05-59.3 0-88.95.04-26.28 19.1-45.21 45.51-45.27 14.99-.03 29.98 0 44.98 0z"/><path d="m1102 72.12c0 10.99.06 21.99-.01 32.98-.13 20.08-14.67 34.78-34.63 34.87-22.32.1-44.64.11-66.96 0-19.43-.1-34.23-14.76-34.35-34.11-.15-22.65-.16-45.31 0-67.96.14-19.05 15.01-33.77 34.09-33.87 22.49-.12 44.97-.1 67.46 0 19.38.08 34.16 14.78 34.37 34.12.12 11.33.02 22.65.03 33.98z"/><path d="m200.77 218c-10.99 0-21.99.06-32.98-.01-20.02-.13-34.68-14.71-34.77-34.73-.1-22.15-.1-44.31 0-66.46.09-20.01 14.78-34.71 34.72-34.78 22.15-.07 44.31-.07 66.46 0 19.98.06 34.68 14.72 34.77 34.73.1 22.15.09 44.31 0 66.46-.08 20.04-14.72 34.64-34.72 34.78-11.16.07-22.32.01-33.48.01z"/><path d="m1494.88 414c-11.16 0-22.32.08-33.48-.02-19.44-.17-34.23-14.76-34.36-34.11-.15-22.65-.16-45.31 0-67.96.14-19.05 15-33.77 34.09-33.87 22.49-.12 44.97-.1 67.46 0 19.39.08 34.24 14.78 34.36 34.11.15 22.65.16 45.31 0 67.96-.14 19.06-14.95 33.68-34.09 33.87-11.33.12-22.65.02-33.98.02z"/><path d="m530 427.89c0 10.99.05 21.99-.01 32.98-.11 20.4-14.61 35.04-34.9 35.11-22.15.08-44.31.09-66.46 0-19.74-.09-34.49-14.72-34.6-34.38-.12-22.49-.14-44.97 0-67.46.13-19.34 14.97-34.03 34.36-34.11 22.32-.1 44.64-.08 66.96 0 19.71.07 34.43 14.72 34.61 34.39.1 11.16.02 22.32.02 33.48z"/><path d="m310 641.89c0 10.99.05 21.99-.01 32.98-.11 20.4-14.6 35.04-34.89 35.11-22.15.08-44.31.09-66.46 0-19.74-.09-34.49-14.72-34.6-34.38-.12-22.49-.14-44.97 0-67.46.13-19.34 14.97-34.03 34.36-34.11 22.49-.1 44.97-.11 67.46 0 19.08.1 33.87 14.83 34.1 33.88.14 11.32.03 22.65.03 33.98z"/><path d="m1766.99 755.17c0 6.66.08 13.32-.02 19.98-.24 16.73-13.14 29.64-29.92 29.82-13.49.14-26.98.16-40.46 0-16.44-.2-29.37-13.18-29.56-29.64-.16-13.49-.14-26.98 0-40.46.17-16.72 13.14-29.65 29.9-29.82 13.32-.14 26.64-.13 39.96 0 17.04.16 29.89 13.1 30.09 30.16.08 6.66.01 13.32.01 19.98z"/></svg>