<svg viewBox="0 0 1454 964" xmlns="http://www.w3.org/2000/svg"><path d="m194.99 351.11c0 7.49.07 14.99-.01 22.48-.17 15.57-11.66 27.24-27.1 27.38-15.32.13-30.64.14-45.96 0-15.14-.14-26.76-11.86-26.88-27.09-.12-15.32-.14-30.64 0-45.96.14-15.14 11.88-26.76 27.09-26.88 15.15-.12 30.31-.1 45.46 0 15.73.1 27.25 11.75 27.4 27.6.07 7.49.01 14.99.01 22.48z"/><path d="m1338.44 200.01c6.49 0 12.98-.11 19.47.02 10.34.21 17.94 7.72 18.05 18.06.15 13.31.16 26.63 0 39.94-.13 10.3-7.78 17.83-18.17 17.93-13.14.13-26.29.12-39.44 0-10.63-.1-18.21-7.67-18.31-18.31-.12-13.15-.13-26.29 0-39.44.11-10.58 7.75-18.04 18.43-18.2 6.65-.1 13.31-.02 19.97-.02z"/><path d="m809.83 329.99c-6.49 0-12.98.08-19.47-.02-10.64-.17-18.22-7.67-18.32-18.3-.12-13.15-.13-26.29 0-39.44.11-10.59 7.74-18.11 18.42-18.2 12.98-.11 25.96-.11 38.94 0 10.95.09 18.49 7.62 18.58 18.55.1 12.98.11 25.96 0 38.94-.09 10.88-7.7 18.33-18.67 18.46-6.49.07-12.98.01-19.47.01z"/><path d="m507.99 655.12c0 6.49.08 12.98-.02 19.47-.16 10.66-7.65 18.27-18.25 18.38-13.14.13-26.29.13-39.44 0-10.61-.1-18.16-7.71-18.25-18.36-.12-13.15-.13-26.29 0-39.44.11-10.37 7.66-17.99 17.98-18.12 13.31-.16 26.63-.16 39.94 0 10.33.12 17.81 7.74 18.01 18.1.12 6.65.02 13.31.03 19.97z"/><path d="m907.35 732.01c6.49 0 12.98-.1 19.47.02 10.37.2 18.01 7.67 18.13 17.98.16 13.31.15 26.63 0 39.94-.12 10.33-7.73 17.9-18.09 18.01-13.31.14-26.63.16-39.94 0-10.09-.12-17.73-7.67-17.87-17.71-.19-13.48-.18-26.96 0-40.44.14-10.05 7.75-17.53 17.83-17.77 6.82-.16 13.64-.03 20.47-.03z"/><path d="m576.99 838.6c0 6.66.08 13.31-.02 19.97-.16 10.66-7.64 18.29-18.23 18.39-13.14.13-26.29.13-39.44 0-10.62-.1-18.17-7.7-18.27-18.34-.12-13.15-.13-26.29 0-39.44.11-10.37 7.65-18.01 17.97-18.13 13.31-.16 26.63-.16 39.94 0 10.33.12 17.82 7.73 18.02 18.09.12 6.49.02 12.98.03 19.47z"/></svg>