<svg viewBox="0 0 1454 964" xmlns="http://www.w3.org/2000/svg"><path d="m1189.88 478c-17.49 0-34.98.04-52.48-.01-20.72-.06-35.34-14.52-35.39-35.12-.07-34.98-.08-69.97 0-104.95.05-20.29 14.76-34.87 35.11-34.9 35.32-.05 70.63-.06 105.95 0 20.03.03 34.82 14.66 34.88 34.62.1 35.32.11 70.63 0 105.95-.06 19.67-14.85 34.28-34.6 34.38-17.82.1-35.65.02-53.48.02z"/><path d="m91.48 960c-17.33 0-34.65.04-51.98 0-20.97-.06-35.46-14.52-35.49-35.52-.05-34.65-.05-69.3 0-103.95.03-20.98 14.57-35.48 35.52-35.5 34.98-.03 69.97-.03 104.95 0 20.95.02 35.47 14.53 35.5 35.53.05 34.65.05 69.3 0 103.95-.03 21-14.52 35.44-35.52 35.5-17.66.04-35.32 0-52.98 0z"/></svg>