<svg viewBox="0 0 2028 1056" xmlns="http://www.w3.org/2000/svg"><path d="m652.94 190.24c0 16.17.04 32.33 0 48.5-.07 22.68-16.41 39.1-39.1 39.15-32.66.07-65.32.06-97.98 0-22.35-.04-38.83-16.45-38.89-38.84-.09-32.83-.08-65.66 0-98.49.05-22.04 16.51-38.56 38.59-38.64 32.83-.12 65.66-.1 98.48 0 22.41.06 38.82 16.51 38.9 38.84.06 16.5.01 33 .01 49.5z"/><path d="m972.95 281.16c0 15 .05 30-.01 45-.1 22.09-16.46 38.65-38.5 38.73-30.49.12-60.99.12-91.48 0-21.15-.09-37.83-16.59-37.96-37.73-.19-30.83-.16-61.66-.01-92.49.1-20.86 16.59-37.55 37.47-37.7 30.99-.22 61.99-.22 92.98 0 20.87.15 37.2 16.84 37.51 37.69v1z"/><path d="m1704.98 81.38c0 13 .06 26-.01 39-.13 21.77-16.52 38.36-38.24 38.48-26.66.14-53.32.15-79.98 0-20.86-.12-37.53-16.62-37.7-37.47-.22-27-.19-53.99-.02-80.99.14-20.58 16.61-37.24 37.21-37.44 27.16-.26 54.32-.26 81.48 0 20.6.2 36.98 16.86 37.23 37.43.16 13.66.03 27.33.04 40.99z"/><path d="m968.65 846.98c-12.99 0-25.99.07-38.98-.02-19.99-.12-34.63-14.76-34.7-34.8-.09-26.16-.1-52.31 0-78.47.08-20 14.8-34.66 34.79-34.71 26.15-.07 52.31-.07 78.46 0 19.95.06 34.63 14.77 34.7 34.81.09 26.16.1 52.31 0 78.47-.08 20.01-14.76 34.59-34.8 34.71-13.16.08-26.32.01-39.48.01z"/><path d="m469.92 949.99c-12.99 0-25.99.05-38.98-.01-20.33-.1-34.93-14.66-34.99-35.02-.08-25.99-.08-51.98 0-77.97.06-20.34 14.71-34.96 35.01-35 25.99-.06 51.97-.06 77.96 0 20.29.05 34.93 14.67 34.99 35.02.08 25.99.08 51.98 0 77.97-.06 20.35-14.67 34.9-35.01 35-12.99.06-25.99.01-38.98.01z"/></svg>