<?xml version="1.0" encoding="UTF-8"?>
<svg width="19px" height="22px" viewBox="0 0 19 22" version="1.1" xmlns="http://www.w3.org/2000/svg" xmlns:xlink="http://www.w3.org/1999/xlink">
    <!-- Generator: Sketch 54.1 (76490) - https://sketchapp.com -->
    <title>Newsroom-ARkit-Glyph</title>
    <desc>Created with Sketch.</desc>
    <g id="Newsroom-ARkit-Glyph" stroke="none" stroke-width="1" fill="none" fill-rule="evenodd">
        <g id="ARKit-Control-Label-Icon">
            <path d="M0.453978723,16.22656 C0.31087234,16.22656 0.195255319,16.11176 0.195255319,15.97016 L0.195255319,5.61896 C0.195255319,5.47736 0.31087234,5.36256 0.453978723,5.36256 C0.597085106,5.36256 0.713106383,5.47736 0.713106383,5.61896 L0.713106383,15.97016 C0.713106383,16.11176 0.597085106,16.22656 0.453978723,16.22656" id="Fill-49" fill="#CCCCCC"></path>
            <path d="M18.5460213,16.22656 C18.4029149,16.22656 18.2868936,16.11176 18.2868936,15.97016 L18.2860851,5.61896 C18.2860851,5.47736 18.4021064,5.36256 18.5452128,5.36256 C18.6883191,5.36256 18.8039362,5.47736 18.8039362,5.61896 L18.8047447,15.97016 C18.8047447,16.11176 18.6891277,16.22656 18.5460213,16.22656" id="Fill-51" fill="#CCCCCC"></path>
            <path d="M9.5055383,21.37852 C9.36243191,21.37852 9.24641064,21.26372 9.24641064,21.12212 L9.24641064,0.45092 C9.24641064,0.30932 9.36243191,0.19452 9.5055383,0.19452 C9.64864468,0.19452 9.76466596,0.30932 9.76466596,0.45092 L9.76466596,21.12212 C9.76466596,21.26372 9.64864468,21.37852 9.5055383,21.37852" id="Fill-53" fill="#CCCCCC"></path>
            <path d="M9.50513404,21.408 C9.46147447,21.408 9.41660213,21.3968 9.3761766,21.3736 L0.324495745,16.192 C0.200389362,16.1212 0.158346809,15.9644 0.230304255,15.8416 C0.301048936,15.7192 0.459517021,15.6772 0.583623404,15.748 L9.6349,20.9296 C9.75900638,21.0004 9.80145319,21.1576 9.7299,21.28 C9.68179362,21.3624 9.59487872,21.408 9.50513404,21.408" id="Fill-45" fill="#CCCCCC"></path>
            <path d="M9.50590213,21.408 C9.41615745,21.408 9.32964681,21.3624 9.28154043,21.28 C9.20998723,21.1576 9.25202979,21.0004 9.37573191,20.9296 L18.4160936,15.7484 C18.5406043,15.6764 18.6978596,15.7192 18.769817,15.8416 C18.8417745,15.9644 18.7993277,16.1212 18.6760298,16.192 L9.63526383,21.3736 C9.59443404,21.3968 9.54996596,21.408 9.50590213,21.408" id="Fill-47" fill="#CCCCCC"></path>
            <path d="M0.454382979,16.22656 C0.364638298,16.22656 0.277723404,16.18096 0.230021277,16.09856 C0.158468085,15.97576 0.200510638,15.81896 0.324617021,15.74816 L18.4158511,5.39696 C18.5395532,5.32536 18.6980213,5.36776 18.7691702,5.49096 C18.8407234,5.61336 18.7986809,5.77016 18.6741702,5.84096 L0.583340426,16.19216 C0.542914894,16.21536 0.498042553,16.22656 0.454382979,16.22656" id="Fill-39" fill="#CCCCCC"></path>
            <path d="M18.545617,16.22656 C18.5015532,16.22656 18.4570851,16.21536 18.4166596,16.19216 L0.324617021,5.84096 C0.200510638,5.77016 0.158468085,5.61336 0.230021277,5.49096 C0.301170213,5.36816 0.459638298,5.32616 0.583340426,5.39696 L18.675383,15.74816 C18.7994894,15.81896 18.8415319,15.97576 18.7699787,16.09856 C18.7222766,16.18056 18.6353617,16.22656 18.545617,16.22656" id="Fill-43" fill="#CCCCCC"></path>
            <path d="M0.454382979,5.8754 C0.364638298,5.8754 0.277723404,5.8294 0.229617021,5.747 C0.158468085,5.6242 0.200914894,5.4674 0.324617021,5.397 L9.37589362,0.2286 C9.50161702,0.1574 9.65846809,0.2002 9.73002128,0.323 C9.80157447,0.4454 9.7587234,0.6022 9.63502128,0.673 L0.583340426,5.841 C0.542510638,5.8642 0.498042553,5.8754 0.454382979,5.8754" id="Fill-37" fill="#CCCCCC"></path>
            <path d="M18.5444043,5.8754 C18.5011489,5.8754 18.4562766,5.8642 18.4158511,5.841 L9.37589362,0.673 C9.25259574,0.6022 9.20974468,0.4454 9.28170213,0.3226 C9.35244681,0.2002 9.51010638,0.1574 9.63502128,0.2286 L18.6741702,5.397 C18.7982766,5.4678 18.8407234,5.6246 18.7691702,5.7474 C18.7210638,5.8294 18.6341489,5.8754 18.5444043,5.8754" id="Fill-41" fill="#CCCCCC"></path>
            <path d="M12.1383319,2.409 C12.0615234,2.409 11.9830979,2.3894 11.9111404,2.3482 L9.50501277,0.9702 L7.09039574,2.3486 C6.87290638,2.4726 6.59558723,2.399 6.47026809,2.1838 C6.34494894,1.9686 6.41973617,1.6934 6.63722553,1.5694 L9.27903404,0.0614 C9.41931064,-0.019 9.59192766,-0.019 9.73301277,0.0618 L12.3659277,1.5698 C12.583417,1.6942 12.6573957,1.969 12.5320766,2.1842 C12.4475872,2.3282 12.295183,2.409 12.1383319,2.409" id="Fill-1" fill="#333333"></path>
            <path d="M9.5055383,14.25996 C9.2549,14.25996 9.05155957,14.05876 9.05155957,13.81036 L9.05155957,10.79436 C9.05155957,10.54596 9.2549,10.34476 9.5055383,10.34476 C9.7561766,10.34476 9.95951702,10.54596 9.95951702,10.79436 L9.95951702,13.81036 C9.95951702,14.05876 9.7561766,14.25996 9.5055383,14.25996" id="Fill-3" fill="#333333"></path>
            <path d="M0.453978723,9.0832 C0.203744681,9.0832 0.000404255319,8.882 0.000404255319,8.6336 L0.000404255319,5.6188 C0.000404255319,5.3704 0.203744681,5.1692 0.453978723,5.1692 C0.704617021,5.1692 0.907957447,5.3704 0.907957447,5.6188 L0.907957447,8.6336 C0.907957447,8.882 0.704617021,9.0832 0.453978723,9.0832" id="Fill-5" fill="#333333"></path>
            <path d="M18.545617,9.0832 C18.2949787,9.0832 18.0916383,8.882 18.0916383,8.6336 L18.091234,5.6188 C18.091234,5.3708 18.2945745,5.1692 18.5452128,5.1692 C18.7954468,5.1692 18.9987872,5.3704 18.9987872,5.6188 L18.9991915,8.6336 C18.9991915,8.882 18.7958511,9.0832 18.545617,9.0832" id="Fill-7" fill="#333333"></path>
            <path d="M18.5460213,16.41972 C18.295383,16.41972 18.0920426,16.21892 18.0920426,15.97012 L18.089617,12.95532 C18.0892128,12.70732 18.2925532,12.50572 18.5431915,12.50572 L18.5435957,12.50572 C18.794234,12.50572 18.9975745,12.70652 18.9975745,12.95492 L18.9995957,15.96972 C19.0004043,16.21812 18.7966596,16.41972 18.5464255,16.41972 L18.5460213,16.41972 Z" id="Fill-9" fill="#333333"></path>
            <path d="M0.453978723,16.41972 C0.203744681,16.41972 0.000404255319,16.21852 0.000404255319,15.97012 L0.000404255319,12.95532 C0.000404255319,12.70692 0.203744681,12.50572 0.453978723,12.50572 C0.704617021,12.50572 0.907957447,12.70692 0.907957447,12.95532 L0.907957447,15.97012 C0.907957447,16.21852 0.704617021,16.41972 0.453978723,16.41972" id="Fill-11" fill="#333333"></path>
            <path d="M9.5055383,4.18748 C9.2549,4.18748 9.05155957,3.98628 9.05155957,3.73788 L9.05155957,0.45068 C9.05155957,0.20228 9.2549,0.00108 9.5055383,0.00108 C9.7561766,0.00108 9.95951702,0.20228 9.95951702,0.45068 L9.95951702,3.73788 C9.95951702,3.98628 9.7561766,4.18748 9.5055383,4.18748" id="Fill-13" fill="#333333"></path>
            <path d="M9.5055383,21.60116 C9.2549,21.60116 9.05155957,21.39996 9.05155957,21.15156 L9.05155957,18.13676 C9.05155957,17.88836 9.2549,17.68716 9.5055383,17.68716 C9.7561766,17.68716 9.95951702,17.88836 9.95951702,18.13676 L9.95951702,21.15156 C9.95951702,21.39996 9.7561766,21.60116 9.5055383,21.60116" id="Fill-15" fill="#333333"></path>
            <path d="M9.5055383,21.60116 C9.42751702,21.60116 9.34868723,21.58116 9.27834681,21.54116 L6.62724043,20.02356 C6.41015532,19.89916 6.33577234,19.62396 6.4619,19.40916 C6.58681489,19.19396 6.8645383,19.12076 7.08202766,19.24476 L9.5055383,20.63236 L11.8963043,19.26156 C12.1129851,19.13716 12.3911128,19.21076 12.5168362,19.42556 C12.6425596,19.64036 12.5681766,19.91556 12.3510915,20.03996 L9.73272979,21.54076 C9.66319787,21.58116 9.58396383,21.60116 9.5055383,21.60116" id="Fill-17" fill="#333333"></path>
            <path d="M9.5055383,11.24396 C9.42751702,11.24396 9.34909149,11.22396 9.27834681,11.18396 L6.6365383,9.67516 C6.41945319,9.55076 6.34507021,9.27596 6.47038936,9.06076 C6.59651702,8.84516 6.87302766,8.77276 7.09051702,8.89556 L9.50513404,10.27516 L11.9112617,8.89636 C12.1295596,8.77196 12.4060702,8.84516 12.5317936,9.06036 C12.657517,9.27516 12.583134,9.55036 12.3660489,9.67476 L9.73272979,11.18356 C9.66319787,11.22396 9.58396383,11.24396 9.5055383,11.24396" id="Fill-19" fill="#333333"></path>
            <path d="M15.909266,7.57696 C15.7524149,7.57696 15.5996064,7.49656 15.5159255,7.35216 C15.3902021,7.13696 15.4641809,6.86216 15.6820745,6.73776 L18.3182234,5.22936 C18.5349043,5.10576 18.8130319,5.17896 18.9379468,5.39376 C19.0636702,5.60936 18.9892872,5.88416 18.7717979,6.00856 L16.1360532,7.51656 C16.0645,7.55736 15.9864787,7.57696 15.909266,7.57696" id="Fill-21" fill="#333333"></path>
            <path d="M18.5444043,6.06876 C18.4675957,6.06876 18.3891702,6.04916 18.3180213,6.00836 L15.6778298,4.49876 C15.4607447,4.37476 15.3863617,4.09996 15.5112766,3.88476 C15.6374043,3.66956 15.9155319,3.59596 16.1318085,3.71996 L18.7715957,5.22956 C18.9890851,5.35356 19.0634681,5.62836 18.9385532,5.84396 C18.8544681,5.98796 18.7016596,6.06876 18.5444043,6.06876" id="Fill-23" fill="#333333"></path>
            <path d="M3.09154255,7.57696 C3.01432979,7.57696 2.93630851,7.55736 2.86475532,7.51656 L0.226989362,6.00856 C0.0103085106,5.88416 -0.0644787234,5.60936 0.0608404255,5.39416 C0.186159574,5.17896 0.465095745,5.10576 0.680968085,5.22936 L3.31873404,6.73776 C3.5362234,6.86176 3.61060638,7.13696 3.48528723,7.35216 C3.40120213,7.49616 3.24839362,7.57696 3.09154255,7.57696" id="Fill-25" fill="#333333"></path>
            <path d="M0.454382979,6.06876 C0.297531915,6.06876 0.144723404,5.98796 0.0606382979,5.84356 C-0.0642765957,5.62836 0.010106383,5.35356 0.227595745,5.22916 L2.86293617,3.72476 C3.07921277,3.60076 3.35734043,3.67436 3.48265957,3.88996 C3.60797872,4.10476 3.53319149,4.37996 3.31610638,4.50396 L0.680765957,6.00876 C0.609212766,6.04916 0.531191489,6.06876 0.454382979,6.06876" id="Fill-27" fill="#333333"></path>
            <path d="M15.9041319,17.92812 C15.7468766,17.92812 15.5940681,17.84732 15.509983,17.70292 C15.3850681,17.48772 15.4594511,17.21252 15.6769404,17.08892 L18.3195574,15.58052 C18.5362383,15.45612 18.8135574,15.53012 18.9392809,15.74532 C19.0641957,15.96092 18.9898128,16.23572 18.7723234,16.35972 L16.1301106,17.86812 C16.0589617,17.90852 15.9805362,17.92812 15.9041319,17.92812" id="Fill-29" fill="#333333"></path>
            <path d="M18.545617,16.41992 C18.4684043,16.41992 18.3899787,16.40032 18.3188298,16.35952 L15.6810638,14.85112 C15.4639787,14.72712 15.3891915,14.45192 15.5149149,14.23672 C15.640234,14.02152 15.9191702,13.94872 16.1350426,14.07232 L18.7728085,15.58072 C18.9898936,15.70472 19.0642766,15.97992 18.9393617,16.19512 C18.8552766,16.33912 18.7024681,16.41992 18.545617,16.41992" id="Fill-31" fill="#333333"></path>
            <path d="M3.09154255,17.92988 C3.01432979,17.92988 2.93630851,17.91028 2.86435106,17.86948 L0.226585106,16.35948 C0.00990425532,16.23508 -0.0644787234,15.96028 0.0612446809,15.74508 C0.186159574,15.53028 0.464287234,15.45708 0.68137234,15.58068 L3.3191383,17.09068 C3.53662766,17.21508 3.61060638,17.48988 3.48488298,17.70508 C3.40120213,17.84908 3.24839362,17.92988 3.09154255,17.92988" id="Fill-33" fill="#333333"></path>
            <path d="M0.454382979,16.41992 C0.297531915,16.41992 0.14512766,16.33952 0.0610425532,16.19512 C-0.0642765957,15.98032 0.00970212766,15.70512 0.226787234,15.58112 L2.85970213,14.07232 C3.078,13.94792 3.35451064,14.02152 3.48023404,14.23672 C3.60595745,14.45152 3.53157447,14.72672 3.31448936,14.85112 L0.681574468,16.35952 C0.610021277,16.40032 0.531595745,16.41992 0.454382979,16.41992" id="Fill-35" fill="#333333"></path>
        </g>
    </g>
</svg>