<?xml version="1.0" encoding="utf-8"?>
<!-- Generator: Adobe Illustrator 26.0.1, SVG Export Plug-In . SVG Version: 6.00 Build 0)  -->
<svg version="1.1" id="Layer_1" xmlns="http://www.w3.org/2000/svg" xmlns:xlink="http://www.w3.org/1999/xlink" x="0px" y="0px"
	 viewBox="0 0 1024.6 370" style="enable-background:new 0 0 1024.6 370;" xml:space="preserve">
<style type="text/css">
	.st0{fill:#FFFFFF;}
</style>
<g>
	<path class="st0" d="M990.4,51.5c11.9,5.8,20.8,17.6,22.3,31.9c2.3,22-13.7,41.6-35.7,43.9c-0.2,0-4.4,0.5-12.5,1.5
		c13.1,2.1,23.8,12.7,25.2,26.6c1.4,13.8-6.8,26.4-19.2,31.1c-1.3,0.6-2.7,1.1-4.1,1.4c-1.8,0.4-184.2,45.4-373.9,136.6
		c-3.5,1.7-7.2,2.5-10.8,2.5c-9.3,0-18.2-5.2-22.5-14.2c-6-12.4-0.8-27.4,11.7-33.4c19.8-9.5,39.5-18.6,58.9-27.1
		c-91.9,22.7-203,53.8-326.8,95.6c-3.2,1.1-6.4,1.6-9.6,1.6c-12.5,0-24.2-7.9-28.4-20.4c-4-12-0.1-24.7,9-32.4
		c-26.2,8.6-53,17.7-80.3,27.2c-4.4,1.5-8.8,2.2-13.1,2.2c-16.6,0-32-10.4-37.8-26.9c-7.3-20.9,3.8-43.7,24.6-50.9
		c-14.8,4.9-29.6,10-44.4,15.2c-5.4,1.9-11,2.8-16.4,2.8c-20.7,0-40-12.9-47.2-33.6c-8.4-24.2,2.9-50.5,25.4-61.4
		c-12.6,4.1-40,14.4-84.6,30.4V370h1024.7V46.7C1019.3,47.4,1007.6,49,990.4,51.5z"/>
	<path class="st0" d="M167.3,248.4L167.3,248.4c0.3-0.1,0.6-0.2,0.9-0.3C167.9,248.2,167.6,248.3,167.3,248.4z"/>
</g>
</svg>
