<svg id="Exportable" xmlns="http://www.w3.org/2000/svg" viewBox="0 0 42 56">
  <defs>
    <style>
      .cls-1 {
        fill: none;
      }

      .cls-2 {
        fill: #6e6e73;
      }
    </style>
  </defs>
  <title>envelope_elevated@1x</title>
  <g id="envelope">
    <g id="Elevated">
      <rect id="Bounding_Box" data-name="Bounding Box" class="cls-1" width="42" height="56"/>
      <path id="Icon" class="cls-2" d="M37,12H5a5.006,5.006,0,0,0-5,5V39a5.006,5.006,0,0,0,5,5H37a5.006,5.006,0,0,0,5-5V17A5.006,5.006,0,0,0,37,12Zm3,5V39a2.963,2.963,0,0,1-.38,1.432L27.073,27.877,39.548,15.435A2.97,2.97,0,0,1,40,17Zm-3-3a2.963,2.963,0,0,1,.977.177L23.008,29.107a2.9,2.9,0,0,1-4.017,0L4.026,14.176A2.962,2.962,0,0,1,5,14ZM2.38,40.432A2.963,2.963,0,0,1,2,39V17a2.971,2.971,0,0,1,.454-1.568L14.927,27.876ZM5,42a2.979,2.979,0,0,1-1.134-.226L16.343,29.289l1.235,1.232a4.836,4.836,0,0,0,6.843,0l1.236-1.233L38.134,41.774A2.979,2.979,0,0,1,37,42Z"/>
    </g>
  </g>
</svg>
