<svg xmlns="http://www.w3.org/2000/svg" viewBox="0 0 37 56">
  <title>geniusbar.logo_elevated@1x</title>
  <g>
    <rect width="37" height="56" fill="none"/>
    <path d="M1.728,34.357A2.689,2.689,0,0,1,3.323,29.5a2.717,2.717,0,0,1,1.12.245c.506-.567,1.089-1.166,1.718-1.764-4-3.757-5.521-7.254-4.079-9.754,1.426-2.5,5.214-2.929,10.49-1.334,1.258-5.337,3.512-8.389,6.4-8.389A4.529,4.529,0,0,1,22.4,10.264a2.65,2.65,0,0,1,1.2-.291,2.7,2.7,0,0,1,1.258,5.092c.184.567.353,1.181.506,1.825,5.26-1.595,9.048-1.166,10.49,1.334,1.426,2.5-.092,6-4.095,9.754,4,3.773,5.521,7.254,4.095,9.754a4.759,4.759,0,0,1-3.665,2.162,2.7,2.7,0,0,1-2.392,1.488,2.736,2.736,0,0,1-2.561-1.84c-.6-.123-1.227-.291-1.871-.491-1.258,5.383-3.527,8.45-6.4,8.45-2.883,0-5.153-3.067-6.411-8.45C7.3,40.645,3.507,40.215,2.081,37.731A4.381,4.381,0,0,1,1.728,34.357Zm5.736-7.53a46.916,46.916,0,0,1,4.141-3.1,44.136,44.136,0,0,1,.613-5.138c-4.494-1.472-7.607-1.319-8.665.506C2.495,20.907,3.937,23.683,7.464,26.827ZM12.2,37.332a46.831,46.831,0,0,1-.6-5.107,44.059,44.059,0,0,1-4.141-3.083A21.841,21.841,0,0,0,5.67,30.906a2.6,2.6,0,0,1,.353,1.273,2.713,2.713,0,0,1-2.7,2.7H3.292a2.767,2.767,0,0,0,.261,1.978C4.611,38.682,7.709,38.8,12.2,37.332ZM11.5,26c-.966.675-1.856,1.334-2.653,1.978.8.644,1.687,1.3,2.653,1.963-.031-.644-.031-1.319-.031-1.994C11.467,27.287,11.467,26.643,11.5,26Zm7.469,8.4q1.38-.713,2.853-1.564c.966-.552,1.871-1.1,2.715-1.641.046-1.043.077-2.132.077-3.251,0-1.1-.031-2.178-.077-3.19-.874-.567-1.81-1.135-2.791-1.7-.951-.552-1.886-1.074-2.776-1.534-.9.46-1.84.982-2.791,1.534-.982.567-1.917,1.135-2.791,1.7-.046,1.012-.077,2.086-.077,3.19,0,1.12.031,2.208.077,3.251.859.537,1.764,1.089,2.715,1.641C17.08,33.406,18.031,33.927,18.966,34.4ZM16.942,20.524c-1.058-.506-2.07-.951-3.037-1.319-.153,1.012-.291,2.116-.383,3.3.567-.353,1.135-.69,1.733-1.043C15.837,21.137,16.39,20.815,16.942,20.524Zm-3.42,12.944c.092,1.15.23,2.239.383,3.251.951-.368,1.963-.813,3.006-1.3-.567-.307-1.15-.629-1.748-.982C14.6,34.111,14.058,33.789,13.522,33.467ZM23.7,38.5a47.153,47.153,0,0,1-4.739-2.024A48.888,48.888,0,0,1,14.212,38.5c.966,4.647,2.638,7.285,4.754,7.285C21.067,45.782,22.739,43.145,23.7,38.5ZM14.227,17.441a45.485,45.485,0,0,1,4.739,2.04,43.951,43.951,0,0,1,4.724-2.04c-.153-.751-.337-1.457-.521-2.1A2.7,2.7,0,0,1,21.22,11.4a2.987,2.987,0,0,0-2.254-1.166C16.85,10.233,15.193,12.84,14.227,17.441ZM24.4,22.5c-.092-1.181-.23-2.285-.383-3.3-.966.368-1.978.813-3.037,1.319.552.291,1.12.613,1.687.936C23.26,21.812,23.843,22.149,24.4,22.5ZM21.006,35.415c1.058.491,2.055.936,3.006,1.3.169-1.012.291-2.1.383-3.251-.537.322-1.074.644-1.641.966C22.156,34.786,21.573,35.108,21.006,35.415Zm4.708-16.824c.276,1.564.475,3.282.613,5.138a48.944,48.944,0,0,1,4.125,3.1c3.527-3.144,4.969-5.92,3.911-7.729C33.305,17.272,30.192,17.119,25.714,18.591Zm4.739,10.551a44.059,44.059,0,0,1-4.141,3.083,46.831,46.831,0,0,1-.6,5.107c.537.169,1.043.322,1.534.46a2.689,2.689,0,0,1,5.184.383,2.911,2.911,0,0,0,1.932-1.319C35.406,35.047,33.98,32.286,30.453,29.143Zm-4.033.8c.966-.659,1.856-1.319,2.653-1.963-.8-.644-1.687-1.3-2.653-1.978.031.644.031,1.288.031,1.948C26.45,28.621,26.45,29.3,26.419,29.94Z" fill="#6e6e73"/>
  </g>
</svg>
