<?xml version="1.0" encoding="UTF-8"?>
<svg width="25px" height="21px" viewBox="0 0 25 21" version="1.1" xmlns="http://www.w3.org/2000/svg" xmlns:xlink="http://www.w3.org/1999/xlink">
    <!-- Generator: Sketch 63.1 (92452) - https://sketch.com -->
    <title>camera_base@1x@1x</title>
    <desc>Created with Sketch.</desc>
    <g id="Sharesheet/Media_PDF_Deliverable" stroke="none" stroke-width="1" fill="none" fill-rule="evenodd">
        <g id="01_L_Download_All_Image" transform="translate(-475.000000, -2963.000000)" fill="#000000" fill-rule="nonzero">
            <g id="camera_base@1x" transform="translate(475.000000, 2963.000000)">
                <path d="M12.5,6 C9.46243388,6 7,8.46243388 7,11.5 C7,14.5375661 9.46243388,17 12.5,17 C15.5375661,17 18,14.5375661 18,11.5 C17.9961434,8.46403277 15.5359672,6.0038566 12.5,6 Z M12.5,16 C10.6799199,16 9.0390566,14.9036102 8.3425421,13.2220754 C7.6460276,11.5405407 8.0310285,9.60501047 9.31801948,8.31801948 C10.6050105,7.0310285 12.5405407,6.6460276 14.2220754,7.3425421 C15.9036102,8.0390566 17,9.6799199 17,11.5 C17,13.9852814 14.9852814,16 12.5,16 L12.5,16 Z" id="Shape"></path>
                <path d="M21.5,3 L19.133,3 C18.7855983,3.00009787 18.4630385,2.8198884 18.281,2.524 L17.525,1.351 C17.0480423,0.516617773 16.1610832,0.00122778483 15.2,0 L9.8,0 C8.84177937,0 7.95667906,0.512331875 7.479,1.343 L6.718,2.524 C6.53614808,2.81958532 6.21404574,2.99975067 5.867,3 L3.5,3 C1.56700338,3 -8.8817842e-16,4.56700338 -8.8817842e-16,6.5 L-8.8817842e-16,17.5 C-8.8817842e-16,19.4329966 1.56700338,21 3.5,21 L21.5,21 C23.4329966,21 25,19.4329966 25,17.5 L25,6.5 C25,4.56700338 23.4329966,3 21.5,3 Z M24,17.5 C24,18.8807119 22.8807119,20 21.5,20 L3.5,20 C2.11928813,20 1,18.8807119 1,17.5 L1,6.5 C1,5.11928813 2.11928813,4 3.5,4 L5.867,4 C6.56037933,3.99880796 7.20366972,3.63856534 7.567,3.048 L8.333,1.859 C8.63222359,1.32996448 9.19220968,1.00206534 9.8,1 L15.2,1 C15.8100745,1.0042892 16.3710712,1.33516275 16.67,1.867 L17.431,3.048 C17.7943303,3.63856534 18.4376207,3.99880796 19.131,4 L21.5,4 C22.1630412,4 22.798926,4.2633921 23.267767,4.73223305 C23.7366079,5.20107399 24,5.83695878 24,6.5 L24,17.5 Z" id="Shape"></path>
            </g>
        </g>
    </g>
</svg>