<?xml version="1.0" encoding="utf-8"?>
<!-- Generator: Adobe Illustrator 27.1.1, SVG Export Plug-In . SVG Version: 6.00 Build 0)  -->
<svg version="1.1" id="Layer_1" xmlns="http://www.w3.org/2000/svg" xmlns:xlink="http://www.w3.org/1999/xlink" x="0px" y="0px"
	 width="190px" height="165px" viewBox="0 0 190 165" style="enable-background:new 0 0 190 165;" xml:space="preserve">
<style type="text/css">
	.st0{fill:#00D959;}
	.st1{fill:none;}
</style>
<path class="st0" d="M93.1,163.5c-24-0.3-45.7-7.4-64.5-22.8c-5.7-4.7-10.8-10-15.3-15.8C1.5,109.8-1.1,92.8,3.4,74.4
	c3.8-15.6,11.4-29.2,22.7-40.6C42.4,17.4,61.9,7.3,84.8,3.7c11.3-1.8,22.6-3.1,33.9-1.4C141.3,5.7,160.2,16,174.5,34
	c6.6,8.3,9.9,18,12,28.3c2.9,14.4,3,28.7-1,43c-3.9,14.2-11.6,25.9-23.1,35.1c-13.7,11-29.3,17.7-46.4,20.9
	C108.5,162.7,100.8,163.5,93.1,163.5z M93.6,150c13.9,0.2,26-2.3,37.6-6.7c13.4-5.1,24.3-13.4,32-25.7c4.7-7.5,6.9-15.6,6.4-24.5
	c-0.4-6.7-1.9-13.2-4.4-19.5c-4-9.9-9.4-18.9-16.1-27.2c-11.3-13.9-25.3-23.5-43.1-27.3c-9.2-2-18.3-2.1-27.5-0.1
	c-13.4,2.8-24.3,9.3-32.7,20.3C39,48.4,33.3,58,29,68.5c-7.3,18.2-6.2,35.9,2.9,53.2c3.1,5.9,7.3,10.4,13.2,13.8
	c9.4,5.4,19.5,8.7,29.7,11.7C81.5,149.1,88.1,150.2,93.6,150z M170.8,54.7c-3.1-9.6-9.1-17.1-17.1-23.1
	C159.9,38.9,165.7,46.5,170.8,54.7z"/>
<rect class="st1" width="190" height="165"/>
</svg>
