<?xml version="1.0" encoding="utf-8"?>
<svg xmlns="http://www.w3.org/2000/svg" width="190px" height="166px" viewBox="0 0 190 166">
	<path style="fill:#00D959;" d="M93.12,163.97c-24.03-0.34-45.73-7.35-64.44-22.77c-5.68-4.68-10.8-9.97-15.32-15.78 C1.58,110.25-1.03,93.25,3.45,74.9c3.81-15.62,11.42-29.17,22.71-40.57C42.4,17.92,61.95,7.81,84.81,4.19 c11.25-1.78,22.55-3.07,33.9-1.35c22.6,3.43,41.43,13.73,55.77,31.71c6.6,8.28,9.94,17.99,12.04,28.29 c2.94,14.43,2.95,28.68-1,42.95c-3.94,14.23-11.62,25.9-23.08,35.09c-13.65,10.95-29.26,17.65-46.39,20.9 C108.48,163.22,100.85,163.99,93.12,163.97z M93.6,150.49c13.9,0.16,25.96-2.29,37.6-6.74c13.36-5.11,24.29-13.38,31.97-25.67 c4.69-7.51,6.93-15.59,6.44-24.45c-0.37-6.74-1.93-13.2-4.43-19.44c-3.97-9.89-9.38-18.93-16.11-27.19 C137.75,33.1,123.78,23.47,106,19.67c-9.2-1.97-18.29-2.06-27.48-0.13c-13.38,2.81-24.33,9.29-32.68,20.33 C39.01,48.9,33.3,58.49,29.07,68.99c-7.33,18.18-6.18,35.87,2.94,53.16c3.1,5.87,7.34,10.38,13.17,13.75 c9.37,5.4,19.47,8.68,29.73,11.74C81.48,149.6,88.12,150.72,93.6,150.49z M170.81,55.24c-3.05-9.58-9.06-17.08-17.07-23.12 C159.89,39.46,165.69,47.06,170.81,55.24z"/>
</svg>