<?xml version="1.0" encoding="utf-8"?>
<svg xmlns="http://www.w3.org/2000/svg" width="320px" height="16px" viewBox="0 0 320 16" preserveAspectRatio="none">
	<path style="fill:#00D959;" d="M153.4,1.19c8.86,0,17.7,0,26.55,0c5.14,0,10.24,0.09,15.38,0.39c5.69,0.31,11.51,0.14,17.27,0.17 c3.9,0,7.79,0.16,11.68,0.36c5.31,0.26,10.69,0.19,16.04,0.24c3.69,0,7.33,0.2,11.05,0.32c6.33,0.23,12.69,0.5,19.07,0.32 c1.84-0.08,3.69-0.05,5.53,0.1c3.87,0.39,7.78,0.33,11.68,0.37c4.11,0,8.22,0,12.29,0.42c1.78,0.19,3.69,0.07,5.54,0.14 c1.84,0.06,3.69,0.12,5.52,0.24c4.52,0.31,6.69,1.7,7.47,3.66c0.7,1.74-1.69,3.6-5.35,3.98c-3.03,0.37-6.09,0.47-9.14,0.3 c-3.83-0.28-7.8-0.2-11.7-0.24c-4.11-0.05-8.2-0.12-12.3-0.38c-4.26-0.26-8.62-0.18-12.94-0.21c-3.91,0-7.81,0-11.68-0.39 c-1.59-0.16-3.28-0.1-4.92-0.14c-8.37-0.14-16.86,0.15-25.26-0.5c-2.41-0.19-4.93-0.07-7.39-0.1c-7.33-0.1-14.76-0.09-22.13-0.47 c-3.45-0.18-6.99-0.08-10.47-0.08c-23.03,0-46.08,0-69.16,0c-4.11,0-8.22,0.19-12.33,0.24c-10.68,0.13-21.35,0.24-32.03,0.33 c-3.69-0.06-7.38,0.07-11.05,0.4c-0.81,0.09-1.63,0.13-2.45,0.1c-7.64-0.19-15.17,0.5-22.76,0.66c-3.68,0.07-7.33,0.38-10.99,0.67 c-1.11,0.14-2.21,0.38-3.28,0.74c-1.22,0.36-2.38,0.75-3.51,1.16c-2.27,0.72-4.67,0.96-7.03,0.71c-5.4-0.35-9.57-2.78-9.18-5.26 C1.58,8.65,2.29,8,3.32,7.36c3.4-2.09,8.28-2.84,13.41-3.14s10.24-0.53,15.28-0.89c7.97-0.55,16.06-0.14,23.96-0.92 c1.99-0.17,4.13-0.08,6.18-0.1c5.14,0,10.29,0.06,15.38-0.43c1.39-0.13,2.88-0.07,4.31-0.08c6.58,0,13.18,0,19.76-0.08 c4.72,0,9.42,0.08,14.14-0.4c1.59-0.12,3.29-0.12,4.94-0.12h32.72V1.19z"/>
</svg>
