<svg xmlns="http://www.w3.org/2000/svg" xmlns:xlink="http://www.w3.org/1999/xlink" viewBox="0 0 16 16"><defs><path id="a" d="M.2 8.9l6.7.4.6 6.7 8.3-16z"/></defs><clipPath id="b"><use xlink:href="#a" overflow="visible"/></clipPath><g clip-path="url(#b)"><defs><path id="c" d="M-538.8-121h1440v600h-1440z"/></defs><clipPath id="d"><use xlink:href="#c" overflow="visible"/></clipPath><g clip-path="url(#d)"><defs><path id="e" d="M-9.8-10h36v36h-36z"/></defs><clipPath id="f"><use xlink:href="#e" overflow="visible"/></clipPath><g clip-path="url(#f)"><defs><path id="g" d="M.2 0h16v16H.2z"/></defs><clipPath id="h"><use xlink:href="#g" overflow="visible"/></clipPath><path clip-path="url(#h)" fill="none" stroke="#86868b" stroke-width="2" stroke-miterlimit="10" d="M.2 8.9l6.7.4.6 6.7 8.3-16z"/></g></g></g><defs><path id="i" d="M.2 8.9l6.7.4.6 6.7 8.3-16z"/></defs><clipPath id="j"><use xlink:href="#i" overflow="visible"/></clipPath><g clip-path="url(#j)"><defs><path id="k" d="M-538.8-121h1440v600h-1440z"/></defs><clipPath id="l"><use xlink:href="#k" overflow="visible"/></clipPath><g clip-path="url(#l)"><defs><path id="m" d="M-9.8-10h36v36h-36z"/></defs><clipPath id="n"><use xlink:href="#m" overflow="visible"/></clipPath><g clip-path="url(#n)"><defs><path id="o" d="M.2 0h16v16H.2z"/></defs><clipPath id="p"><use xlink:href="#o" overflow="visible"/></clipPath><path clip-path="url(#p)" fill="none" stroke="#86868b" stroke-width="2" stroke-miterlimit="10" d="M.2 8.9l6.7.4.6 6.7 8.3-16z"/></g></g></g></svg>