<svg class="icon" xmlns="http://www.w3.org/2000/svg" viewBox="0 0 64 64">
  <path d="M8.84782859,59.9105715 L38.4795429,59.9105715 C44.2552001,59.9105715 47.1290858,56.9809144 47.1290858,51.1773372 L47.1290858,25.8425143 C47.1290858,22.2432 46.7105715,20.6806857 44.4784001,18.3927429 L29.1045143,2.73982858 C26.984,0.563485715 25.2261715,0.0891428573 22.1011429,0.0891428573 L8.84782859,0.0891428573 C3.10005715,0.0891428573 0.198285715,3.04674286 0.198285715,8.85034287 L0.198285715,51.1773372 C0.198285715,57.0088001 3.07217143,59.9105715 8.84782859,59.9105715 Z M9.04314287,55.4184115 C6.16925715,55.4184115 4.69045715,53.8838115 4.69045715,51.0936344 L4.69045715,8.93405716 C4.69045715,6.17177144 6.16925715,4.58137144 9.07102859,4.58137144 L21.4873143,4.58137144 L21.4873143,20.7922857 C21.4873143,24.3079429 23.2451429,26.0378286 26.7328572,26.0378286 L42.6369144,26.0378286 L42.6369144,51.0936344 C42.6369144,53.8838115 41.1581144,55.4184115 38.2562858,55.4184115 L9.04314287,55.4184115 Z M27.2350858,21.8246858 C26.1190286,21.8246858 25.7005143,21.3782286 25.7005143,20.2621715 L25.7005143,5.44628572 L41.7719429,21.8246858 L27.2350858,21.8246858 Z M33.9315429,33.7387429 L12.7540572,33.7387429 C11.7496,33.7387429 10.9962857,34.4920572 10.9962857,35.4407429 C10.9962857,36.4173143 11.7496,37.1706286 12.7540572,37.1706286 L33.9315429,37.1706286 C34.9081143,37.1706286 35.6335429,36.4173143 35.6335429,35.4407429 C35.6335429,34.4920572 34.9081143,33.7387429 33.9315429,33.7387429 Z M33.9315429,43.4764572 L12.7540572,43.4764572 C11.7496,43.4764572 10.9962857,44.2577144 10.9962857,45.2342572 C10.9962857,46.1829201 11.7496,46.9083658 12.7540572,46.9083658 L33.9315429,46.9083658 C34.9081143,46.9083658 35.6335429,46.1829201 35.6335429,45.2342572 C35.6335429,44.2577144 34.9081143,43.4764572 33.9315429,43.4764572 Z" transform="translate(8.286 2)"></path>
</svg>
