<svg class="icon" xmlns="http://www.w3.org/2000/svg" viewBox="0 0 64 64">
  <path d="M7.80585367,37.2460293 L12.0932195,37.2460293 L12.0932195,40.8902762 C12.0932195,45.8207269 14.5703415,48.2740489 19.5722439,48.2740489 L52.108683,48.2740489 C57.0628294,48.2740489 59.5877074,45.7969074 59.5877074,40.8902762 L59.5877074,18.4293171 C59.5877074,13.5227317 57.0628294,11.045561 52.108683,11.045561 L47.5589269,11.045561 L47.5589269,7.40131709 C47.5589269,2.49468293 45.0345367,0.0175609756 40.0800488,0.0175609756 L7.80585367,0.0175609756 C2.80395122,0.0175609756 0.326829269,2.49468293 0.326829269,7.40131709 L0.326829269,29.862244 C0.326829269,34.7927318 2.80395122,37.2460293 7.80585367,37.2460293 Z M7.85351221,33.4112196 C5.47160977,33.4112196 4.16160976,32.1488293 4.16160976,29.6717074 L4.16160976,7.61570733 C4.16160976,5.13853659 5.47160977,3.85234147 7.85351221,3.85234147 L40.0085854,3.85234147 C42.3666342,3.85234147 43.7242928,5.13853659 43.7242928,7.61570733 L43.7242928,11.045561 L19.5722439,11.045561 C14.5703415,11.045561 12.0932195,13.5227317 12.0932195,18.4293171 L12.0932195,33.4112196 L7.85351221,33.4112196 Z M15.928,18.6437073 C15.928,16.1665854 17.238,14.8803903 19.6199025,14.8803903 L52.0369757,14.8803903 C54.3950245,14.8803903 55.7525855,16.1665854 55.7525855,18.6437073 L55.7525855,37.1983952 L46.8442928,28.7904391 C45.9155123,27.9329757 44.7720976,27.5042439 43.6291708,27.5042439 C42.4380976,27.5042439 41.3900976,27.8853171 40.4135123,28.7666342 L30.7907805,37.2936684 L26.956,33.8399513 C26.0508781,33.0063415 25.0743415,32.6252196 24.0501464,32.6252196 C23.1212196,32.6252196 22.2399025,33.0063415 21.3110244,33.7923415 L15.928,38.4845952 L15.928,18.6437073 Z M29.0758537,29.3144391 C31.8388293,29.3144391 34.1016098,27.0040488 34.1016098,24.2172683 C34.1016098,21.4780976 31.8388293,19.1677073 29.0758537,19.1677073 C26.2890732,19.1677073 24.0263415,21.4780976 24.0263415,24.2172683 C24.0263415,27.0040488 26.2890732,29.3144391 29.0758537,29.3144391 Z" transform="translate(2 7.854)"></path>
</svg>
