<svg version="1.1" width="160px" height="240px" baseProfile="full" xmlns="http://www.w3.org/2000/svg" xmlns:xlink="http://www.w3.org/1999/xlink" xmlns:ev="http://www.w3.org/2001/xml-events">
<g fill-opacity="0.5">
	<path d="M61.337,223.984c-0.598,0.168-1.064,0.304-1.4,0.406v3.374c0,0.504-0.107,0.83-0.322,0.979s-0.551,0.225-1.008,0.225
		c-0.458,0-0.803-0.01-1.036-0.028l-0.252-1.12c0.401,0.028,0.714,0.042,0.938,0.042s0.371-0.03,0.441-0.091
		c0.07-0.061,0.105-0.189,0.105-0.385v-2.646l-1.358,0.42l-0.28-1.078l1.638-0.434v-2.45h-1.4v-1.036h1.4v-2.198h1.134v2.198h1.218
		v1.036h-1.218v2.1c0.438-0.121,0.868-0.256,1.288-0.405L61.337,223.984z M68.407,227.862l-0.644,1.078
		c-1.148-0.401-2.17-0.976-3.066-1.722c-0.868,0.672-1.997,1.269-3.388,1.792l-0.728-1.064c1.288-0.392,2.38-0.915,3.276-1.568
		c-0.756-0.83-1.391-1.866-1.904-3.107h-0.42v-1.064h2.576v-1.483h-2.604v-1.051h2.604v-1.722h1.176v1.722h2.884v1.051h-2.884v1.483
		h2.618c-0.569,1.802-1.344,3.206-2.324,4.214C66.41,227.083,67.352,227.563,68.407,227.862z M66.293,223.271h-3.136
		c0.364,0.877,0.887,1.671,1.568,2.38C65.425,224.95,65.947,224.157,66.293,223.271z"/>
	<path d="M79.915,226.519l-0.826,1.036c-1.727-1.241-3.136-2.749-4.228-4.522v5.979h-1.19v-5.95
		c-1.045,1.811-2.45,3.355-4.214,4.634l-0.854-0.952c1.997-1.362,3.551-3.052,4.662-5.068h-4.382v-1.105h4.788v-2.562h1.19v2.562
		h2.66c-0.374-0.43-0.938-0.994-1.694-1.694l0.882-0.686c0.802,0.756,1.409,1.362,1.82,1.819l-0.812,0.561h1.918v1.105h-4.424
		C76.415,223.653,77.983,225.268,79.915,226.519z"/>
	<path d="M91.354,227.807l-0.574,1.162c-2.035-0.383-3.715-1.022-5.041-1.918c-1.315,0.793-3.014,1.451-5.096,1.974l-0.546-1.162
		c1.933-0.383,3.491-0.9,4.677-1.554c-0.934-0.803-1.746-1.778-2.437-2.927h-1.134v-1.105h3.934v-1.54h-4.858v-1.12h4.858v-1.61
		h1.204v1.61h4.83v1.12h-4.83v1.54h3.542c-0.672,1.652-1.713,3.01-3.122,4.074C88.021,227.069,89.551,227.555,91.354,227.807z
		 M87.979,223.382h-4.396c0.541,0.859,1.265,1.629,2.17,2.311C86.677,225.011,87.419,224.241,87.979,223.382z"/>
	<path d="M95.65,221.227h-1.232v1.987c0.383-0.111,0.705-0.219,0.967-0.321l0.168,1.12c-0.225,0.056-0.603,0.163-1.135,0.321v3.402
		c0,0.438-0.091,0.751-0.272,0.938c-0.183,0.188-0.623,0.28-1.323,0.28c-0.279,0-0.523-0.014-0.729-0.042l-0.252-1.134
		c0.561,0.056,0.901,0.084,1.022,0.084s0.22-0.03,0.294-0.091s0.112-0.193,0.112-0.399v-2.688l-1.372,0.434l-0.294-1.12
		c0.774-0.195,1.33-0.345,1.666-0.447v-2.324h-1.4v-1.05h1.4v-2.156h1.147v2.156h1.232V221.227z M102.692,222.893h-7.153v-1.036
		h2.897v-1.344h-2.212v-1.051h2.212v-1.498h1.161v1.498h2.367v1.051h-2.367v1.344h3.095V222.893z M102.623,225.132h-1.457v2.576
		c0,0.541-0.117,0.896-0.35,1.064c-0.233,0.168-0.588,0.252-1.064,0.252c-0.476,0-0.863-0.01-1.162-0.028l-0.321-1.162
		c0.532,0.047,0.915,0.07,1.147,0.07c0.233,0,0.391-0.035,0.469-0.105c0.08-0.069,0.119-0.207,0.119-0.412v-2.255h-4.283v-1.063
		h4.283v-0.938h1.162v0.938h1.457V225.132z M98.562,226.896l-0.896,0.714c-0.504-0.606-1.008-1.129-1.512-1.568l0.882-0.699
		C97.625,225.921,98.133,226.439,98.562,226.896z"/>
</g>
<g fill-opacity="0.17">
	<path d="M61.337,225.984c-0.598,0.168-1.064,0.304-1.4,0.406v3.374c0,0.504-0.107,0.83-0.322,0.979s-0.551,0.225-1.008,0.225
		c-0.458,0-0.803-0.01-1.036-0.028l-0.252-1.12c0.401,0.028,0.714,0.042,0.938,0.042s0.371-0.03,0.441-0.091
		c0.07-0.061,0.105-0.189,0.105-0.385v-2.646l-1.358,0.42l-0.28-1.078l1.638-0.434v-2.45h-1.4v-1.036h1.4v-2.198h1.134v2.198h1.218
		v1.036h-1.218v2.1c0.438-0.121,0.868-0.256,1.288-0.405L61.337,225.984z M68.407,229.862l-0.644,1.078
		c-1.148-0.401-2.17-0.976-3.066-1.722c-0.868,0.672-1.997,1.269-3.388,1.792l-0.728-1.064c1.288-0.392,2.38-0.915,3.276-1.568
		c-0.756-0.83-1.391-1.866-1.904-3.107h-0.42v-1.064h2.576v-1.483h-2.604v-1.051h2.604v-1.722h1.176v1.722h2.884v1.051h-2.884v1.483
		h2.618c-0.569,1.802-1.344,3.206-2.324,4.214C66.41,229.083,67.352,229.563,68.407,229.862z M66.293,225.271h-3.136
		c0.364,0.877,0.887,1.671,1.568,2.38C65.425,226.95,65.947,226.157,66.293,225.271z"/>
	<path d="M79.915,228.519l-0.826,1.036c-1.727-1.241-3.136-2.749-4.228-4.522v5.979h-1.19v-5.95
		c-1.045,1.811-2.45,3.355-4.214,4.634l-0.854-0.952c1.997-1.362,3.551-3.052,4.662-5.068h-4.382v-1.105h4.788v-2.562h1.19v2.562
		h2.66c-0.374-0.43-0.938-0.994-1.694-1.694l0.882-0.686c0.802,0.756,1.409,1.362,1.82,1.819l-0.812,0.561h1.918v1.105h-4.424
		C76.415,225.653,77.983,227.268,79.915,228.519z"/>
	<path d="M91.354,229.807l-0.574,1.162c-2.035-0.383-3.715-1.022-5.041-1.918c-1.315,0.793-3.014,1.451-5.096,1.974l-0.546-1.162
		c1.933-0.383,3.491-0.9,4.677-1.554c-0.934-0.803-1.746-1.778-2.437-2.927h-1.134v-1.105h3.934v-1.54h-4.858v-1.12h4.858v-1.61
		h1.204v1.61h4.83v1.12h-4.83v1.54h3.542c-0.672,1.652-1.713,3.01-3.122,4.074C88.021,229.069,89.551,229.555,91.354,229.807z
		 M87.979,225.382h-4.396c0.541,0.859,1.265,1.629,2.17,2.311C86.677,227.011,87.419,226.241,87.979,225.382z"/>
	<path d="M95.65,223.227h-1.232v1.987c0.383-0.111,0.705-0.219,0.967-0.321l0.168,1.12c-0.225,0.056-0.603,0.163-1.135,0.321v3.402
		c0,0.438-0.091,0.751-0.272,0.938c-0.183,0.188-0.623,0.28-1.323,0.28c-0.279,0-0.523-0.014-0.729-0.042l-0.252-1.134
		c0.561,0.056,0.901,0.084,1.022,0.084s0.22-0.03,0.294-0.091s0.112-0.193,0.112-0.399v-2.688l-1.372,0.434l-0.294-1.12
		c0.774-0.195,1.33-0.345,1.666-0.447v-2.324h-1.4v-1.05h1.4v-2.156h1.147v2.156h1.232V223.227z M102.692,224.893h-7.153v-1.036
		h2.897v-1.344h-2.212v-1.051h2.212v-1.498h1.161v1.498h2.367v1.051h-2.367v1.344h3.095V224.893z M102.623,227.132h-1.457v2.576
		c0,0.541-0.117,0.896-0.35,1.064c-0.233,0.168-0.588,0.252-1.064,0.252c-0.476,0-0.863-0.01-1.162-0.028l-0.321-1.162
		c0.532,0.047,0.915,0.07,1.147,0.07c0.233,0,0.391-0.035,0.469-0.105c0.08-0.069,0.119-0.207,0.119-0.412v-2.255h-4.283v-1.063
		h4.283v-0.938h1.162v0.938h1.457V227.132z M98.562,228.896l-0.896,0.714c-0.504-0.606-1.008-1.129-1.512-1.568l0.882-0.699
		C97.625,227.921,98.133,228.439,98.562,228.896z"/>
</g>
<g>
	<path fill="#FFFFFF" d="M61.337,224.984c-0.598,0.168-1.064,0.304-1.4,0.406v3.374c0,0.504-0.107,0.83-0.322,0.979
		s-0.551,0.225-1.008,0.225c-0.458,0-0.803-0.01-1.036-0.028l-0.252-1.12c0.401,0.028,0.714,0.042,0.938,0.042
		s0.371-0.03,0.441-0.091c0.07-0.061,0.105-0.189,0.105-0.385v-2.646l-1.358,0.42l-0.28-1.078l1.638-0.434v-2.45h-1.4v-1.036h1.4
		v-2.198h1.134v2.198h1.218v1.036h-1.218v2.1c0.438-0.121,0.868-0.256,1.288-0.405L61.337,224.984z M68.407,228.862l-0.644,1.078
		c-1.148-0.401-2.17-0.976-3.066-1.722c-0.868,0.672-1.997,1.269-3.388,1.792l-0.728-1.064c1.288-0.392,2.38-0.915,3.276-1.568
		c-0.756-0.83-1.391-1.866-1.904-3.107h-0.42v-1.064h2.576v-1.483h-2.604v-1.051h2.604v-1.722h1.176v1.722h2.884v1.051h-2.884v1.483
		h2.618c-0.569,1.802-1.344,3.206-2.324,4.214C66.41,228.083,67.352,228.563,68.407,228.862z M66.293,224.271h-3.136
		c0.364,0.877,0.887,1.671,1.568,2.38C65.425,225.95,65.947,225.157,66.293,224.271z"/>
	<path fill="#FFFFFF" d="M79.915,227.519l-0.826,1.036c-1.727-1.241-3.136-2.749-4.228-4.522v5.979h-1.19v-5.95
		c-1.045,1.811-2.45,3.355-4.214,4.634l-0.854-0.952c1.997-1.362,3.551-3.052,4.662-5.068h-4.382v-1.105h4.788v-2.562h1.19v2.562
		h2.66c-0.374-0.43-0.938-0.994-1.694-1.694l0.882-0.686c0.802,0.756,1.409,1.362,1.82,1.819l-0.812,0.561h1.918v1.105h-4.424
		C76.415,224.653,77.983,226.268,79.915,227.519z"/>
	<path fill="#FFFFFF" d="M91.354,228.807l-0.574,1.162c-2.035-0.383-3.715-1.022-5.041-1.918c-1.315,0.793-3.014,1.451-5.096,1.974
		l-0.546-1.162c1.933-0.383,3.491-0.9,4.677-1.554c-0.934-0.803-1.746-1.778-2.437-2.927h-1.134v-1.105h3.934v-1.54h-4.858v-1.12
		h4.858v-1.61h1.204v1.61h4.83v1.12h-4.83v1.54h3.542c-0.672,1.652-1.713,3.01-3.122,4.074
		C88.021,228.069,89.551,228.555,91.354,228.807z M87.979,224.382h-4.396c0.541,0.859,1.265,1.629,2.17,2.311
		C86.677,226.011,87.419,225.241,87.979,224.382z"/>
	<path fill="#FFFFFF" d="M95.65,222.227h-1.232v1.987c0.383-0.111,0.705-0.219,0.967-0.321l0.168,1.12
		c-0.225,0.056-0.603,0.163-1.135,0.321v3.402c0,0.438-0.091,0.751-0.272,0.938c-0.183,0.188-0.623,0.28-1.323,0.28
		c-0.279,0-0.523-0.014-0.729-0.042l-0.252-1.134c0.561,0.056,0.901,0.084,1.022,0.084s0.22-0.03,0.294-0.091
		s0.112-0.193,0.112-0.399v-2.688l-1.372,0.434l-0.294-1.12c0.774-0.195,1.33-0.345,1.666-0.447v-2.324h-1.4v-1.05h1.4v-2.156h1.147
		v2.156h1.232V222.227z M102.692,223.893h-7.153v-1.036h2.897v-1.344h-2.212v-1.051h2.212v-1.498h1.161v1.498h2.367v1.051h-2.367
		v1.344h3.095V223.893z M102.623,226.132h-1.457v2.576c0,0.541-0.117,0.896-0.35,1.064c-0.233,0.168-0.588,0.252-1.064,0.252
		c-0.476,0-0.863-0.01-1.162-0.028l-0.321-1.162c0.532,0.047,0.915,0.07,1.147,0.07c0.233,0,0.391-0.035,0.469-0.105
		c0.08-0.069,0.119-0.207,0.119-0.412v-2.255h-4.283v-1.063h4.283v-0.938h1.162v0.938h1.457V226.132z M98.562,227.896l-0.896,0.714
		c-0.504-0.606-1.008-1.129-1.512-1.568l0.882-0.699C97.625,226.921,98.133,227.439,98.562,227.896z"/>
</g>
<g fill-opacity="0.5">
	<path d="M63.787,188.994c0,0.271-0.089,0.49-0.266,0.658c-0.178,0.168-0.406,0.252-0.686,0.252c-0.252,0-0.464-0.086-0.637-0.259
		s-0.259-0.39-0.259-0.651c0-0.261,0.088-0.476,0.266-0.644c0.177-0.169,0.397-0.253,0.658-0.253s0.48,0.084,0.658,0.253
		C63.698,188.519,63.787,188.733,63.787,188.994z M63.619,197.828h-1.512v-6.804h1.512V197.828z"/>
	<path d="M71.431,189.666h-2.716v8.162h-1.512v-8.162h-2.688v-1.273h6.916V189.666z"/>
	<path d="M77.661,197.828h-1.33l-0.084-1.036h-0.028c-0.476,0.794-1.195,1.19-2.156,1.19c-0.672,0-1.208-0.21-1.61-0.63
		c-0.476-0.514-0.714-1.288-0.714-2.324v-4.004h1.512v3.752c0,1.307,0.448,1.96,1.344,1.96c0.672,0,1.139-0.327,1.4-0.98
		c0.065-0.168,0.098-0.359,0.098-0.574v-4.157h1.512v4.844C77.605,196.512,77.624,197.166,77.661,197.828z"/>
	<path d="M85.432,197.828h-1.513v-3.906c0-1.204-0.457-1.806-1.372-1.806c-0.447,0-0.812,0.166-1.092,0.497
		c-0.279,0.331-0.42,0.721-0.42,1.169v4.046h-1.512v-4.858c0-0.597-0.019-1.245-0.056-1.945h1.33l0.07,1.05h0.042
		c0.177-0.327,0.438-0.598,0.784-0.812c0.41-0.252,0.867-0.378,1.371-0.378c0.635,0,1.162,0.206,1.582,0.616
		c0.523,0.504,0.785,1.256,0.785,2.254V197.828z"/>
	<path d="M92.893,194.104c0,0.271-0.018,0.499-0.055,0.686h-4.537c0.02,0.672,0.238,1.186,0.658,1.54
		c0.383,0.317,0.877,0.476,1.484,0.476c0.672,0,1.283-0.106,1.834-0.321l0.238,1.05c-0.645,0.28-1.405,0.42-2.282,0.42
		c-1.055,0-1.884-0.311-2.485-0.931c-0.602-0.621-0.902-1.454-0.902-2.499c0-1.027,0.279-1.881,0.84-2.562
		c0.588-0.728,1.381-1.092,2.38-1.092c0.979,0,1.722,0.364,2.226,1.092C92.692,192.541,92.893,193.255,92.893,194.104z
		 M91.451,193.712c0.01-0.448-0.089-0.835-0.294-1.162c-0.261-0.42-0.663-0.63-1.204-0.63c-0.494,0-0.896,0.206-1.203,0.616
		c-0.253,0.327-0.402,0.719-0.449,1.176H91.451z"/>
	<path d="M98.381,195.868c0,0.635-0.233,1.144-0.699,1.526c-0.467,0.383-1.111,0.573-1.933,0.573c-0.774,0-1.433-0.153-1.974-0.462
		l0.322-1.12c0.521,0.317,1.077,0.477,1.666,0.477c0.773,0,1.161-0.285,1.161-0.854c0-0.252-0.084-0.459-0.252-0.623
		c-0.168-0.163-0.467-0.324-0.896-0.482c-1.214-0.448-1.82-1.102-1.82-1.96c0-0.588,0.225-1.078,0.672-1.471
		c0.448-0.392,1.041-0.588,1.778-0.588c0.672,0,1.245,0.136,1.722,0.406l-0.322,1.078c-0.438-0.261-0.9-0.392-1.386-0.392
		c-0.317,0-0.565,0.074-0.741,0.224c-0.178,0.149-0.267,0.341-0.267,0.574s0.093,0.425,0.28,0.573
		c0.158,0.141,0.467,0.295,0.924,0.463C97.793,194.258,98.381,194.944,98.381,195.868z"/>
</g>
<g fill-opacity="0.17">
	<path d="M63.787,190.994c0,0.271-0.089,0.49-0.266,0.658c-0.178,0.168-0.406,0.252-0.686,0.252c-0.252,0-0.464-0.086-0.637-0.259
		s-0.259-0.39-0.259-0.651c0-0.261,0.088-0.476,0.266-0.644c0.177-0.169,0.397-0.253,0.658-0.253s0.48,0.084,0.658,0.253
		C63.698,190.519,63.787,190.733,63.787,190.994z M63.619,199.828h-1.512v-6.804h1.512V199.828z"/>
	<path d="M71.431,191.666h-2.716v8.162h-1.512v-8.162h-2.688v-1.273h6.916V191.666z"/>
	<path d="M77.661,199.828h-1.33l-0.084-1.036h-0.028c-0.476,0.794-1.195,1.19-2.156,1.19c-0.672,0-1.208-0.21-1.61-0.63
		c-0.476-0.514-0.714-1.288-0.714-2.324v-4.004h1.512v3.752c0,1.307,0.448,1.96,1.344,1.96c0.672,0,1.139-0.327,1.4-0.98
		c0.065-0.168,0.098-0.359,0.098-0.574v-4.157h1.512v4.844C77.605,198.512,77.624,199.166,77.661,199.828z"/>
	<path d="M85.432,199.828h-1.513v-3.906c0-1.204-0.457-1.806-1.372-1.806c-0.447,0-0.812,0.166-1.092,0.497
		c-0.279,0.331-0.42,0.721-0.42,1.169v4.046h-1.512v-4.858c0-0.597-0.019-1.245-0.056-1.945h1.33l0.07,1.05h0.042
		c0.177-0.327,0.438-0.598,0.784-0.812c0.41-0.252,0.867-0.378,1.371-0.378c0.635,0,1.162,0.206,1.582,0.616
		c0.523,0.504,0.785,1.256,0.785,2.254V199.828z"/>
	<path d="M92.893,196.104c0,0.271-0.018,0.499-0.055,0.686h-4.537c0.02,0.672,0.238,1.186,0.658,1.54
		c0.383,0.317,0.877,0.476,1.484,0.476c0.672,0,1.283-0.106,1.834-0.321l0.238,1.05c-0.645,0.28-1.405,0.42-2.282,0.42
		c-1.055,0-1.884-0.311-2.485-0.931c-0.602-0.621-0.902-1.454-0.902-2.499c0-1.027,0.279-1.881,0.84-2.562
		c0.588-0.728,1.381-1.092,2.38-1.092c0.979,0,1.722,0.364,2.226,1.092C92.692,194.541,92.893,195.255,92.893,196.104z
		 M91.451,195.712c0.01-0.448-0.089-0.835-0.294-1.162c-0.261-0.42-0.663-0.63-1.204-0.63c-0.494,0-0.896,0.206-1.203,0.616
		c-0.253,0.327-0.402,0.719-0.449,1.176H91.451z"/>
	<path d="M98.381,197.868c0,0.635-0.233,1.144-0.699,1.526c-0.467,0.383-1.111,0.573-1.933,0.573c-0.774,0-1.433-0.153-1.974-0.462
		l0.322-1.12c0.521,0.317,1.077,0.477,1.666,0.477c0.773,0,1.161-0.285,1.161-0.854c0-0.252-0.084-0.459-0.252-0.623
		c-0.168-0.163-0.467-0.324-0.896-0.482c-1.214-0.448-1.82-1.102-1.82-1.96c0-0.588,0.225-1.078,0.672-1.471
		c0.448-0.392,1.041-0.588,1.778-0.588c0.672,0,1.245,0.136,1.722,0.406l-0.322,1.078c-0.438-0.261-0.9-0.392-1.386-0.392
		c-0.317,0-0.565,0.074-0.741,0.224c-0.178,0.149-0.267,0.341-0.267,0.574s0.093,0.425,0.28,0.573
		c0.158,0.141,0.467,0.295,0.924,0.463C97.793,196.258,98.381,196.944,98.381,197.868z"/>
</g>
<g>
	<path fill="#FFFFFF" d="M63.787,189.994c0,0.271-0.089,0.49-0.266,0.658c-0.178,0.168-0.406,0.252-0.686,0.252
		c-0.252,0-0.464-0.086-0.637-0.259s-0.259-0.39-0.259-0.651c0-0.261,0.088-0.476,0.266-0.644c0.177-0.169,0.397-0.253,0.658-0.253
		s0.48,0.084,0.658,0.253C63.698,189.519,63.787,189.733,63.787,189.994z M63.619,198.828h-1.512v-6.804h1.512V198.828z"/>
	<path fill="#FFFFFF" d="M71.431,190.666h-2.716v8.162h-1.512v-8.162h-2.688v-1.273h6.916V190.666z"/>
	<path fill="#FFFFFF" d="M77.661,198.828h-1.33l-0.084-1.036h-0.028c-0.476,0.794-1.195,1.19-2.156,1.19
		c-0.672,0-1.208-0.21-1.61-0.63c-0.476-0.514-0.714-1.288-0.714-2.324v-4.004h1.512v3.752c0,1.307,0.448,1.96,1.344,1.96
		c0.672,0,1.139-0.327,1.4-0.98c0.065-0.168,0.098-0.359,0.098-0.574v-4.157h1.512v4.844
		C77.605,197.512,77.624,198.166,77.661,198.828z"/>
	<path fill="#FFFFFF" d="M85.432,198.828h-1.513v-3.906c0-1.204-0.457-1.806-1.372-1.806c-0.447,0-0.812,0.166-1.092,0.497
		c-0.279,0.331-0.42,0.721-0.42,1.169v4.046h-1.512v-4.858c0-0.597-0.019-1.245-0.056-1.945h1.33l0.07,1.05h0.042
		c0.177-0.327,0.438-0.598,0.784-0.812c0.41-0.252,0.867-0.378,1.371-0.378c0.635,0,1.162,0.206,1.582,0.616
		c0.523,0.504,0.785,1.256,0.785,2.254V198.828z"/>
	<path fill="#FFFFFF" d="M92.893,195.104c0,0.271-0.018,0.499-0.055,0.686h-4.537c0.02,0.672,0.238,1.186,0.658,1.54
		c0.383,0.317,0.877,0.476,1.484,0.476c0.672,0,1.283-0.106,1.834-0.321l0.238,1.05c-0.645,0.28-1.405,0.42-2.282,0.42
		c-1.055,0-1.884-0.311-2.485-0.931c-0.602-0.621-0.902-1.454-0.902-2.499c0-1.027,0.279-1.881,0.84-2.562
		c0.588-0.728,1.381-1.092,2.38-1.092c0.979,0,1.722,0.364,2.226,1.092C92.692,193.541,92.893,194.255,92.893,195.104z
		 M91.451,194.712c0.01-0.448-0.089-0.835-0.294-1.162c-0.261-0.42-0.663-0.63-1.204-0.63c-0.494,0-0.896,0.206-1.203,0.616
		c-0.253,0.327-0.402,0.719-0.449,1.176H91.451z"/>
	<path fill="#FFFFFF" d="M98.381,196.868c0,0.635-0.233,1.144-0.699,1.526c-0.467,0.383-1.111,0.573-1.933,0.573
		c-0.774,0-1.433-0.153-1.974-0.462l0.322-1.12c0.521,0.317,1.077,0.477,1.666,0.477c0.773,0,1.161-0.285,1.161-0.854
		c0-0.252-0.084-0.459-0.252-0.623c-0.168-0.163-0.467-0.324-0.896-0.482c-1.214-0.448-1.82-1.102-1.82-1.96
		c0-0.588,0.225-1.078,0.672-1.471c0.448-0.392,1.041-0.588,1.778-0.588c0.672,0,1.245,0.136,1.722,0.406l-0.322,1.078
		c-0.438-0.261-0.9-0.392-1.386-0.392c-0.317,0-0.565,0.074-0.741,0.224c-0.178,0.149-0.267,0.341-0.267,0.574
		s0.093,0.425,0.28,0.573c0.158,0.141,0.467,0.295,0.924,0.463C97.793,195.258,98.381,195.944,98.381,196.868z"/>
</g>
<g fill-opacity="0.5">
	<path d="M69.987,159.206c0,0.271-0.089,0.49-0.266,0.658c-0.178,0.168-0.406,0.252-0.686,0.252c-0.252,0-0.464-0.086-0.637-0.259
		s-0.259-0.39-0.259-0.651c0-0.261,0.088-0.476,0.266-0.644c0.177-0.169,0.397-0.253,0.658-0.253s0.48,0.084,0.658,0.253
		C69.898,158.73,69.987,158.945,69.987,159.206z M69.819,168.04h-1.512v-6.804h1.512V168.04z"/>
	<path d="M77.87,161.348c0,0.868-0.256,1.563-0.768,2.086c-0.661,0.682-1.624,1.022-2.889,1.022c-0.372,0-0.661-0.023-0.865-0.07
		v3.654h-1.512v-9.31c0.719-0.131,1.54-0.196,2.464-0.196c1.194,0,2.095,0.257,2.702,0.77
		C77.58,159.808,77.87,160.489,77.87,161.348z M76.372,161.418c0-0.551-0.176-0.973-0.529-1.267
		c-0.354-0.294-0.846-0.441-1.478-0.441c-0.418,0-0.757,0.028-1.017,0.084v3.388c0.213,0.057,0.506,0.084,0.878,0.084
		c0.669,0,1.194-0.163,1.575-0.489C76.181,162.449,76.372,161.997,76.372,161.418z"/>
	<path d="M84.029,168.04h-1.357l-0.113-0.784h-0.041c-0.467,0.626-1.13,0.938-1.988,0.938c-0.644,0-1.162-0.205-1.554-0.616
		c-0.354-0.373-0.532-0.835-0.532-1.386c0-0.831,0.348-1.466,1.043-1.904s1.673-0.653,2.934-0.645v-0.126
		c0-0.896-0.473-1.344-1.414-1.344c-0.672,0-1.266,0.168-1.779,0.504l-0.308-0.994c0.634-0.392,1.414-0.588,2.338-0.588
		c1.782,0,2.674,0.938,2.674,2.814v2.506C83.932,167.098,83.964,167.639,84.029,168.04z M82.461,165.702v-1.05
		c-1.67-0.028-2.506,0.429-2.506,1.372c0,0.354,0.098,0.62,0.292,0.798c0.195,0.177,0.441,0.266,0.739,0.266
		c0.334,0,0.643-0.104,0.925-0.314c0.283-0.21,0.457-0.479,0.522-0.806C82.451,165.894,82.461,165.805,82.461,165.702z"/>
	<path d="M91.842,168.04h-1.344l-0.07-1.092h-0.042c-0.43,0.831-1.157,1.246-2.185,1.246c-0.82,0-1.502-0.322-2.043-0.966
		c-0.542-0.645-0.812-1.479-0.812-2.507c0-1.101,0.295-1.992,0.887-2.674c0.572-0.635,1.277-0.952,2.112-0.952
		c0.92,0,1.562,0.309,1.929,0.925v-3.906h1.512v8.092C91.785,166.869,91.805,167.48,91.842,168.04z M90.273,165.17v-1.134
		c0-0.196-0.014-0.354-0.042-0.477c-0.085-0.363-0.267-0.669-0.548-0.917c-0.281-0.247-0.619-0.37-1.013-0.37
		c-0.562,0-1.005,0.224-1.328,0.672c-0.323,0.447-0.485,1.021-0.485,1.722c0,0.672,0.154,1.218,0.465,1.638
		c0.327,0.448,0.768,0.672,1.32,0.672c0.497,0,0.895-0.187,1.195-0.56C90.129,166.071,90.273,165.655,90.273,165.17z"/>
</g>
<g fill-opacity="0.17">
	<path d="M69.987,161.206c0,0.271-0.089,0.49-0.266,0.658c-0.178,0.168-0.406,0.252-0.686,0.252c-0.252,0-0.464-0.086-0.637-0.259
		s-0.259-0.39-0.259-0.651c0-0.261,0.088-0.476,0.266-0.644c0.177-0.169,0.397-0.253,0.658-0.253s0.48,0.084,0.658,0.253
		C69.898,160.73,69.987,160.945,69.987,161.206z M69.819,170.04h-1.512v-6.804h1.512V170.04z"/>
	<path d="M77.87,163.348c0,0.868-0.256,1.563-0.768,2.086c-0.661,0.682-1.624,1.022-2.889,1.022c-0.372,0-0.661-0.023-0.865-0.07
		v3.654h-1.512v-9.31c0.719-0.131,1.54-0.196,2.464-0.196c1.194,0,2.095,0.257,2.702,0.77
		C77.58,161.808,77.87,162.489,77.87,163.348z M76.372,163.418c0-0.551-0.176-0.973-0.529-1.267
		c-0.354-0.294-0.846-0.441-1.478-0.441c-0.418,0-0.757,0.028-1.017,0.084v3.388c0.213,0.057,0.506,0.084,0.878,0.084
		c0.669,0,1.194-0.163,1.575-0.489C76.181,164.449,76.372,163.997,76.372,163.418z"/>
	<path d="M84.029,170.04h-1.357l-0.113-0.784h-0.041c-0.467,0.626-1.13,0.938-1.988,0.938c-0.644,0-1.162-0.205-1.554-0.616
		c-0.354-0.373-0.532-0.835-0.532-1.386c0-0.831,0.348-1.466,1.043-1.904s1.673-0.653,2.934-0.645v-0.126
		c0-0.896-0.473-1.344-1.414-1.344c-0.672,0-1.266,0.168-1.779,0.504l-0.308-0.994c0.634-0.392,1.414-0.588,2.338-0.588
		c1.782,0,2.674,0.938,2.674,2.814v2.506C83.932,169.098,83.964,169.639,84.029,170.04z M82.461,167.702v-1.05
		c-1.67-0.028-2.506,0.429-2.506,1.372c0,0.354,0.098,0.62,0.292,0.798c0.195,0.177,0.441,0.266,0.739,0.266
		c0.334,0,0.643-0.104,0.925-0.314c0.283-0.21,0.457-0.479,0.522-0.806C82.451,167.894,82.461,167.805,82.461,167.702z"/>
	<path d="M91.842,170.04h-1.344l-0.07-1.092h-0.042c-0.43,0.831-1.157,1.246-2.185,1.246c-0.82,0-1.502-0.322-2.043-0.966
		c-0.542-0.645-0.812-1.479-0.812-2.507c0-1.101,0.295-1.992,0.887-2.674c0.572-0.635,1.277-0.952,2.112-0.952
		c0.92,0,1.562,0.309,1.929,0.925v-3.906h1.512v8.092C91.785,168.869,91.805,169.48,91.842,170.04z M90.273,167.17v-1.134
		c0-0.196-0.014-0.354-0.042-0.477c-0.085-0.363-0.267-0.669-0.548-0.917c-0.281-0.247-0.619-0.37-1.013-0.37
		c-0.562,0-1.005,0.224-1.328,0.672c-0.323,0.447-0.485,1.021-0.485,1.722c0,0.672,0.154,1.218,0.465,1.638
		c0.327,0.448,0.768,0.672,1.32,0.672c0.497,0,0.895-0.187,1.195-0.56C90.129,168.071,90.273,167.655,90.273,167.17z"/>
</g>
<g>
	<path fill="#FFFFFF" d="M69.987,160.206c0,0.271-0.089,0.49-0.266,0.658c-0.178,0.168-0.406,0.252-0.686,0.252
		c-0.252,0-0.464-0.086-0.637-0.259s-0.259-0.39-0.259-0.651c0-0.261,0.088-0.476,0.266-0.644c0.177-0.169,0.397-0.253,0.658-0.253
		s0.48,0.084,0.658,0.253C69.898,159.73,69.987,159.945,69.987,160.206z M69.819,169.04h-1.512v-6.804h1.512V169.04z"/>
	<path fill="#FFFFFF" d="M77.87,162.348c0,0.868-0.256,1.563-0.768,2.086c-0.661,0.682-1.624,1.022-2.889,1.022
		c-0.372,0-0.661-0.023-0.865-0.07v3.654h-1.512v-9.31c0.719-0.131,1.54-0.196,2.464-0.196c1.194,0,2.095,0.257,2.702,0.77
		C77.58,160.808,77.87,161.489,77.87,162.348z M76.372,162.418c0-0.551-0.176-0.973-0.529-1.267
		c-0.354-0.294-0.846-0.441-1.478-0.441c-0.418,0-0.757,0.028-1.017,0.084v3.388c0.213,0.057,0.506,0.084,0.878,0.084
		c0.669,0,1.194-0.163,1.575-0.489C76.181,163.449,76.372,162.997,76.372,162.418z"/>
	<path fill="#FFFFFF" d="M84.029,169.04h-1.357l-0.113-0.784h-0.041c-0.467,0.626-1.13,0.938-1.988,0.938
		c-0.644,0-1.162-0.205-1.554-0.616c-0.354-0.373-0.532-0.835-0.532-1.386c0-0.831,0.348-1.466,1.043-1.904s1.673-0.653,2.934-0.645
		v-0.126c0-0.896-0.473-1.344-1.414-1.344c-0.672,0-1.266,0.168-1.779,0.504l-0.308-0.994c0.634-0.392,1.414-0.588,2.338-0.588
		c1.782,0,2.674,0.938,2.674,2.814v2.506C83.932,168.098,83.964,168.639,84.029,169.04z M82.461,166.702v-1.05
		c-1.67-0.028-2.506,0.429-2.506,1.372c0,0.354,0.098,0.62,0.292,0.798c0.195,0.177,0.441,0.266,0.739,0.266
		c0.334,0,0.643-0.104,0.925-0.314c0.283-0.21,0.457-0.479,0.522-0.806C82.451,166.894,82.461,166.805,82.461,166.702z"/>
	<path fill="#FFFFFF" d="M91.842,169.04h-1.344l-0.07-1.092h-0.042c-0.43,0.831-1.157,1.246-2.185,1.246
		c-0.82,0-1.502-0.322-2.043-0.966c-0.542-0.645-0.812-1.479-0.812-2.507c0-1.101,0.295-1.992,0.887-2.674
		c0.572-0.635,1.277-0.952,2.112-0.952c0.92,0,1.562,0.309,1.929,0.925v-3.906h1.512v8.092
		C91.785,167.869,91.805,168.48,91.842,169.04z M90.273,166.17v-1.134c0-0.196-0.014-0.354-0.042-0.477
		c-0.085-0.363-0.267-0.669-0.548-0.917c-0.281-0.247-0.619-0.37-1.013-0.37c-0.562,0-1.005,0.224-1.328,0.672
		c-0.323,0.447-0.485,1.021-0.485,1.722c0,0.672,0.154,1.218,0.465,1.638c0.327,0.448,0.768,0.672,1.32,0.672
		c0.497,0,0.895-0.187,1.195-0.56C90.129,167.071,90.273,166.655,90.273,166.17z"/>
</g>
<g fill-opacity="0.5">
	<path d="M62.03,129.008c0,0.271-0.089,0.49-0.266,0.658c-0.178,0.168-0.406,0.252-0.686,0.252c-0.252,0-0.464-0.086-0.637-0.259
		s-0.259-0.39-0.259-0.651c0-0.261,0.088-0.476,0.266-0.644c0.177-0.169,0.397-0.253,0.658-0.253s0.48,0.084,0.658,0.253
		C61.941,128.532,62.03,128.747,62.03,129.008z M61.862,137.842H60.35v-6.804h1.512V137.842z"/>
	<path d="M69.912,131.149c0,0.868-0.256,1.563-0.768,2.086c-0.661,0.682-1.624,1.022-2.889,1.022c-0.372,0-0.661-0.023-0.865-0.07
		v3.654h-1.512v-9.31c0.719-0.131,1.54-0.196,2.464-0.196c1.194,0,2.095,0.257,2.702,0.77
		C69.623,129.609,69.912,130.291,69.912,131.149z M68.414,131.22c0-0.551-0.176-0.973-0.529-1.267
		c-0.354-0.294-0.846-0.441-1.478-0.441c-0.418,0-0.757,0.028-1.017,0.084v3.388c0.213,0.057,0.506,0.084,0.878,0.084
		c0.669,0,1.194-0.163,1.575-0.489C68.224,132.251,68.414,131.799,68.414,131.22z"/>
	<path d="M77.234,137.842h-1.512v-3.878c0-1.223-0.458-1.834-1.372-1.834c-0.7,0-1.181,0.354-1.442,1.063
		c-0.047,0.149-0.07,0.332-0.07,0.547v4.102h-1.512v-9.926h1.512v4.088h0.028c0.476-0.737,1.157-1.106,2.044-1.106
		c0.625,0,1.143,0.206,1.554,0.616c0.513,0.514,0.77,1.274,0.77,2.282V137.842z"/>
	<path d="M85.326,134.384c0,1.046-0.299,1.904-0.896,2.576c-0.625,0.69-1.455,1.036-2.492,1.036c-0.998,0-1.794-0.331-2.386-0.994
		c-0.593-0.663-0.889-1.498-0.889-2.506c0-1.055,0.306-1.918,0.917-2.59c0.611-0.673,1.435-1.009,2.472-1.009
		c0.998,0,1.801,0.332,2.407,0.994C85.037,132.536,85.326,133.366,85.326,134.384z M83.758,134.419c0-0.624-0.135-1.158-0.406-1.605
		c-0.316-0.54-0.77-0.81-1.357-0.81c-0.607,0-1.068,0.27-1.386,0.81c-0.271,0.447-0.406,0.991-0.406,1.634
		c0,0.623,0.135,1.158,0.406,1.604c0.326,0.54,0.784,0.81,1.372,0.81c0.578,0,1.031-0.274,1.357-0.823
		C83.618,135.582,83.758,135.042,83.758,134.419z"/>
	<path d="M92.69,137.842h-1.513v-3.906c0-1.204-0.457-1.806-1.371-1.806c-0.448,0-0.812,0.166-1.092,0.497
		c-0.28,0.331-0.42,0.721-0.42,1.169v4.046h-1.513v-4.858c0-0.597-0.019-1.245-0.056-1.945h1.33l0.07,1.05h0.041
		c0.178-0.327,0.439-0.598,0.785-0.812c0.41-0.252,0.867-0.378,1.371-0.378c0.635,0,1.162,0.206,1.582,0.616
		c0.523,0.504,0.784,1.256,0.784,2.254V137.842z"/>
	<path d="M100.152,134.118c0,0.271-0.019,0.499-0.056,0.686h-4.536c0.019,0.672,0.238,1.186,0.658,1.54
		c0.383,0.317,0.877,0.476,1.484,0.476c0.672,0,1.283-0.106,1.834-0.321l0.237,1.05c-0.644,0.28-1.405,0.42-2.282,0.42
		c-1.055,0-1.883-0.311-2.484-0.931c-0.602-0.621-0.903-1.454-0.903-2.499c0-1.027,0.28-1.881,0.841-2.562
		c0.588-0.728,1.381-1.092,2.379-1.092c0.98,0,1.723,0.364,2.227,1.092C99.951,132.555,100.152,133.269,100.152,134.118z
		 M98.711,133.726c0.009-0.448-0.09-0.835-0.295-1.162c-0.261-0.42-0.662-0.63-1.203-0.63c-0.495,0-0.896,0.206-1.204,0.616
		c-0.253,0.327-0.401,0.719-0.448,1.176H98.711z"/>
</g>
<g fill-opacity="0.17">
	<path d="M62.03,131.008c0,0.271-0.089,0.49-0.266,0.658c-0.178,0.168-0.406,0.252-0.686,0.252c-0.252,0-0.464-0.086-0.637-0.259
		s-0.259-0.39-0.259-0.651c0-0.261,0.088-0.476,0.266-0.644c0.177-0.169,0.397-0.253,0.658-0.253s0.48,0.084,0.658,0.253
		C61.941,130.532,62.03,130.747,62.03,131.008z M61.862,139.842H60.35v-6.804h1.512V139.842z"/>
	<path d="M69.912,133.149c0,0.868-0.256,1.563-0.768,2.086c-0.661,0.682-1.624,1.022-2.889,1.022c-0.372,0-0.661-0.023-0.865-0.07
		v3.654h-1.512v-9.31c0.719-0.131,1.54-0.196,2.464-0.196c1.194,0,2.095,0.257,2.702,0.77
		C69.623,131.609,69.912,132.291,69.912,133.149z M68.414,133.22c0-0.551-0.176-0.973-0.529-1.267
		c-0.354-0.294-0.846-0.441-1.478-0.441c-0.418,0-0.757,0.028-1.017,0.084v3.388c0.213,0.057,0.506,0.084,0.878,0.084
		c0.669,0,1.194-0.163,1.575-0.489C68.224,134.251,68.414,133.799,68.414,133.22z"/>
	<path d="M77.234,139.842h-1.512v-3.878c0-1.223-0.458-1.834-1.372-1.834c-0.7,0-1.181,0.354-1.442,1.063
		c-0.047,0.149-0.07,0.332-0.07,0.547v4.102h-1.512v-9.926h1.512v4.088h0.028c0.476-0.737,1.157-1.106,2.044-1.106
		c0.625,0,1.143,0.206,1.554,0.616c0.513,0.514,0.77,1.274,0.77,2.282V139.842z"/>
	<path d="M85.326,136.384c0,1.046-0.299,1.904-0.896,2.576c-0.625,0.69-1.455,1.036-2.492,1.036c-0.998,0-1.794-0.331-2.386-0.994
		c-0.593-0.663-0.889-1.498-0.889-2.506c0-1.055,0.306-1.918,0.917-2.59c0.611-0.673,1.435-1.009,2.472-1.009
		c0.998,0,1.801,0.332,2.407,0.994C85.037,134.536,85.326,135.366,85.326,136.384z M83.758,136.419c0-0.624-0.135-1.158-0.406-1.605
		c-0.316-0.54-0.77-0.81-1.357-0.81c-0.607,0-1.068,0.27-1.386,0.81c-0.271,0.447-0.406,0.991-0.406,1.634
		c0,0.623,0.135,1.158,0.406,1.604c0.326,0.54,0.784,0.81,1.372,0.81c0.578,0,1.031-0.274,1.357-0.823
		C83.618,137.582,83.758,137.042,83.758,136.419z"/>
	<path d="M92.69,139.842h-1.513v-3.906c0-1.204-0.457-1.806-1.371-1.806c-0.448,0-0.812,0.166-1.092,0.497
		c-0.28,0.331-0.42,0.721-0.42,1.169v4.046h-1.513v-4.858c0-0.597-0.019-1.245-0.056-1.945h1.33l0.07,1.05h0.041
		c0.178-0.327,0.439-0.598,0.785-0.812c0.41-0.252,0.867-0.378,1.371-0.378c0.635,0,1.162,0.206,1.582,0.616
		c0.523,0.504,0.784,1.256,0.784,2.254V139.842z"/>
	<path d="M100.152,136.118c0,0.271-0.019,0.499-0.056,0.686h-4.536c0.019,0.672,0.238,1.186,0.658,1.54
		c0.383,0.317,0.877,0.476,1.484,0.476c0.672,0,1.283-0.106,1.834-0.321l0.237,1.05c-0.644,0.28-1.405,0.42-2.282,0.42
		c-1.055,0-1.883-0.311-2.484-0.931c-0.602-0.621-0.903-1.454-0.903-2.499c0-1.027,0.28-1.881,0.841-2.562
		c0.588-0.728,1.381-1.092,2.379-1.092c0.98,0,1.723,0.364,2.227,1.092C99.951,134.555,100.152,135.269,100.152,136.118z
		 M98.711,135.726c0.009-0.448-0.09-0.835-0.295-1.162c-0.261-0.42-0.662-0.63-1.203-0.63c-0.495,0-0.896,0.206-1.204,0.616
		c-0.253,0.327-0.401,0.719-0.448,1.176H98.711z"/>
</g>
<g>
	<path fill="#FFFFFF" d="M62.03,130.008c0,0.271-0.089,0.49-0.266,0.658c-0.178,0.168-0.406,0.252-0.686,0.252
		c-0.252,0-0.464-0.086-0.637-0.259s-0.259-0.39-0.259-0.651c0-0.261,0.088-0.476,0.266-0.644c0.177-0.169,0.397-0.253,0.658-0.253
		s0.48,0.084,0.658,0.253C61.941,129.532,62.03,129.747,62.03,130.008z M61.862,138.842H60.35v-6.804h1.512V138.842z"/>
	<path fill="#FFFFFF" d="M69.912,132.149c0,0.868-0.256,1.563-0.768,2.086c-0.661,0.682-1.624,1.022-2.889,1.022
		c-0.372,0-0.661-0.023-0.865-0.07v3.654h-1.512v-9.31c0.719-0.131,1.54-0.196,2.464-0.196c1.194,0,2.095,0.257,2.702,0.77
		C69.623,130.609,69.912,131.291,69.912,132.149z M68.414,132.22c0-0.551-0.176-0.973-0.529-1.267
		c-0.354-0.294-0.846-0.441-1.478-0.441c-0.418,0-0.757,0.028-1.017,0.084v3.388c0.213,0.057,0.506,0.084,0.878,0.084
		c0.669,0,1.194-0.163,1.575-0.489C68.224,133.251,68.414,132.799,68.414,132.22z"/>
	<path fill="#FFFFFF" d="M77.234,138.842h-1.512v-3.878c0-1.223-0.458-1.834-1.372-1.834c-0.7,0-1.181,0.354-1.442,1.063
		c-0.047,0.149-0.07,0.332-0.07,0.547v4.102h-1.512v-9.926h1.512v4.088h0.028c0.476-0.737,1.157-1.106,2.044-1.106
		c0.625,0,1.143,0.206,1.554,0.616c0.513,0.514,0.77,1.274,0.77,2.282V138.842z"/>
	<path fill="#FFFFFF" d="M85.326,135.384c0,1.046-0.299,1.904-0.896,2.576c-0.625,0.69-1.455,1.036-2.492,1.036
		c-0.998,0-1.794-0.331-2.386-0.994c-0.593-0.663-0.889-1.498-0.889-2.506c0-1.055,0.306-1.918,0.917-2.59
		c0.611-0.673,1.435-1.009,2.472-1.009c0.998,0,1.801,0.332,2.407,0.994C85.037,133.536,85.326,134.366,85.326,135.384z
		 M83.758,135.419c0-0.624-0.135-1.158-0.406-1.605c-0.316-0.54-0.77-0.81-1.357-0.81c-0.607,0-1.068,0.27-1.386,0.81
		c-0.271,0.447-0.406,0.991-0.406,1.634c0,0.623,0.135,1.158,0.406,1.604c0.326,0.54,0.784,0.81,1.372,0.81
		c0.578,0,1.031-0.274,1.357-0.823C83.618,136.582,83.758,136.042,83.758,135.419z"/>
	<path fill="#FFFFFF" d="M92.69,138.842h-1.513v-3.906c0-1.204-0.457-1.806-1.371-1.806c-0.448,0-0.812,0.166-1.092,0.497
		c-0.28,0.331-0.42,0.721-0.42,1.169v4.046h-1.513v-4.858c0-0.597-0.019-1.245-0.056-1.945h1.33l0.07,1.05h0.041
		c0.178-0.327,0.439-0.598,0.785-0.812c0.41-0.252,0.867-0.378,1.371-0.378c0.635,0,1.162,0.206,1.582,0.616
		c0.523,0.504,0.784,1.256,0.784,2.254V138.842z"/>
	<path fill="#FFFFFF" d="M100.152,135.118c0,0.271-0.019,0.499-0.056,0.686h-4.536c0.019,0.672,0.238,1.186,0.658,1.54
		c0.383,0.317,0.877,0.476,1.484,0.476c0.672,0,1.283-0.106,1.834-0.321l0.237,1.05c-0.644,0.28-1.405,0.42-2.282,0.42
		c-1.055,0-1.883-0.311-2.484-0.931c-0.602-0.621-0.903-1.454-0.903-2.499c0-1.027,0.28-1.881,0.841-2.562
		c0.588-0.728,1.381-1.092,2.379-1.092c0.98,0,1.723,0.364,2.227,1.092C99.951,133.555,100.152,134.269,100.152,135.118z
		 M98.711,134.726c0.009-0.448-0.09-0.835-0.295-1.162c-0.261-0.42-0.662-0.63-1.203-0.63c-0.495,0-0.896,0.206-1.204,0.616
		c-0.253,0.327-0.401,0.719-0.448,1.176H98.711z"/>
</g>
<g fill-opacity="0.5">
	<path d="M69.597,98.983c0,0.271-0.089,0.49-0.266,0.658c-0.178,0.168-0.406,0.252-0.686,0.252c-0.252,0-0.464-0.086-0.637-0.259
		s-0.259-0.39-0.259-0.651c0-0.261,0.088-0.476,0.266-0.644c0.177-0.169,0.397-0.253,0.658-0.253s0.48,0.084,0.658,0.253
		C69.508,98.508,69.597,98.723,69.597,98.983z M69.429,107.817h-1.512v-6.804h1.512V107.817z"/>
	<path d="M77.479,101.125c0,0.868-0.256,1.563-0.768,2.086c-0.661,0.682-1.624,1.022-2.889,1.022c-0.372,0-0.661-0.023-0.865-0.07
		v3.654h-1.512v-9.31c0.719-0.131,1.54-0.196,2.464-0.196c1.194,0,2.095,0.257,2.702,0.77
		C77.19,99.585,77.479,100.267,77.479,101.125z M75.981,101.195c0-0.551-0.176-0.973-0.529-1.267
		c-0.354-0.294-0.846-0.441-1.478-0.441c-0.418,0-0.757,0.028-1.017,0.084v3.388c0.213,0.057,0.506,0.084,0.878,0.084
		c0.669,0,1.194-0.163,1.575-0.489C75.791,102.227,75.981,101.774,75.981,101.195z"/>
	<path d="M84.633,104.359c0,1.046-0.299,1.904-0.896,2.576c-0.626,0.69-1.456,1.036-2.492,1.036c-0.999,0-1.794-0.331-2.387-0.994
		c-0.593-0.663-0.889-1.498-0.889-2.506c0-1.055,0.306-1.918,0.917-2.59c0.611-0.673,1.435-1.009,2.471-1.009
		c0.998,0,1.801,0.332,2.408,0.994C84.344,102.512,84.633,103.342,84.633,104.359z M83.065,104.395c0-0.624-0.136-1.158-0.406-1.605
		c-0.317-0.54-0.771-0.81-1.358-0.81c-0.606,0-1.068,0.27-1.385,0.81c-0.271,0.447-0.406,0.991-0.406,1.634
		c0,0.623,0.135,1.158,0.406,1.604c0.326,0.54,0.784,0.81,1.372,0.81c0.578,0,1.031-0.274,1.358-0.823
		C82.926,105.558,83.065,105.018,83.065,104.395z"/>
	<path d="M92.151,107.817h-1.345l-0.069-1.092h-0.042c-0.43,0.831-1.158,1.246-2.184,1.246c-0.822,0-1.504-0.322-2.045-0.966
		c-0.541-0.645-0.812-1.479-0.812-2.507c0-1.101,0.296-1.992,0.888-2.674c0.572-0.635,1.275-0.952,2.111-0.952
		c0.92,0,1.562,0.309,1.929,0.925v-3.906h1.513v8.092C92.096,106.646,92.113,107.258,92.151,107.817z M90.583,104.947v-1.134
		c0-0.196-0.015-0.354-0.042-0.477c-0.084-0.363-0.268-0.669-0.549-0.917c-0.281-0.247-0.618-0.37-1.012-0.37
		c-0.562,0-1.005,0.224-1.328,0.672c-0.323,0.447-0.485,1.021-0.485,1.722c0,0.672,0.155,1.218,0.464,1.638
		c0.328,0.448,0.769,0.672,1.322,0.672c0.496,0,0.895-0.187,1.194-0.56C90.438,105.849,90.583,105.433,90.583,104.947z"/>
</g>
<g fill-opacity="0.17">
	<path d="M69.597,100.983c0,0.271-0.089,0.49-0.266,0.658c-0.178,0.168-0.406,0.252-0.686,0.252c-0.252,0-0.464-0.086-0.637-0.259
		s-0.259-0.39-0.259-0.651c0-0.261,0.088-0.476,0.266-0.644c0.177-0.169,0.397-0.253,0.658-0.253s0.48,0.084,0.658,0.253
		C69.508,100.508,69.597,100.723,69.597,100.983z M69.429,109.817h-1.512v-6.804h1.512V109.817z"/>
	<path d="M77.479,103.125c0,0.868-0.256,1.563-0.768,2.086c-0.661,0.682-1.624,1.022-2.889,1.022c-0.372,0-0.661-0.023-0.865-0.07
		v3.654h-1.512v-9.31c0.719-0.131,1.54-0.196,2.464-0.196c1.194,0,2.095,0.257,2.702,0.77
		C77.19,101.585,77.479,102.267,77.479,103.125z M75.981,103.195c0-0.551-0.176-0.973-0.529-1.267
		c-0.354-0.294-0.846-0.441-1.478-0.441c-0.418,0-0.757,0.028-1.017,0.084v3.388c0.213,0.057,0.506,0.084,0.878,0.084
		c0.669,0,1.194-0.163,1.575-0.489C75.791,104.227,75.981,103.774,75.981,103.195z"/>
	<path d="M84.633,106.359c0,1.046-0.299,1.904-0.896,2.576c-0.626,0.69-1.456,1.036-2.492,1.036c-0.999,0-1.794-0.331-2.387-0.994
		c-0.593-0.663-0.889-1.498-0.889-2.506c0-1.055,0.306-1.918,0.917-2.59c0.611-0.673,1.435-1.009,2.471-1.009
		c0.998,0,1.801,0.332,2.408,0.994C84.344,104.512,84.633,105.342,84.633,106.359z M83.065,106.395c0-0.624-0.136-1.158-0.406-1.605
		c-0.317-0.54-0.771-0.81-1.358-0.81c-0.606,0-1.068,0.27-1.385,0.81c-0.271,0.447-0.406,0.991-0.406,1.634
		c0,0.623,0.135,1.158,0.406,1.604c0.326,0.54,0.784,0.81,1.372,0.81c0.578,0,1.031-0.274,1.358-0.823
		C82.926,107.558,83.065,107.018,83.065,106.395z"/>
	<path d="M92.151,109.817h-1.345l-0.069-1.092h-0.042c-0.43,0.831-1.158,1.246-2.184,1.246c-0.822,0-1.504-0.322-2.045-0.966
		c-0.541-0.645-0.812-1.479-0.812-2.507c0-1.101,0.296-1.992,0.888-2.674c0.572-0.635,1.275-0.952,2.111-0.952
		c0.92,0,1.562,0.309,1.929,0.925v-3.906h1.513v8.092C92.096,108.646,92.113,109.258,92.151,109.817z M90.583,106.947v-1.134
		c0-0.196-0.015-0.354-0.042-0.477c-0.084-0.363-0.268-0.669-0.549-0.917c-0.281-0.247-0.618-0.37-1.012-0.37
		c-0.562,0-1.005,0.224-1.328,0.672c-0.323,0.447-0.485,1.021-0.485,1.722c0,0.672,0.155,1.218,0.464,1.638
		c0.328,0.448,0.769,0.672,1.322,0.672c0.496,0,0.895-0.187,1.194-0.56C90.438,107.849,90.583,107.433,90.583,106.947z"/>
</g>
<g>
	<path fill="#FFFFFF" d="M69.597,99.983c0,0.271-0.089,0.49-0.266,0.658c-0.178,0.168-0.406,0.252-0.686,0.252
		c-0.252,0-0.464-0.086-0.637-0.259s-0.259-0.39-0.259-0.651c0-0.261,0.088-0.476,0.266-0.644c0.177-0.169,0.397-0.253,0.658-0.253
		s0.48,0.084,0.658,0.253C69.508,99.508,69.597,99.723,69.597,99.983z M69.429,108.817h-1.512v-6.804h1.512V108.817z"/>
	<path fill="#FFFFFF" d="M77.479,102.125c0,0.868-0.256,1.563-0.768,2.086c-0.661,0.682-1.624,1.022-2.889,1.022
		c-0.372,0-0.661-0.023-0.865-0.07v3.654h-1.512v-9.31c0.719-0.131,1.54-0.196,2.464-0.196c1.194,0,2.095,0.257,2.702,0.77
		C77.19,100.585,77.479,101.267,77.479,102.125z M75.981,102.195c0-0.551-0.176-0.973-0.529-1.267
		c-0.354-0.294-0.846-0.441-1.478-0.441c-0.418,0-0.757,0.028-1.017,0.084v3.388c0.213,0.057,0.506,0.084,0.878,0.084
		c0.669,0,1.194-0.163,1.575-0.489C75.791,103.227,75.981,102.774,75.981,102.195z"/>
	<path fill="#FFFFFF" d="M84.633,105.359c0,1.046-0.299,1.904-0.896,2.576c-0.626,0.69-1.456,1.036-2.492,1.036
		c-0.999,0-1.794-0.331-2.387-0.994c-0.593-0.663-0.889-1.498-0.889-2.506c0-1.055,0.306-1.918,0.917-2.59
		c0.611-0.673,1.435-1.009,2.471-1.009c0.998,0,1.801,0.332,2.408,0.994C84.344,103.512,84.633,104.342,84.633,105.359z
		 M83.065,105.395c0-0.624-0.136-1.158-0.406-1.605c-0.317-0.54-0.771-0.81-1.358-0.81c-0.606,0-1.068,0.27-1.385,0.81
		c-0.271,0.447-0.406,0.991-0.406,1.634c0,0.623,0.135,1.158,0.406,1.604c0.326,0.54,0.784,0.81,1.372,0.81
		c0.578,0,1.031-0.274,1.358-0.823C82.926,106.558,83.065,106.018,83.065,105.395z"/>
	<path fill="#FFFFFF" d="M92.151,108.817h-1.345l-0.069-1.092h-0.042c-0.43,0.831-1.158,1.246-2.184,1.246
		c-0.822,0-1.504-0.322-2.045-0.966c-0.541-0.645-0.812-1.479-0.812-2.507c0-1.101,0.296-1.992,0.888-2.674
		c0.572-0.635,1.275-0.952,2.111-0.952c0.92,0,1.562,0.309,1.929,0.925v-3.906h1.513v8.092
		C92.096,107.646,92.113,108.258,92.151,108.817z M90.583,105.947v-1.134c0-0.196-0.015-0.354-0.042-0.477
		c-0.084-0.363-0.268-0.669-0.549-0.917c-0.281-0.247-0.618-0.37-1.012-0.37c-0.562,0-1.005,0.224-1.328,0.672
		c-0.323,0.447-0.485,1.021-0.485,1.722c0,0.672,0.155,1.218,0.464,1.638c0.328,0.448,0.769,0.672,1.322,0.672
		c0.496,0,0.895-0.187,1.194-0.56C90.438,106.849,90.583,106.433,90.583,105.947z"/>
</g>
<g fill-opacity="0.5">
	<path d="M78.327,77.683h-1.47l-0.196-3.948c-0.093-1.782-0.135-3.107-0.126-3.976h-0.042c-0.299,1.11-0.667,2.301-1.106,3.57
		l-1.47,4.27H72.77l-1.344-4.2c-0.401-1.269-0.728-2.482-0.98-3.64h-0.028c-0.047,1.419-0.103,2.768-0.168,4.046l-0.224,3.878
		h-1.414l0.63-9.436h1.946l1.358,4.088c0.336,1.008,0.63,2.091,0.882,3.248h0.042c0.299-1.204,0.616-2.287,0.952-3.248l1.414-4.088
		h1.946L78.327,77.683z"/>
	<path d="M85.215,77.683h-1.357l-0.112-0.784h-0.042c-0.467,0.626-1.129,0.938-1.988,0.938c-0.644,0-1.162-0.205-1.554-0.616
		c-0.354-0.373-0.532-0.835-0.532-1.386c0-0.831,0.348-1.466,1.042-1.904c0.695-0.438,1.674-0.653,2.934-0.645V73.16
		c0-0.896-0.472-1.344-1.414-1.344c-0.672,0-1.266,0.168-1.778,0.504l-0.308-0.994c0.635-0.392,1.414-0.588,2.338-0.588
		c1.783,0,2.674,0.938,2.674,2.814v2.506C85.117,76.74,85.15,77.281,85.215,77.683z M83.647,75.345v-1.05
		c-1.671-0.028-2.507,0.429-2.507,1.372c0,0.354,0.098,0.62,0.293,0.798c0.195,0.177,0.441,0.266,0.738,0.266
		c0.334,0,0.643-0.104,0.926-0.314s0.457-0.479,0.521-0.806C83.638,75.536,83.647,75.447,83.647,75.345z"/>
	<path d="M91.823,71.061l-0.294,1.148c-0.383-0.187-0.821-0.28-1.316-0.28c-0.662,0-1.188,0.222-1.574,0.665
		c-0.388,0.443-0.582,1.006-0.582,1.687c0,0.719,0.203,1.288,0.609,1.708s0.922,0.63,1.547,0.63c0.467,0,0.924-0.093,1.372-0.279
		l0.21,1.134c-0.494,0.233-1.119,0.35-1.876,0.35c-1.036,0-1.862-0.314-2.478-0.944c-0.616-0.63-0.924-1.473-0.924-2.527
		s0.33-1.92,0.994-2.597c0.662-0.677,1.553-1.016,2.674-1.016C90.82,70.738,91.365,70.846,91.823,71.061z"/>
</g>
<g fill-opacity="0.17">
	<path d="M78.327,79.683h-1.47l-0.196-3.948c-0.093-1.782-0.135-3.107-0.126-3.976h-0.042c-0.299,1.11-0.667,2.301-1.106,3.57
		l-1.47,4.27H72.77l-1.344-4.2c-0.401-1.269-0.728-2.482-0.98-3.64h-0.028c-0.047,1.419-0.103,2.768-0.168,4.046l-0.224,3.878
		h-1.414l0.63-9.436h1.946l1.358,4.088c0.336,1.008,0.63,2.091,0.882,3.248h0.042c0.299-1.204,0.616-2.287,0.952-3.248l1.414-4.088
		h1.946L78.327,79.683z"/>
	<path d="M85.215,79.683h-1.357l-0.112-0.784h-0.042c-0.467,0.626-1.129,0.938-1.988,0.938c-0.644,0-1.162-0.205-1.554-0.616
		c-0.354-0.373-0.532-0.835-0.532-1.386c0-0.831,0.348-1.466,1.042-1.904c0.695-0.438,1.674-0.653,2.934-0.645V75.16
		c0-0.896-0.472-1.344-1.414-1.344c-0.672,0-1.266,0.168-1.778,0.504l-0.308-0.994c0.635-0.392,1.414-0.588,2.338-0.588
		c1.783,0,2.674,0.938,2.674,2.814v2.506C85.117,78.74,85.15,79.281,85.215,79.683z M83.647,77.345v-1.05
		c-1.671-0.028-2.507,0.429-2.507,1.372c0,0.354,0.098,0.62,0.293,0.798c0.195,0.177,0.441,0.266,0.738,0.266
		c0.334,0,0.643-0.104,0.926-0.314s0.457-0.479,0.521-0.806C83.638,77.536,83.647,77.447,83.647,77.345z"/>
	<path d="M91.823,73.061l-0.294,1.148c-0.383-0.187-0.821-0.28-1.316-0.28c-0.662,0-1.188,0.222-1.574,0.665
		c-0.388,0.443-0.582,1.006-0.582,1.687c0,0.719,0.203,1.288,0.609,1.708s0.922,0.63,1.547,0.63c0.467,0,0.924-0.093,1.372-0.279
		l0.21,1.134c-0.494,0.233-1.119,0.35-1.876,0.35c-1.036,0-1.862-0.314-2.478-0.944c-0.616-0.63-0.924-1.473-0.924-2.527
		s0.33-1.92,0.994-2.597c0.662-0.677,1.553-1.016,2.674-1.016C90.82,72.738,91.365,72.846,91.823,73.061z"/>
</g>
<g>
	<path fill="#FFFFFF" d="M78.327,78.683h-1.47l-0.196-3.948c-0.093-1.782-0.135-3.107-0.126-3.976h-0.042
		c-0.299,1.11-0.667,2.301-1.106,3.57l-1.47,4.27H72.77l-1.344-4.2c-0.401-1.269-0.728-2.482-0.98-3.64h-0.028
		c-0.047,1.419-0.103,2.768-0.168,4.046l-0.224,3.878h-1.414l0.63-9.436h1.946l1.358,4.088c0.336,1.008,0.63,2.091,0.882,3.248
		h0.042c0.299-1.204,0.616-2.287,0.952-3.248l1.414-4.088h1.946L78.327,78.683z"/>
	<path fill="#FFFFFF" d="M85.215,78.683h-1.357l-0.112-0.784h-0.042c-0.467,0.626-1.129,0.938-1.988,0.938
		c-0.644,0-1.162-0.205-1.554-0.616c-0.354-0.373-0.532-0.835-0.532-1.386c0-0.831,0.348-1.466,1.042-1.904
		c0.695-0.438,1.674-0.653,2.934-0.645V74.16c0-0.896-0.472-1.344-1.414-1.344c-0.672,0-1.266,0.168-1.778,0.504l-0.308-0.994
		c0.635-0.392,1.414-0.588,2.338-0.588c1.783,0,2.674,0.938,2.674,2.814v2.506C85.117,77.74,85.15,78.281,85.215,78.683z
		 M83.647,76.345v-1.05c-1.671-0.028-2.507,0.429-2.507,1.372c0,0.354,0.098,0.62,0.293,0.798c0.195,0.177,0.441,0.266,0.738,0.266
		c0.334,0,0.643-0.104,0.926-0.314s0.457-0.479,0.521-0.806C83.638,76.536,83.647,76.447,83.647,76.345z"/>
	<path fill="#FFFFFF" d="M91.823,72.061l-0.294,1.148c-0.383-0.187-0.821-0.28-1.316-0.28c-0.662,0-1.188,0.222-1.574,0.665
		c-0.388,0.443-0.582,1.006-0.582,1.687c0,0.719,0.203,1.288,0.609,1.708s0.922,0.63,1.547,0.63c0.467,0,0.924-0.093,1.372-0.279
		l0.21,1.134c-0.494,0.233-1.119,0.35-1.876,0.35c-1.036,0-1.862-0.314-2.478-0.944c-0.616-0.63-0.924-1.473-0.924-2.527
		s0.33-1.92,0.994-2.597c0.662-0.677,1.553-1.016,2.674-1.016C90.82,71.738,91.365,71.846,91.823,72.061z"/>
</g>
<g fill-opacity="0.5">
	<path d="M67.834,40.46h-6.468c-0.476,0.812-1.017,1.61-1.624,2.395v5.866h-1.19v-4.494c-0.289,0.326-0.648,0.681-1.078,1.063
		l-0.84-0.868c1.316-1.166,2.445-2.486,3.388-3.962h-2.954v-1.063h3.57c0.345-0.625,0.621-1.218,0.826-1.778l1.162,0.35
		c-0.206,0.486-0.429,0.962-0.672,1.429h5.88V40.46z M67.778,48.132h-7.56v-1.077h3.108v-2.843h-2.562v-1.078h2.562v-1.819h1.204
		v1.819h2.562v1.078H64.53v2.843h3.248V48.132z"/>
	<path d="M72.749,39.76c-0.719,1.624-1.517,3.076-2.394,4.354l1.96-0.294l-0.042,1.092l-2.394,0.364
		c-0.439,0.065-0.798,0.149-1.078,0.252l-0.322-1.106c0.271-0.103,0.453-0.2,0.546-0.294c0.093-0.093,0.289-0.368,0.588-0.825
		c0.299-0.458,0.542-0.845,0.728-1.162l-0.868,0.042c-0.355,0.019-0.691,0.093-1.008,0.224l-0.294-1.19
		c0.187-0.009,0.312-0.042,0.378-0.098s0.294-0.448,0.686-1.176c0.392-0.729,0.728-1.488,1.008-2.282l1.05,0.308
		c-0.439,1.083-0.961,2.133-1.568,3.15l1.204-0.042c0.28-0.541,0.542-1.102,0.784-1.68L72.749,39.76z M72.665,46.998l-4.13,0.966
		l-0.28-1.204c1.363-0.214,2.828-0.536,4.396-0.966L72.665,46.998z M79.371,46.48c-0.159,0.858-0.355,1.456-0.588,1.792
		s-0.546,0.504-0.938,0.504c-0.392,0-0.786-0.18-1.183-0.539c-0.397-0.359-0.717-0.749-0.959-1.169
		c-0.896,0.625-1.825,1.129-2.786,1.512l-0.77-0.979c1.185-0.458,2.203-0.98,3.052-1.568c-0.233-0.588-0.467-1.358-0.7-2.31
		l-2.002,0.294l-0.126-1.078l1.904-0.28l-0.14-1.204l-1.428,0.196l-0.126-1.022l1.484-0.195c-0.056-1.055-0.089-1.97-0.098-2.744
		h1.106c0.028,1.194,0.065,2.058,0.112,2.59l3.388-0.448l0.084,0.994L75.269,41.3c0.019,0.271,0.07,0.668,0.154,1.19L78.908,42
		l0.098,1.036l-3.374,0.504c0.159,0.691,0.331,1.283,0.518,1.778c0.663-0.569,1.19-1.139,1.582-1.708l0.98,0.588
		c-0.588,0.793-1.279,1.512-2.072,2.156c0.103,0.195,0.275,0.429,0.518,0.7c0.243,0.271,0.425,0.405,0.546,0.405
		c0.121,0,0.226-0.098,0.315-0.294c0.088-0.195,0.184-0.564,0.287-1.105L79.371,46.48z M78.152,39.116l-0.742,0.729
		c-0.42-0.346-0.98-0.747-1.68-1.204l0.686-0.757C77.35,38.52,77.928,38.93,78.152,39.116z"/>
	<path d="M87.658,44.38v2.954h-4.703v-2.926c-0.365,0.28-0.635,0.485-0.812,0.616l-0.588-0.588v4.368h-1.162v-7.673h2.576
		c-0.205-0.438-0.406-0.816-0.603-1.134l0.112-0.042h-2.562V38.92h4.83c-0.084-0.224-0.238-0.55-0.462-0.979l1.19-0.294
		c0.271,0.532,0.471,0.957,0.602,1.273h4.578v1.036H88.19c-0.243,0.551-0.425,0.943-0.546,1.176h2.506v5.937
		c0,0.681-0.111,1.127-0.336,1.337s-0.7,0.315-1.428,0.315c-0.289,0-0.579-0.015-0.868-0.042l-0.294-1.064
		c0.578,0.037,0.973,0.056,1.183,0.056s0.359-0.056,0.448-0.168c0.088-0.111,0.133-0.261,0.133-0.447V44.24l-0.686,0.742
		C88.162,44.833,87.947,44.632,87.658,44.38z M83.836,42.168h-2.281v1.975C82.479,43.526,83.238,42.868,83.836,42.168z
		 M83.346,44.086h3.963c-0.532-0.42-1.06-0.821-1.582-1.204l0.645-0.714h-2.465l0.799,0.574
		C84.229,43.274,83.775,43.723,83.346,44.086z M87.015,39.956h-3.431l0.631,1.176h2.24C86.678,40.722,86.865,40.33,87.015,39.956z
		 M86.539,46.34v-1.26h-2.465v1.26H86.539z M88.988,44.114v-1.946h-2.533C87.379,42.803,88.223,43.451,88.988,44.114z"/>
	<path d="M102.26,39.872h-8.666v3.234c0,2.296-0.43,4.182-1.288,5.656l-1.176-0.421c0.849-1.353,1.274-3.136,1.274-5.348v-4.172
		h4.466c-0.094-0.215-0.238-0.527-0.435-0.938l1.219-0.279c0.158,0.308,0.33,0.714,0.518,1.218h4.088V39.872z M102.078,42.49H98.13
		v1.4h3.332v4.815h-1.176v-0.714h-4.872v0.742h-1.162v-4.844h2.702v-3.668h1.176v1.231h3.948V42.49z M100.286,46.942v-2.03h-4.872
		v2.03H100.286z"/>
</g>
<g fill-opacity="0.17">
	<path d="M67.834,42.46h-6.468c-0.476,0.812-1.017,1.61-1.624,2.395v5.866h-1.19v-4.494c-0.289,0.326-0.648,0.681-1.078,1.063
		l-0.84-0.868c1.316-1.166,2.445-2.486,3.388-3.962h-2.954v-1.063h3.57c0.345-0.625,0.621-1.218,0.826-1.778l1.162,0.35
		c-0.206,0.486-0.429,0.962-0.672,1.429h5.88V42.46z M67.778,50.132h-7.56v-1.077h3.108v-2.843h-2.562v-1.078h2.562v-1.819h1.204
		v1.819h2.562v1.078H64.53v2.843h3.248V50.132z"/>
	<path d="M72.749,41.76c-0.719,1.624-1.517,3.076-2.394,4.354l1.96-0.294l-0.042,1.092l-2.394,0.364
		c-0.439,0.065-0.798,0.149-1.078,0.252l-0.322-1.106c0.271-0.103,0.453-0.2,0.546-0.294c0.093-0.093,0.289-0.368,0.588-0.825
		c0.299-0.458,0.542-0.845,0.728-1.162l-0.868,0.042c-0.355,0.019-0.691,0.093-1.008,0.224l-0.294-1.19
		c0.187-0.009,0.312-0.042,0.378-0.098s0.294-0.448,0.686-1.176c0.392-0.729,0.728-1.488,1.008-2.282l1.05,0.308
		c-0.439,1.083-0.961,2.133-1.568,3.15l1.204-0.042c0.28-0.541,0.542-1.102,0.784-1.68L72.749,41.76z M72.665,48.998l-4.13,0.966
		l-0.28-1.204c1.363-0.214,2.828-0.536,4.396-0.966L72.665,48.998z M79.371,48.48c-0.159,0.858-0.355,1.456-0.588,1.792
		s-0.546,0.504-0.938,0.504c-0.392,0-0.786-0.18-1.183-0.539c-0.397-0.359-0.717-0.749-0.959-1.169
		c-0.896,0.625-1.825,1.129-2.786,1.512l-0.77-0.979c1.185-0.458,2.203-0.98,3.052-1.568c-0.233-0.588-0.467-1.358-0.7-2.31
		l-2.002,0.294l-0.126-1.078l1.904-0.28l-0.14-1.204l-1.428,0.196l-0.126-1.022l1.484-0.195c-0.056-1.055-0.089-1.97-0.098-2.744
		h1.106c0.028,1.194,0.065,2.058,0.112,2.59l3.388-0.448l0.084,0.994L75.269,43.3c0.019,0.271,0.07,0.668,0.154,1.19L78.908,44
		l0.098,1.036l-3.374,0.504c0.159,0.691,0.331,1.283,0.518,1.778c0.663-0.569,1.19-1.139,1.582-1.708l0.98,0.588
		c-0.588,0.793-1.279,1.512-2.072,2.156c0.103,0.195,0.275,0.429,0.518,0.7c0.243,0.271,0.425,0.405,0.546,0.405
		c0.121,0,0.226-0.098,0.315-0.294c0.088-0.195,0.184-0.564,0.287-1.105L79.371,48.48z M78.152,41.116l-0.742,0.729
		c-0.42-0.346-0.98-0.747-1.68-1.204l0.686-0.757C77.35,40.52,77.928,40.93,78.152,41.116z"/>
	<path d="M87.658,46.38v2.954h-4.703v-2.926c-0.365,0.28-0.635,0.485-0.812,0.616l-0.588-0.588v4.368h-1.162v-7.673h2.576
		c-0.205-0.438-0.406-0.816-0.603-1.134l0.112-0.042h-2.562V40.92h4.83c-0.084-0.224-0.238-0.55-0.462-0.979l1.19-0.294
		c0.271,0.532,0.471,0.957,0.602,1.273h4.578v1.036H88.19c-0.243,0.551-0.425,0.943-0.546,1.176h2.506v5.937
		c0,0.681-0.111,1.127-0.336,1.337s-0.7,0.315-1.428,0.315c-0.289,0-0.579-0.015-0.868-0.042l-0.294-1.064
		c0.578,0.037,0.973,0.056,1.183,0.056s0.359-0.056,0.448-0.168c0.088-0.111,0.133-0.261,0.133-0.447V46.24l-0.686,0.742
		C88.162,46.833,87.947,46.632,87.658,46.38z M83.836,44.168h-2.281v1.975C82.479,45.526,83.238,44.868,83.836,44.168z
		 M83.346,46.086h3.963c-0.532-0.42-1.06-0.821-1.582-1.204l0.645-0.714h-2.465l0.799,0.574
		C84.229,45.274,83.775,45.723,83.346,46.086z M87.015,41.956h-3.431l0.631,1.176h2.24C86.678,42.722,86.865,42.33,87.015,41.956z
		 M86.539,48.34v-1.26h-2.465v1.26H86.539z M88.988,46.114v-1.946h-2.533C87.379,44.803,88.223,45.451,88.988,46.114z"/>
	<path d="M102.26,41.872h-8.666v3.234c0,2.296-0.43,4.182-1.288,5.656l-1.176-0.421c0.849-1.353,1.274-3.136,1.274-5.348v-4.172
		h4.466c-0.094-0.215-0.238-0.527-0.435-0.938l1.219-0.279c0.158,0.308,0.33,0.714,0.518,1.218h4.088V41.872z M102.078,44.49H98.13
		v1.4h3.332v4.815h-1.176v-0.714h-4.872v0.742h-1.162v-4.844h2.702v-3.668h1.176v1.231h3.948V44.49z M100.286,48.942v-2.03h-4.872
		v2.03H100.286z"/>
</g>
<g>
	<path fill="#FFFFFF" d="M67.834,41.46h-6.468c-0.476,0.812-1.017,1.61-1.624,2.395v5.866h-1.19v-4.494
		c-0.289,0.326-0.648,0.681-1.078,1.063l-0.84-0.868c1.316-1.166,2.445-2.486,3.388-3.962h-2.954v-1.063h3.57
		c0.345-0.625,0.621-1.218,0.826-1.778l1.162,0.35c-0.206,0.486-0.429,0.962-0.672,1.429h5.88V41.46z M67.778,49.132h-7.56v-1.077
		h3.108v-2.843h-2.562v-1.078h2.562v-1.819h1.204v1.819h2.562v1.078H64.53v2.843h3.248V49.132z"/>
	<path fill="#FFFFFF" d="M72.749,40.76c-0.719,1.624-1.517,3.076-2.394,4.354l1.96-0.294l-0.042,1.092l-2.394,0.364
		c-0.439,0.065-0.798,0.149-1.078,0.252l-0.322-1.106c0.271-0.103,0.453-0.2,0.546-0.294c0.093-0.093,0.289-0.368,0.588-0.825
		c0.299-0.458,0.542-0.845,0.728-1.162l-0.868,0.042c-0.355,0.019-0.691,0.093-1.008,0.224l-0.294-1.19
		c0.187-0.009,0.312-0.042,0.378-0.098s0.294-0.448,0.686-1.176c0.392-0.729,0.728-1.488,1.008-2.282l1.05,0.308
		c-0.439,1.083-0.961,2.133-1.568,3.15l1.204-0.042c0.28-0.541,0.542-1.102,0.784-1.68L72.749,40.76z M72.665,47.998l-4.13,0.966
		l-0.28-1.204c1.363-0.214,2.828-0.536,4.396-0.966L72.665,47.998z M79.371,47.48c-0.159,0.858-0.355,1.456-0.588,1.792
		s-0.546,0.504-0.938,0.504c-0.392,0-0.786-0.18-1.183-0.539c-0.397-0.359-0.717-0.749-0.959-1.169
		c-0.896,0.625-1.825,1.129-2.786,1.512l-0.77-0.979c1.185-0.458,2.203-0.98,3.052-1.568c-0.233-0.588-0.467-1.358-0.7-2.31
		l-2.002,0.294l-0.126-1.078l1.904-0.28l-0.14-1.204l-1.428,0.196l-0.126-1.022l1.484-0.195c-0.056-1.055-0.089-1.97-0.098-2.744
		h1.106c0.028,1.194,0.065,2.058,0.112,2.59l3.388-0.448l0.084,0.994L75.269,42.3c0.019,0.271,0.07,0.668,0.154,1.19L78.908,43
		l0.098,1.036l-3.374,0.504c0.159,0.691,0.331,1.283,0.518,1.778c0.663-0.569,1.19-1.139,1.582-1.708l0.98,0.588
		c-0.588,0.793-1.279,1.512-2.072,2.156c0.103,0.195,0.275,0.429,0.518,0.7c0.243,0.271,0.425,0.405,0.546,0.405
		c0.121,0,0.226-0.098,0.315-0.294c0.088-0.195,0.184-0.564,0.287-1.105L79.371,47.48z M78.152,40.116l-0.742,0.729
		c-0.42-0.346-0.98-0.747-1.68-1.204l0.686-0.757C77.35,39.52,77.928,39.93,78.152,40.116z"/>
	<path fill="#FFFFFF" d="M87.658,45.38v2.954h-4.703v-2.926c-0.365,0.28-0.635,0.485-0.812,0.616l-0.588-0.588v4.368h-1.162v-7.673
		h2.576c-0.205-0.438-0.406-0.816-0.603-1.134l0.112-0.042h-2.562V39.92h4.83c-0.084-0.224-0.238-0.55-0.462-0.979l1.19-0.294
		c0.271,0.532,0.471,0.957,0.602,1.273h4.578v1.036H88.19c-0.243,0.551-0.425,0.943-0.546,1.176h2.506v5.937
		c0,0.681-0.111,1.127-0.336,1.337s-0.7,0.315-1.428,0.315c-0.289,0-0.579-0.015-0.868-0.042l-0.294-1.064
		c0.578,0.037,0.973,0.056,1.183,0.056s0.359-0.056,0.448-0.168c0.088-0.111,0.133-0.261,0.133-0.447V45.24l-0.686,0.742
		C88.162,45.833,87.947,45.632,87.658,45.38z M83.836,43.168h-2.281v1.975C82.479,44.526,83.238,43.868,83.836,43.168z
		 M83.346,45.086h3.963c-0.532-0.42-1.06-0.821-1.582-1.204l0.645-0.714h-2.465l0.799,0.574
		C84.229,44.274,83.775,44.723,83.346,45.086z M87.015,40.956h-3.431l0.631,1.176h2.24C86.678,41.722,86.865,41.33,87.015,40.956z
		 M86.539,47.34v-1.26h-2.465v1.26H86.539z M88.988,45.114v-1.946h-2.533C87.379,43.803,88.223,44.451,88.988,45.114z"/>
	<path fill="#FFFFFF" d="M102.26,40.872h-8.666v3.234c0,2.296-0.43,4.182-1.288,5.656l-1.176-0.421
		c0.849-1.353,1.274-3.136,1.274-5.348v-4.172h4.466c-0.094-0.215-0.238-0.527-0.435-0.938l1.219-0.279
		c0.158,0.308,0.33,0.714,0.518,1.218h4.088V40.872z M102.078,43.49H98.13v1.4h3.332v4.815h-1.176v-0.714h-4.872v0.742h-1.162
		v-4.844h2.702v-3.668h1.176v1.231h3.948V43.49z M100.286,47.942v-2.03h-4.872v2.03H100.286z"/>
</g>
<g>
	<path fill-opacity="0.5" d="M85.559,13.858c-0.022-2.604,2.125-3.856,2.227-3.916c-1.21-1.771-3.096-2.014-3.77-2.042
		c-1.602-0.162-3.125,0.944-3.938,0.944c-0.813,0-2.067-0.921-3.397-0.896c-1.748,0.024-3.357,1.016-4.257,2.579
		c-1.815,3.148-0.464,7.813,1.304,10.369c0.864,1.25,1.895,2.655,3.249,2.604c1.305-0.051,1.797-0.843,3.374-0.843
		c1.574,0,2.018,0.843,3.396,0.817c1.401-0.025,2.292-1.275,3.149-2.529c0.992-1.45,1.396-2.854,1.424-2.927
		C88.289,18.009,85.586,16.973,85.559,13.858z"/>
	<path fill-opacity="0.5" d="M82.967,6.21c0.719-0.871,1.204-2.082,1.07-3.287c-1.035,0.042-2.288,0.69-3.032,1.561
		c-0.666,0.77-1.249,2.003-1.091,3.184C81.068,7.756,82.249,7.08,82.967,6.21z"/>
</g>
<g>
	
		<linearGradient id="SVGID_1_" gradientUnits="userSpaceOnUse" x1="541.9414" y1="701.8838" x2="541.9414" y2="717.501" gradientTransform="matrix(1 0 0 1 -462 -693)">
		<stop  offset="0" style="stop-color:#F3F4F5"/>
		<stop  offset="0.3145" style="stop-color:#E6E7E8"/>
		<stop  offset="0.9005" style="stop-color:#C5C4C4"/>
		<stop  offset="0.9939" style="stop-color:#BFBEBE"/>
	</linearGradient>
	<path fill="url(#SVGID_1_)" d="M85.559,14.858c-0.022-2.604,2.125-3.856,2.227-3.916c-1.21-1.771-3.096-2.014-3.77-2.042
		c-1.602-0.162-3.125,0.944-3.938,0.944c-0.813,0-2.067-0.921-3.397-0.896c-1.748,0.024-3.357,1.016-4.257,2.579
		c-1.815,3.148-0.464,7.813,1.304,10.369c0.864,1.25,1.895,2.655,3.249,2.604c1.305-0.051,1.797-0.843,3.374-0.843
		c1.574,0,2.018,0.843,3.396,0.817c1.401-0.025,2.292-1.275,3.149-2.529c0.992-1.45,1.396-2.854,1.424-2.927
		C88.289,19.009,85.586,17.973,85.559,14.858z"/>
	<path fill="#F6F7F7" d="M82.967,7.21c0.719-0.871,1.204-2.082,1.07-3.287c-1.035,0.042-2.288,0.69-3.032,1.561
		c-0.666,0.77-1.249,2.003-1.091,3.184C81.068,8.756,82.249,8.08,82.967,7.21z"/>
	<path fill="#BFBEBE" d="M76.975,24.503c1.305-0.051,1.797-0.843,3.374-0.843c1.574,0,2.018,0.843,3.396,0.817
		c1.401-0.025,2.292-1.275,3.149-2.529c0.435-0.634,0.758-1.26,0.981-1.771c-0.758-0.012-1.603-0.021-2.276-0.021
		c-1.654,0-2.31-0.326-5.421-0.326c-3.115,0-3.692,0.418-5.229,0.533c-0.705,0.054-1.466,0.058-2.084,0.046
		c0.266,0.546,0.557,1.048,0.862,1.487C74.591,23.148,75.622,24.555,76.975,24.503z"/>
</g>
</svg>
