<svg xmlns="http://www.w3.org/2000/svg" viewBox="0 0 25 25" style="enable-background:new 0 0 25 25" xml:space="preserve"><path d="M15.5 6c5.2 0 9.5 4.3 9.5 9.5S20.7 25 15.5 25 6 20.7 6 15.5 10.3 6 15.5 6zm0 1.1c-4.6 0-8.4 3.8-8.4 8.4s3.8 8.4 8.4 8.4 8.4-3.8 8.4-8.4-3.8-8.4-8.4-8.4zm-3.9 4.5c.2-.2.6-.2.8 0l3.1 3.1 3.1-3.1c.2-.2.6-.2.8 0s.2.6 0 .8l-3.1 3.1 3.1 3.1c.2.2.2.6 0 .8-.1.1-.2.2-.4.2-.1 0-.3-.1-.4-.2l-3.1-3.1-3.1 3.1c-.1.1-.2.2-.4.2-.1 0-.3-.1-.4-.2-.2-.2-.2-.6 0-.8l3.1-3.1-3.1-3.1c-.2-.2-.2-.6 0-.8z" style="fill-rule:evenodd;clip-rule:evenodd;fill:#86868b" transform="translate(-3 -3)"/></svg>