<svg xmlns="http://www.w3.org/2000/svg" width="191" height="326"><path fill-rule="evenodd" d="M89.666.052c10.619-.08 25.787.08 37.187 2.413 6.416 1.313 11.414 3.201 14.057 6.398 2.756 3.272 2.967 18.639 5.979 31.887a47.882 47.882 0 0 0 3.2 9.335c1.149 2.469 2.492 4.694 4.038 6.661 2.362 3.004 5.091 5.41 7.501 7.185 4.42 2.611 8.174 6.106 10.647 9.178 6.341 7.875 9.295 16.45 10.169 30.282-.182.253-.685.847-.728 1.08.157-.104.442-.194.63-.262.16-.057.71-.186 1.311-.21h2.413c1.401.074 2.642.653 3.252 1.469 1.248 1.695 1.626 4.571 1.626 17.621 0 7.637-.159 13.96-1.626 15.576-1.189 1.509-2.706 1.492-3.829 1.574-.531-.004-1.006.003-1.207 0-.068-.006-.507.01-.944-.053-.465-.067-.731-.122-.944-.157.107.142.516.673.63.861 0 8.935-.003 19.522 0 28.613 0 .344-.368 1.076-.368 1.416.054.004.318-.004.368 0 0 0-.002 1.911 0 5.245.001 3.84-.003 9.855 0 17.359 0 1.65.027 3.621 0 5.297-.029 1.787-.042 4.261-.053 5.507-.01 1.16-.044 3.263-.052 4.038-.011 1.029-.053 2.866-.053 3.986 0 2.975-.179 5.765-.262 8.391h-.472c.077.272.256 1.102.315 1.364-.224 4.556-.858 9.987-2.053 14.435-.977 3.639-2.371 7.266-4.609 11.053-2.962 5.014-6.777 8.881-10.595 11.853-1.108.863-2.358 1.603-3.461 2.36-4.363 3.323-8.438 7.26-11.33 13.583-2.485 5.435-4.347 11.753-5.454 20.978a707.619 707.619 0 0 1-1.731 13.426c-.519 3.671-1.096 6.365-1.836 7.448-4.713 7.404-29.881 8.706-50.562 8.706-13.948 0-27.889-.52-37.765-3.042-4.824-1.233-9.158-3.048-10.804-5.455-2.571-3.757-2.388-20.702-6.336-34.537-1.05-3.681-2.342-7.016-3.858-9.657-3.021-5.264-5.834-7.884-10.21-11.398a67.798 67.798 0 0 1-2.884-1.94c-2.908-2.061-8.794-6.955-12.956-15.524-1.48-3.047-2.866-7.456-3.199-9.02-.329-1.546-.925-4.84-1.049-5.717-.129-.911-.805-8.29-.944-11.643C.676 214.663.5 199.439.5 196.46v-66.291c0-4.771.103-18.965.315-22.604.224-3.853.416-7.29.786-10.227.342-2.705.851-4.973 1.304-7.051.854-3.916 2.119-6.885 3.312-9.311 1.559-3.17 3.13-5.459 5.14-7.972 3.401-4.251 7.295-7.002 10.022-8.786 1.653-1.058 4.811-3.474 7.759-7.158 1.671-2.087 3.221-4.607 4.52-7.459C38.4 39.19 38.79 24.951 40.415 16.31c.491-2.612.827-4.966 1.626-6.608.454-.932 1.838-2.264 2.832-2.937 2.262-1.53 5.511-2.802 9.336-3.723C65.062.428 80.386.052 89.666.052zM56.333 78.553L125 78.68c10.028 0 21.022-.874 28.827 6.755 7.625 7.453 6.916 18.517 6.916 28.565l.005 100c-.001 17.439-2.491 22.032-6.764 26.332-4.387 4.416-9.195 7.146-24.496 7.148H61.746c-12.968 0-25.304 1.302-33.113-5.978-7.864-7.33-6.346-15.208-6.346-30.502l.014-98.323c0-9.237-.557-19.399 5.809-26.09 6.411-6.738 12.487-8.034 28.223-8.034z"/></svg>