<svg xmlns="http://www.w3.org/2000/svg" width="110" height="188"><path fill-rule="evenodd" d="M51.502-.001c6.134-.046 14.895.046 21.48 1.392 3.706.757 6.593 1.846 8.119 3.691 1.592 1.887 1.714 10.752 3.454 18.394a27.544 27.544 0 0 0 1.848 5.385 19.484 19.484 0 0 0 2.332 3.842c1.364 1.733 2.94 3.121 4.333 4.145 2.553 1.506 4.721 3.522 6.15 5.294 3.662 4.543 5.368 9.49 5.873 17.469-.105.146-.395.489-.42.623.09-.06.255-.112.363-.151.093-.033.41-.107.758-.121h1.393c.81.042 1.527.376 1.879.847.721.978.939 2.637.939 10.165 0 4.405-.092 8.053-.939 8.985-.687.871-1.563.861-2.212.908-.307-.002-.581.002-.697 0-.039-.004-.293.006-.545-.03-.269-.039-.423-.071-.545-.091.061.082.298.388.363.497v16.505c0 .199-.212.621-.212.817.031.002.184-.002.212 0v13.04c0 .952.016 2.088 0 3.055-.017 1.031-.024 2.458-.03 3.177-.006.669-.026 1.882-.03 2.329-.007.594-.031 1.654-.031 2.3 0 1.716-.103 3.325-.151 4.84h-.273c.045.157.148.636.182.787-.129 2.628-.496 5.761-1.186 8.327-.564 2.099-1.369 4.191-2.662 6.376-1.711 2.892-3.914 5.123-6.119 6.837-.641.498-1.363.925-2 1.362-2.52 1.916-4.873 4.188-6.544 7.835-1.435 3.135-2.511 6.78-3.15 12.102a404.828 404.828 0 0 1-1 7.745c-.299 2.117-.633 3.671-1.06 4.296-2.723 4.271-17.26 5.022-29.205 5.022-8.057 0-16.109-.3-21.813-1.755-2.787-.711-5.29-1.758-6.241-3.146-1.485-2.168-1.379-11.943-3.659-19.923-.607-2.124-1.353-4.048-2.228-5.571-1.746-3.037-3.37-4.548-5.898-6.575a39.723 39.723 0 0 1-1.666-1.119c-1.68-1.189-5.079-4.012-7.483-8.955-.855-1.758-1.656-4.302-1.848-5.204a80.002 80.002 0 0 1-.606-3.298c-.074-.525-.465-4.782-.545-6.716C.102 123.799 0 115.017 0 113.299V75.058c0-2.752.059-10.94.182-13.039.129-2.223.24-4.206.454-5.9.197-1.561.491-2.868.753-4.067.493-2.259 1.224-3.972 1.913-5.372.9-1.828 1.808-3.149 2.969-4.598 1.964-2.452 4.214-4.039 5.789-5.069.954-.61 2.778-2.003 4.481-4.128.965-1.205 1.861-2.658 2.611-4.304 2.739-6.005 2.964-14.219 3.903-19.203.284-1.507.478-2.866.939-3.812.262-.538 1.062-1.307 1.636-1.695 1.307-.882 3.183-1.616 5.393-2.148C37.291.216 46.142-.001 51.502-.001zM32 45.5h39c5.73 0 12.153-.615 16.613 3.784 4.356 4.297 3.881 10.698 3.881 16.491v57.599c-.001 10.056-1.35 12.743-3.791 15.223-2.507 2.546-5.54 3.909-14.283 3.91H34.712c-7.41 0-14.444 1.367-18.906-2.831-4.494-4.226-3.309-9.145-3.309-17.963V64.99c0-5.326-.357-11.183 3.281-15.042C19.441 46.063 23.009 45.5 32 45.5z"/></svg>