<svg xmlns="http://www.w3.org/2000/svg" width="340" height="690"><path fill-rule="evenodd" d="M268.943 18.512c7.649 0 31.29-.916 46.702 15.257 15.594 16.364 12.825 41.342 12.825 60.005 0 12.059.183 52.252.183 64.188 1.702 0 1.975.314 1.975 1.285 0 10.169-.013 31.207-.013 45.526 0 .883-1.381.859-2.355.859 0 .426.052 38.733.052 51.394 0 87.59.324 175.002.324 262.591 0 25.388-.091 68.499-.091 93.887.001 14.788-1.568 28.301-8.724 38.274-8.628 12.025-22.489 20.14-42.877 20.14-21.214 0-85.089.196-87.428.196-1.85 0-1.785-.43-3.962-.43-2.2 0-28.404.038-30.709.038-2.305 0-2.395.398-3.879.398-1.483 0-65.569-.282-78.104-.282-16.668 0-32.061.297-44.96-11.43-9.388-8.535-16.501-23.149-16.513-38.915-.022-29.502.127-62.296.128-103.577 0-143.113.136-243.021.136-252.281-.531-.18-2.353.038-2.396-.737 0-15.551-.005-31.158-.005-46.709.007-.749 1.392-.686 2.371-.682.01-1.086.009-6.558.009-11.869-.822.017-2.351-.042-2.351-.782l-.002-45.364c0-1.033.935-1.485 2.374-1.49v-30.451c-.794 0-2.376-.186-2.376-.934l-.005-24.031c0-.754 1.441-.315 2.381-.315 0-8.727-.011-23.047-.011-31.774 0-5.897.469-17.307 6.566-28.206C26.074 28.23 40.501 19.153 65.29 18.497c13.668 0 82.647.015 203.653.015z"/></svg>