<svg xmlns="http://www.w3.org/2000/svg" width="340" height="679"><path fill-rule="evenodd" d="M3.49 92.232c0-10.793-.148-21.266-.148-30.389 0-5.905-1.347-11.28-.613-16.389 1.685-11.738 1.835-23.037 9.947-30.831C18.316 9.204 23.979 5.67 31.3 3.437 39.819.838 56.083 0 71.665 0h202.904c12.271 0 23.158.819 30.41 3.593 18.08 6.918 10.92 6.797 14.938 10.813 12.139 12.133 17.086 21.408 17.086 53.827L337 156.856c1.087.391 1.676.823 1.676 1.577 0 19.075-.085 49.811-.085 75.064 0 1.489-.542 1.545-1.729 1.808 0 15.523.138 32.66.138 44.695v332.556c0 8.465-.043 19.164-2.791 28.762-2.359 8.239-6.786 15.445-14.03 22.254-15.415 14.49-38.715 13.258-52.586 13.258l-74.26.004c-3.011.042-5.043-.774-9.597-.774-8.121 0-17.872.032-26.323.012-5.69-.013-6.168.786-9.784.786-13.998 0-67.147-.022-81.146-.022-28.857 0-42.089-6.598-52.02-18.949C3.793 644.616 3.5 629.057 3.5 613.147V507.5 291v-39.327c-1.02-.35-2.043-.422-2.043-2.059 0-10.629-.023-34.662-.023-45.838 0-.529.557-1.144 1.878-1.381 0-1.499.018-7.061.018-12.465-1.056-.255-1.869-.581-1.869-1.456 0-10.666.006-35.615.006-46.28 0-1.165 1.021-1.334 2.033-1.703v-21.876c-.833-.333-2.301-.033-2.301-1.891 0-8.332.038-14.421.038-22.754 0-1.197.95-1.624 2.253-1.738zm55.873-71.078c-11.393 0-21.922 2.245-29.345 11.559-5.633 7.069-6.474 16.043-6.474 25.631 0 15.418-.044 47.362-.044 58.156v500.144c0 3.222-.424 17.985 4.5 25.856 9.345 14.937 27.908 14 30.331 14h221.558c13.354 0 23.535-1.768 31.227-12.584 4.656-6.546 5.384-14.535 5.384-23.821V509 120.5c0-16.498.352-43.279.352-59.777 0-4.755-.082-10.012-.941-14.761-.763-4.216-2.179-8.009-4.086-11.031-5.454-8.645-14.989-13.663-28.946-13.663l-25.616-.001c-4.828 0-4.973 3.154-4.973 6.032 0 4.715-2.407 10.049-6.411 13.51-3.121 2.698-8.423 4.01-15.312 4.01-25.164 0-73.403-.007-98.567-.007-10.499 0-15.043.005-23.754.005-15.188 0-20.186-10.471-20.186-17.198 0-4.776-1.461-6.351-3.722-6.351-11.165 0-13.327-.114-24.975-.114z"/></svg>