<svg xmlns="http://www.w3.org/2000/svg" width="121" height="240"><path fill-rule="evenodd" d="M22.329 1.054c21.767 0 52.989-.022 74.756-.022 6.483 0 10.349.695 14.03 2.918 1.61.973 3.009 1.95 4.34 3.65 3.069 3.917 3.502 8.417 3.502 12.662 0 11.207-.048 24.546-.048 35.427 0 .168.978 1.172 1.219.703-.151 9.116-.154 17.09-.154 26.116-.143.18-1.173.631-1.173.746 0 71.302.123 164.269.123 135.899 0 6.628-1.362 11.675-5.599 15.3-3.755 3.213-7.649 4.656-16.233 4.656-7.158 0-26.664.005-29.122.005-.806 0-.872-.211-2.388-.211l-10.184.001c-.735 0-.665.204-3.855.204-7.322 0-20.816-.008-27.126-.008-4.78 0-12.098.027-17.423-5.183-3.668-3.588-5.233-8.534-5.233-15.392 0-6.673.019-13.331.019-21.25 0-25.848-.012-51.643-.012-77.492 0-7.336-.008-14.7-.008-22.036 0-2.116.005-8.132.005-8.667 0-.206-.646-.327-.646-.497 0-.415-.011-8.268-.011-12.378 0-1.397.008-4.069.008-4.313 0-.163.684-.368.684-.445 0-1.48-.012-2.812-.012-4.234 0-.118-.669-.231-.669-.477V54.492c0-1.021-.006-3.208-.006-4.276 0-.363.672-.371.672-.578 0-2.573-.025-5.152-.025-7.662 0-.202-.735.048-.735-.409 0-.613-.039-7.119-.039-8.171 0-.375.261-.59.415-.59.227 0 .36.023.36-.055 0-2.527.01-6.08.01-8.571 0-8.296.464-11.627 3.082-15.715 1.548-2.415 3.636-3.966 6.384-5.393 3.618-1.879 8.045-2.018 11.092-2.018zm-.895 6.558c-1.169 0-4.354.155-6.311 1.067-1.65.769-2.92 1.683-3.951 2.958-2.616 3.232-2.278 8.784-2.278 9.912l-.003 34.795v118.467c0 11.485-.006 31.4-.006 42.884 0 1.332-.329 5.339.97 8.364 2.064 4.81 6.312 6.046 11.598 6.046 25.482 0 76.316-.146 78.207-.146 5.426 0 7.931-1.22 9.884-3.251 1.96-2.039 3.023-4.351 3.023-10.173 0-10.255.009-30.011.009-40.266 0-42.941-.005-85.894-.005-128.835 0-8.065-.019-16.699-.019-24.765 0-7.213.026-9.758-2.278-12.917-2.69-3.687-7.115-4.116-10.671-4.116-1.527 0-5.863-.014-8.027-.014-.566 0-1.186.164-1.443.525-.316.442-.378 1.093-.378 2.07 0 1.124-.708 2.766-1.57 3.67-1.239 1.298-2.65 2.025-5.192 2.025 8.585 0-24.241-.007-44.109-.007-1.965 0-3.549-.161-5.095-1.523a5.917 5.917 0 0 1-2.019-4.377c0-1.372-.181-2.392-2.006-2.392l-8.33-.001z"/></svg>