<svg xmlns="http://www.w3.org/2000/svg" width="626" height="900"><clipPath id="mask"><path fill-rule="evenodd" d="M47.947 1.492c157.951 0 527.407-.012 529.875-.012 12.096 0 29.483 1.284 37.281 10.725 6.489 7.856 9.4 11.999 9.4 33.909L624.518 829c0 34.235 3.466 51.306-16.533 64.537-3.067 2.029-10.619 4.651-18.108 4.879-6.039.183-25.207.051-25.377.085H56.875c-21.854.001-31.54.635-42.609-7.498-1.684-1.238-6.925-6.735-7.939-9.335-1.347-3.45-3.006-6.333-3.717-10.408-1.724-9.873-1.197-22.327-1.197-34.76V58c.392-.741-1.108-21.335 2.696-34.005 1.437-4.787 3.961-9.137 7.222-12.21 4.578-3.865 8.92-10.293 36.616-10.293z"/></clipPath></svg>