<svg xmlns="http://www.w3.org/2000/svg" width="340" height="679"><path fill-rule="evenodd" d="M3.492 92.323c0-10.804-.148-21.287-.148-30.42 0-19.491 3.195-34.568 14.849-45.766C30.409 4.4 42.736 1.5 71.736 1.5h203.106c23.905-.001 37.121 4.649 45.394 12.919 12.151 12.145 17.103 21.429 17.103 53.881l-.003 88.711c1.087.391 1.677.824 1.677 1.579 0 19.094-.085 49.861-.085 75.138 0 1.491-.542 1.548-1.731 1.811 0 15.538.139 32.692.139 44.739v332.889c0 8.473-.044 19.183-2.794 28.79-2.361 8.248-6.793 15.461-14.044 22.276-15.431 14.504-38.754 13.271-52.639 13.271l-74.333.005c-3.015.042-5.049-.775-9.607-.775-8.129 0-17.891.032-26.35.012-5.695-.013-6.174.787-9.793.787-14.013 0-67.215-.023-81.227-.023-28.886 0-42.132-6.604-52.072-18.967-10.681-13.285-10.975-28.859-10.975-44.785V508.005 291.289v-39.366c-1.021-.351-2.045-.423-2.045-2.061 0-10.64-.022-34.697-.022-45.884 0-.53.557-1.145 1.879-1.383 0-1.499.019-7.068.019-12.476-1.058-.256-1.871-.582-1.871-1.459 0-10.676.005-35.65.005-46.326 0-1.166 1.023-1.335 2.035-1.704v-21.898c-.834-.333-2.303-.033-2.303-1.893 0-8.341.038-14.435.038-22.776 0-1.199.951-1.626 2.255-1.74zm55.93-71.149c-11.405 0-21.944 2.247-29.375 11.571-5.639 7.075-6.48 16.059-6.48 25.656 0 15.433-.045 47.409-.045 58.214V617.258c0 3.225-.424 18.004 4.505 25.882 9.355 14.953 27.936 14.014 30.361 14.014h221.78c13.367 0 23.558-1.769 31.258-12.596 4.661-6.553 5.389-14.55 5.389-23.845V509.507 120.619c0-16.515.353-43.322.353-59.837 0-4.759-.082-10.022-.942-14.775-.764-4.221-2.182-8.018-4.091-11.043-5.459-8.653-15.004-13.676-28.974-13.676l-25.642-.002c-4.832 0-4.978 3.158-4.978 6.039 0 4.719-2.409 10.059-6.417 13.523-3.124 2.701-8.431 4.014-15.328 4.014-25.189 0-73.476-.006-98.665-.006-10.509 0-15.058.005-23.778.005-15.203 0-20.206-10.482-20.206-17.216 0-4.781-1.462-6.357-3.725-6.357-11.177 0-13.341-.114-25-.114z"/></svg>