<svg xmlns="http://www.w3.org/2000/svg" width="210" height="417"><path fill-rule="evenodd" d="M42.597 0c38.388 0 91.199.194 129.22.191 9.119 0 16.087 1.138 21.968 4.673 3.046 1.832 5.835 5.297 8.407 8.601 5.231 6.722 6.373 16.225 6.373 29.141 0 12.017-.065 44.368-.065 53.866.39 0 1.155-.082 1.155 1.062 0 11.432.028 30.284.028 45.746 0 .926-.626.952-1.183.967v235.965c0 6.863-1.431 16.59-7.059 23.255-5.361 6.35-13.003 11.201-29.96 11.201-11.501 0-36.974.007-51.545.007-1.694 0-3.106-.13-4.88-.13l-17.455-.002c-2.208 0-3.39.15-5.686.15-15.643 0-35.639.024-49.667.024-12.765 0-20.674-1.664-27.467-7.427C6.263 400.062 4 390.122 4 377.139V195.5c0-12.299-.023-28.721-.023-41.347-.308.004-1.049.07-1.049-.698 0-3.62.013-18.948.013-28.003 0-1.271.735-1.143 1.059-1.143 0-2.221-.004-5.43-.004-8.051-1.047-.021-1.031-.406-1.031-2.666 0-7.021.041-19.695.041-26.394 0-.379.354-.698.994-.698 0-4.156-.006-9.636-.006-13.927-.264.002-1.023.013-1.023-.365 0-1.997.031-10.826.031-14.703 0-.567.58-.613.998-.613V45.5c0-6.055-1.163-11.639-.556-16.661.597-4.936.944-9.83 3.269-13.6 2.944-4.773 8.183-8.872 12.203-11.076C25.956.303 34.602 0 42.597 0zm-4.999 13.5c-5.113 0-11.168 1.229-14.098 4-6.796 6.426-6.374 11.347-6.373 28.809L17.129 195c0 47.329-.129 129.065-.129 176.393 0 11.087.033 17.887 3.061 22.465 5.4 8.162 12.387 8.235 23.03 8.235 40.829 0 92.197.025 133.357.025 8.833 0 14.471-3.929 17.115-8.175 2.883-4.631 2.937-9.403 2.937-18.722V311.5 34.675c0-11.674-4.911-21.129-21.015-21.129-4.353 0-10.115.01-14.448.01-1.623 0-3.546-.201-3.546 2.599 0 3.915-1.488 7.126-4.071 8.991-4.409 3.185-6.214 2.669-12.836 2.669l-64.632.002c-8.158 0-11.521-.121-14.027-1.368-3.112-1.55-5.687-5.698-5.687-9.701 0-2.848-1.044-3.209-2.726-3.209-6.499 0-8.936-.039-15.914-.039z"/></svg>