<svg xmlns="http://www.w3.org/2000/svg" width="181" height="360"><path fill-rule="evenodd" d="M179.326 133.242s-.028-.494-.028-.386v198.202c0 15.224-12.342 27.444-27.566 27.444H29.257c-15.225 0-27.566-12.22-27.566-27.444V142.285c0-.031.044-.045.107-.049.163.04.332.054.491.054 0 0-.319-.065-.491-.054-.427-.103-.805-.401-.805-1.217v-24.807c0-.938.285-1.098.711-1.128.037.076.267-.013.267-.013-.097 0-.181.008-.267.013-.003-.006-.013-.006-.013-.015v-6.63c0-.002.004-.003.005-.006.228.03.478.006.694.006 0 0-.666-.11-.694-.006-.382-.048-.703-.246-.703-.952V82.764c0-.958.346-1.382.802-1.494.103-.004.245-.05.245-.05-.087 0-.164.03-.245.05-.056.002-.104-.005-.104-.046V69.356c0-.038.02-.048.036-.064.1.032.202.063.313.063 0 0-.233-.146-.313-.063a1.035 1.035 0 0 1-.734-.984V56.444c0-.466.311-.848.733-.983.079.086.314-.063.314-.063a1.02 1.02 0 0 0-.314.063c-.015-.016-.035-.026-.035-.063V28.533C1.691 13.309 14.032.968 29.257.968h122.475c15.224 0 27.566 12.341 27.566 27.565 0 0 .005 25.388.005 61.841a1.847 1.847 0 0 0-.585-.087h-.019l.604.35v-.263c.387.132.693.455.693 1.23v40.562c0 .456-.048 1.076-.67 1.076zm-11.19-102.128c0-10.6-4.731-19.126-17.292-19.126-5.558 0-13.264-.018-13.972-.018-.708 0-3.053.199-3.053 2.306v1.071c0 3.533-2.916 9.138-9.526 9.138H57.045c-6.61 0-9.527-5.605-9.527-9.138v-1.071c0-2.107-2.345-2.291-3.053-2.291-.708 0-8.413.019-13.971.019-12.561 0-17.29 8.51-17.29 19.11v297.639c0 12.084 5.413 19.253 18.698 19.253l12.992-.011 91.55.011h12.992c13.284 0 18.7-7.169 18.7-19.253V31.114z"/></svg>