<svg xmlns="http://www.w3.org/2000/svg" width="104" height="206"><clipPath id="mask"><path fill-rule="evenodd" d="M17.177.494h56.36c15.119 0 20.866-.221 25.503 6.149 2.26 3.105 2.991 5.933 2.991 14.98V47.325c.726.017.473.861.473 1.103v20.499c0 1.385.062 2.109-.473 2.049v109.587c.001 5.091.023 5.011-.157 8.988-1.003 7.868-4.553 11.106-7.399 12.772-2.776 1.625-8.865 2.207-11.493 2.207H59.053c-1.125 0-1.241-.315-7.084-.315-5.538 0-5.699.315-6.612.315H20.955c-11.582.001-14.394-4.023-15.9-5.361-1.662-1.476-3.621-6.092-3.621-10.879v-37.213-75.055c-.627-1.514-.63-4.203-.63-6.622v-7.884c0-.421.63-.365.63-.946 0-.888-.007-2.241-.007-3.242-.448 0-.623-.574-.623-1.489V43.225c0-.476.24-.651.63-.788v-6.781c-.496 0-.63-.647-.63-1.576v-5.992c0-.159.521-.267.63-.158 0-1.788.042-10.143 0-12.299C1.978 8.469 5.08 3.39 11.982 1.282c1.775-.457 3.209-.788 5.195-.788zM7.386 16.4c0-7.951 6.035-9.914 9.318-9.914 3.201.052 5.616-.053 8.816 0 .775 0 1.26.011 1.26 2.523 0 1.008 1.577 4.507 5.51 4.507h37.626c1.682 0 4.018-.303 4.88-1.196 1.215-1.259 1.669-2.007 1.889-5.204.388-.622.55-.63 2.677-.63h6.769c7.593 0 9.835 5.925 9.835 10.737V188.35c0 5.662-3.982 9.873-9.048 9.873H20.483c-8.562.492-13.097-2.021-13.097-10.97V16.4z"/></clipPath></svg>