<svg xmlns="http://www.w3.org/2000/svg" width="878" height="824"><path fill-rule="evenodd" d="M815.231 1.453s16.179-.023 17.556.003c1.378.026 23.968-.818 34.158 3.168 3.1 1.212 6.846 4.336 7.91 6.342 2.594 4.893 1.045 12.865-.019 18.591-.192 1.233-52.962 240.88-52.962 240.88s-2.963 12.467-4.642 15.575c-2.736 5.061-11.587 7.97-13.476 8.133 4.672 2.079 8.382 5.323 10.801 9.538 4.007 6.983 3.884 17.097 4.126 30.066 0 25.069-.18 50.142-.18 75.211 0 103.075.07 206.263.07 309.338 0 19.122-.028 38.957-.028 58.08.001 10.928.893 22.858-2.385 30.792-2.371 5.742-9.02 11.744-14.958 13.696-4.51 1.483-17.587 1.588-22.506 1.588-2.913 0-30.334.039-30.334.039l-176.887-.009-70.848.037s.91-.53-8.601-.546l-102.368-.028s-12.95-.232-12.909.541c-51.685-.026-262.29.054-262.29.054s-15.607-.036-27.792-.372c-11.134-.307-18.143-4.863-22.542-10.447-6.305-8.005-5.1-22.875-5.099-37.17 0 150.399.052-433.198.052-433.112-.001-12.45-.32-25.877 2.362-34.287 2.059-6.452 11.056-12.418 13.294-13.452.019-.017-1.007-.179-1.55-.235-4.865-1.068-10.814-3.744-13.046-7.598-1.893-3.269-4.128-14.796-4.128-14.796.059-.012-19.937-92.403-43.733-198.659C8.853 56.411 2.084 25.515 1.93 25.298.451 15.494 2.016 8.534 9.306 5.237 19.574.592 30.072 1.82 36.139 1.504c2.266-.117 779.092-.051 779.092-.051z"/></svg>