<svg xmlns="http://www.w3.org/2000/svg" width="257" height="513"><path fill-rule="evenodd" d="M256.302 176.417c-.061 1.112-1.326.832-1.326.832v290.994s2.457 33.423-24.618 41.849c-9.362 3.224-25.632 2.911-25.632 2.911l-62.672-.03-.539-.453-25.842-.013-.727.453-66.547-.031s-17.951 1.088-30.973-7.74c-16.397-11.117-15.582-36.974-15.409-37.01V237.261l-.001-47.478s-.995-.101-.995-1.246c0-.746.106-32.327 0-33.852-.103-1.484.999-1.606.999-1.606l-.003-10.099s-1.009.209-1.009-1.792l.003-33.331c0-1.988.995-1.77.995-1.77l.008-17.377S.497 88.686.497 87.466s.028-16.751.028-16.751l1.492-1.609V55.594c0-14.12-.034-27.692 5.371-36.499C11.609 12.22 14.15 9.786 20.822 5.51 27.793 1.043 41.008.042 45.438.042h163.003c3.795 0 28.987-1.64 40.951 18.169 4.442 7.356 5.582 19.758 5.582 19.758l.002 55.159s.002 25.456 0 25.508c1.726 0 1.5 1.35 1.5 1.35s.114 51.254-.174 56.431zM235.283 24.11c-3.846-5.006-8.935-9.135-24.011-9.135-5.583 0-16.844.007-16.844.007s-3.563-.314-3.596 1.488c-.028 1.542-.487 10.752-5.555 13.527-4.854 2.659-10.919 3.06-10.919 3.06l-93.824-.041s-2.018.516-8.042-2.083c-5.934-2.561-7.042-10.844-7.042-14.375 0-1.667-4.415-1.523-4.415-1.523l-18.9-.002s-6.517.072-8.708.728c-5.655 1.692-10.222 5.045-13.051 9.614-3.263 5.27-3.417 13.276-3.417 21.842 0-148.405-.082 220.037-.082 415.884 0 9.139-.362 18.62 3.214 24.203 8.185 12.781 22.17 10.7 22.17 10.7h175.946c5.368 0 15.184-3.837 18.635-11.882 3.402-7.932 2.629-14.513 2.629-14.513V40.711s.55-9.311-4.188-16.601z"/></svg>