<svg xmlns="http://www.w3.org/2000/svg" width="1254" height="1176"><path fill-rule="evenodd" d="M1164.571 1.505s23.125-.033 25.093.004c1.968.038 34.178-1.028 48.741 4.668 4.43 1.733 9.647 6.179 11.167 9.047 3.708 6.993 1.485 18.834-.037 27.019-.274 1.762-75.769 344.191-75.769 344.191s-3.934 17.902-6.335 22.344c-3.911 7.234-17.059 10.632-19.758 10.865 6.677 2.97 12.441 7.808 15.898 13.832 5.728 9.98 5.589 24.995 5.934 43.531 0 35.829-.258 71.664-.258 107.494 0 147.319.101 294.8.101 442.119 0 27.33-.04 55.679-.04 83.01.001 15.619.649 32.502-4.036 43.842-3.39 8.207-12.638 16.112-21.259 18.457-5.99 1.629-19.159 2.084-31.659 2.354-19.138-.071-43.354-.212-43.354-.212l-354.074.379s1.301-.927-12.292-.949l-146.309.016s-18.389-.315-18.45.999c-73.87-.037-374.875-.036-374.875-.036s-22.307-.052-39.721-.532c-15.914-.439-25.411-5.84-31.698-13.821-9.012-11.442-7.641-32.674-7.64-53.105 0 214.956.076-619.144.076-619.021-.002-17.794-.565-37.301 3.269-49.321 2.942-9.221 14.967-17.509 18.166-18.986.027-.024-.669-.18-1.444-.261-6.953-1.526-15.266-5.35-18.456-10.858-2.706-4.672-5.9-21.147-5.9-21.147.085-.017-28.686-132.066-62.696-283.932-4.892-22.872-14.568-67.031-14.788-67.34-2.114-14.012.085-24.171 10.504-28.884C27.348.633 42.39 2.504 51.061 2.053c3.239-.168 1113.51-.548 1113.51-.548z"/></svg>