<svg xmlns="http://www.w3.org/2000/svg" width="201" height="405"><path fill-rule="evenodd" d="M160.32 2.213c4.684 0 19.159-.561 28.596 9.349 9.548 10.026 7.853 25.331 7.853 36.766 0 7.389.111 32.016.111 39.329 1.043 0 1.21.192 1.21.787 0 6.231-.008 19.121-.008 27.895 0 .541-.846.526-1.442.526 0 .261.032 23.733.031 31.49 0 53.668.199 107.227.199 160.894 0 15.556-.056 41.971-.056 57.527-.019 9.082-2.045 19.18-6.885 24.731-6.198 7.11-14.11 10.774-25.505 10.774-12.989 0-51.304-.023-52.736-.023-1.132 0-1.093-.264-2.426-.264-1.347 0-17.391.023-18.803.023-1.411 0-1.466.245-2.375.245-.908 0-40.147-.173-47.822-.173-10.206 0-20.094-.468-27.992-7.653-5.748-5.229-9.64-13.106-9.647-22.765-.014-18.077.077-38.17.078-63.464 0-87.688.083-148.903.083-154.577-.325-.11-1.44.024-1.467-.452l-.003-28.619c.004-.459.852-.42 1.452-.418.006-.665.005-4.018.005-7.272-.503.01-1.439-.026-1.439-.479L1.33 88.594c0-.632.573-.909 1.454-.912V69.024c-.486 0-1.455-.115-1.455-.573l-.003-14.724c0-.462.883-.193 1.458-.193 0-5.347-.007-14.121-.007-19.468 0-3.613.288-10.604 4.021-17.282 4.816-8.616 13.577-14.58 28.828-14.58 8.369 0 50.604.009 124.694.009z"/></svg>