<svg xmlns="http://www.w3.org/2000/svg" width="246" height="488"><path fill-rule="evenodd" d="M48.005.97c45.07.001 107.073.228 151.712.225 16.252 0 26.814 3.04 35.663 14.41 6.141 7.891 7.483 19.049 7.483 34.213 0 14.109-.077 52.091-.077 63.242.458 0 1.356-.096 1.356 1.247 0 13.422.033 35.556.033 53.709 0 1.087-.736 1.118-1.389 1.136V446.19c0 8.058-1.681 19.478-8.288 27.303-6.295 7.455-15.266 13.15-35.176 13.15-13.502 0-43.409.008-60.516.008-1.989 0-3.647-.151-5.73-.151l-20.493-.003c-2.593 0-3.98.176-6.676.176-18.365 0-41.842.028-58.313.028-14.985 0-24.272-1.953-32.247-8.72-10.001-8.486-12.658-20.156-12.658-35.399V229.326c0-14.44-.027-33.721-.027-48.545-.362.006-1.231.083-1.231-.818 0-4.251.015-22.247.015-32.878 0-1.492.863-1.342 1.243-1.342 0-2.608-.005-6.376-.005-9.453-1.229-.024-1.21-.476-1.21-3.13 0-8.242.048-23.123.048-30.987 0-.446.415-.82 1.167-.82 0-4.88-.006-11.313-.006-16.352-.311.003-1.202.016-1.202-.429 0-2.344.037-12.71.037-17.262 0-.665.681-.719 1.171-.719V53.216c.001-14.096.025-26.011 5.534-34.942C17.733 2.856 33.259.97 48.005.97zm-5.87 14.676c-6.002 0-13.111 1.443-16.551 4.696-7.979 7.544-7.483 13.322-7.483 33.824l.003 174.573c0 55.567-.152 151.53-.152 207.097 0 13.017.038 21 3.594 26.375 6.34 9.583 14.544 9.668 27.038 9.668 47.937 0 108.246.03 156.571.03 10.37 0 16.99-4.613 20.093-9.598 3.386-5.438 3.449-11.04 3.449-21.981v-74.812V40.507c0-13.707-5.765-24.807-24.673-24.807-5.11 0-11.876.012-16.963.012-1.905 0-4.163-.236-4.163 3.051 0 4.597-1.747 8.366-4.779 10.556-5.177 3.739-7.296 3.133-15.072 3.133l-75.881.003c-9.578 0-13.526-.142-16.468-1.607-3.654-1.818-6.678-6.689-6.678-11.388 0-3.344-1.226-3.768-3.201-3.768-7.63 0-10.491-.046-18.684-.046z"/></svg>