<svg xmlns="http://www.w3.org/2000/svg" width="293" height="586"><path fill-rule="evenodd" d="M290.732 215.806s-.046-.803-.046-.628v322.007c0 24.733-20.051 44.784-44.784 44.784H46.924c-24.734 0-44.785-20.051-44.785-44.784V230.497c0-.051.072-.073.174-.079.265.064.54.087.799.087 0 0-.52-.105-.799-.087-.694-.168-1.307-.652-1.307-1.978v-40.302c0-1.527.454-1.792 1.148-1.84.043.142.44-.013.44-.013-.156 0-.301.004-.44.013-.002-.008-.015-.007-.015-.016v-10.773c0-.004.008-.005.009-.009.37.048.776.009 1.127.009 0 0-1.082-.178-1.127-.009-.621-.079-1.142-.399-1.142-1.546v-40.157c0-1.5.514-2.216 1.214-2.429.154.034.486-.079.486-.079-.17 0-.331.031-.486.079-.045-.011-.081-.029-.081-.073v-19.281c0-.053.031-.064.051-.09.164.052.335.088.516.088 0 0-.398-.249-.516-.088a1.696 1.696 0 0 1-1.184-1.612V91.037c0-.757.498-1.391 1.182-1.611.117.165.518-.089.518-.089a1.68 1.68 0 0 0-.518.089c-.018-.027-.049-.037-.049-.089V45.692C2.139 20.958 22.19.985 46.924.985h198.978c24.733 0 44.784 19.973 44.784 44.707 0 0 .009 41.246.009 100.469-.3-.102-.628-.14-.951-.141h-.03l.981.568v-.427c.629.214 1.125.738 1.125 1.998v65.899c0 .74-.078 1.748-1.088 1.748zM272.553 49.885c0-17.221-7.688-31.388-28.094-31.388l-22.699.002c-1.15 0-4.96.607-4.96 4.03v1.74c0 5.74-4.738 14.72-15.477 14.72H92.07c-10.739 0-15.478-8.98-15.478-14.72v-1.74c0-3.423-3.809-4.03-4.96-4.03l-22.699-.002c-20.406 0-28.088 14.167-28.088 31.388V533.44c0 19.632 8.794 31.572 30.376 31.572l21.107-.018 148.736.018h21.107c21.583 0 30.382-11.94 30.382-31.572V49.885z"/></svg>