<svg xmlns="http://www.w3.org/2000/svg" width="60" height="104"><path fill-rule="evenodd" d="M59.489 43.595c-.374.474-.852.469-1.206.495h-.38c-.022-.002-.16.003-.298-.017-.146-.021-.23-.038-.297-.049.034.044.163.211.198.27v9c0 .108-.115.338-.115.445h.115v7.109c0 .519.009 1.139 0 1.666-.009.562-.013 1.34-.016 1.732l-.017 1.27c-.003.324-.016.902-.016 1.254 0 .936-.057 1.813-.083 2.639h-.149c.025.085.081.347.099.429-.07 1.433-.27 3.141-.646 4.54a13.63 13.63 0 0 1-1.452 3.476c-.933 1.577-2.135 2.793-3.338 3.728-.349.271-.743.504-1.091.742-1.374 1.045-2.658 2.284-3.569 4.272-.783 1.71-1.37 3.697-1.719 6.598a220.557 220.557 0 0 1-.545 4.223c-.163 1.154-.345 2.002-.578 2.342-1.485 2.329-9.415 2.738-15.93 2.738-4.395 0-8.787-.163-11.898-.956-1.52-.388-2.886-.959-3.404-1.716-.81-1.182-.752-6.511-1.996-10.862-.331-1.158-.738-2.207-1.216-3.038-.952-1.655-1.838-2.479-3.216-3.584-.271-.174-.527-.34-.909-.611-.916-.648-2.771-2.187-4.082-4.882-.466-.958-.903-2.345-1.008-2.837a42.467 42.467 0 0 1-.33-1.798 73.93 73.93 0 0 1-.298-3.662C.055 67.497 0 62.709 0 61.772V40.923c0-1.501.032-5.965.099-7.11.071-1.211.131-2.292.248-3.216.108-.851.268-1.564.411-2.218a12.42 12.42 0 0 1 1.043-2.928c.491-.997.986-1.717 1.62-2.507 1.071-1.337 2.298-2.203 3.157-2.764.521-.333 1.516-1.092 2.445-2.251a11.247 11.247 0 0 0 1.424-2.346c1.494-3.274 1.616-7.753 2.128-10.47.155-.822.261-1.562.513-2.079.143-.293.579-.712.892-.923.713-.482 1.736-.882 2.941-1.171 3.42-.822 8.248-.941 11.171-.941 3.346-.025 8.125.026 11.716.759 2.022.413 3.596 1.007 4.429 2.013.868 1.029.935 5.862 1.884 10.028a14.942 14.942 0 0 0 1.008 2.936c.362.777.785 1.477 1.272 2.095a12.3 12.3 0 0 0 2.363 2.26 12.838 12.838 0 0 1 3.355 2.887c1.997 2.476 2.928 5.173 3.203 9.524-.057.079-.215.266-.229.339.05-.032.139-.061.198-.082.051-.018.224-.058.414-.066h.76c.441.023.832.205 1.024.462.394.533.512 1.438.512 5.542 0 2.402-.05 4.391-.512 4.899zM51 30.5a6.5 6.5 0 0 0-6.5-6.5h-31A6.5 6.5 0 0 0 7 30.5v41c0 4.052 2.17 6.5 6.5 6.5h31a6.5 6.5 0 0 0 6.5-6.5v-41z"/></svg>