<svg xmlns="http://www.w3.org/2000/svg" width="293" height="586"><path fill-rule="evenodd" d="M292.774 201.522c-.07 1.269-1.515.95-1.515.95v332.402s2.807 38.179-28.129 47.804c-10.696 3.683-29.286 3.326-29.286 3.326l-71.607-.034-.616-.519-29.527-.014-.831.518-76.035-.037s-20.51 1.244-35.388-8.841C1.104 564.379 2.035 534.842 2.233 534.801V271.024l-.001-54.234s-1.137-.116-1.137-1.424c0-.852.121-36.927 0-38.669-.117-1.695 1.142-1.835 1.142-1.835l-.004-11.536s-1.153.239-1.153-2.047l.003-38.074c0-2.271 1.138-2.022 1.138-2.022l.009-19.849s-1.733-.028-1.733-1.421c0-1.394.032-19.135.032-19.135l1.704-1.838V63.505c.001-16.129-.039-31.633 6.137-41.692 4.822-7.854 7.726-10.635 15.35-15.519C31.684 1.192 46.783.048 51.846.048h186.243c4.336 0 33.12-1.874 46.789 20.754 5.076 8.403 6.379 22.57 6.379 22.57l.002 63.008s.003 29.079 0 29.138c1.972 0 1.713 1.542 1.713 1.542s.131 58.548-.198 64.462zM268.758 27.541c-4.395-5.718-10.209-10.435-27.435-10.435-6.378 0-19.245.008-19.245.008s-4.071-.359-4.109 1.7c-.032 1.762-.556 12.281-6.347 15.452-5.546 3.037-12.475 3.495-12.475 3.495l-107.202-.047s-2.306.59-9.188-2.379c-6.781-2.926-8.046-12.388-8.046-16.421 0-1.904-5.045-1.739-5.045-1.739l-21.595-.003s-7.445.082-9.949.832c-6.462 1.933-11.679 5.763-14.912 10.982-3.728 6.02-3.905 15.166-3.904 24.95 0-169.523-.094 251.348-.094 475.064 0 10.44-.414 21.27 3.672 27.647 9.352 14.601 25.331 12.223 25.331 12.223h201.032c6.133 0 17.349-4.383 21.292-13.572 3.887-9.061 3.004-16.579 3.004-16.579V46.504s.629-10.636-4.785-18.963z"/></svg>