<svg xmlns="http://www.w3.org/2000/svg" width="188" height="374"><path fill-rule="evenodd" d="M30.851 1h102.755c27.565 0 38.044-.403 46.499 11.212 4.12 5.66 5.453 10.817 5.453 27.31v46.86c1.322.032.861 1.571.861 2.012v37.373c0 2.525.115 3.846-.861 3.737v199.799c.001 9.281.041 9.136-.287 16.386-1.829 14.346-8.301 20.249-13.49 23.286-5.062 2.963-16.163 4.025-20.953 4.025H107.2c-2.052 0-2.263-.575-12.916-.575-10.097 0-10.39.575-12.055.575h-44.49c-21.115.001-26.243-7.335-28.989-9.774-3.03-2.692-6.602-11.108-6.602-19.837v-67.845-136.841C1.006 135.942 1 131.041 1 126.629v-14.374c0-.768 1.148-.664 1.148-1.725 0-1.619-.011-4.085-.011-5.91-.819 0-1.137-1.046-1.137-2.714V78.907c0-.867.438-1.187 1.148-1.437V65.108c-.903 0-1.148-1.18-1.148-2.875V51.309c0-.289.95-.486 1.148-.287 0-3.26.078-18.493 0-22.424C3.141 15.54 8.796 6.28 21.379 2.437 24.615 1.604 27.23 1 30.851 1zM13 30c0-14.497 11.003-18.076 16.99-18.076 5.835.096 10.238-.096 16.073 0 1.412 0 2.296.02 2.296 4.6 0 1.839 2.875 8.337 10.046 8.337h14.352c13.871-.005 27.747-.029 41.619 0h12.629c3.066 0 7.326-.672 8.898-2.3 2.215-2.295 3.043-3.658 3.444-9.487.707-1.135 1.003-1.15 4.879-1.15h12.343c13.843 0 17.931 10.804 17.931 19.576v312c0 10.322-7.26 18.001-16.496 18.001H36.878C21.268 362.398 13 357.815 13 341.5V30z"/></svg>