<svg xmlns="http://www.w3.org/2000/svg" width="900" height="626"><path fill-rule="evenodd" d="M43.474 1h812.971c6.663 0 19.605.305 30.068 8.364 4.438 3.418 7.627 8.455 9.431 13.067 3.861 9.869 3.047 25.336 3.047 25.336l-.015 532.228s.718 21.531-7.235 30.852c-12.684 14.867-28.253 13.655-53.408 13.653H51.028c-14.065-.01-35.509 1.895-45.412-18.891-5.181-10.876-4.595-23.226-4.595-23.226l.01-117.883s.058-427.607.058-403.437C1.088 45.47-.655 28.806 7.402 16.68c4.581-6.894 10.474-12.199 21.37-14.323C34.819 1.32 43.474 1 43.474 1z"/></svg>