<svg xmlns="http://www.w3.org/2000/svg" width="326" height="650"><path fill-rule="evenodd" d="M53.5 2.5h179c48.018 0 66.272-.7 81 19.5 7.177 9.844 9.5 18.814 9.5 47.5V151c2.303.056 1.5 2.732 1.5 3.5v65c0 4.393.199 6.69-1.5 6.5v347.5c.001 16.142.072 15.89-.5 28.5-3.186 24.95-14.46 35.217-23.5 40.5-8.817 5.152-28.155 7-36.5 7h-76c-3.575 0-3.942-1-22.5-1-17.589 0-18.099 1-21 1H65.5c-36.783.001-45.715-12.757-50.5-17-5.278-4.681-11.5-19.32-11.5-34.5V480 242c-1.99-4.802-2-13.327-2-21v-25c0-1.335 2-1.155 2-3 0-2.815-.02-7.105-.02-10.28-1.426 0-1.98-1.819-1.98-4.72 0-7.976-.002-31.271 0-40 0-1.508.762-2.065 2-2.5V114c-1.574 0-2-2.053-2-5V90c0-.503 1.654-.846 2-.5 0-5.669.135-32.163 0-39C5.23 27.788 15.081 11.684 37 5c5.638-1.449 10.192-2.5 16.5-2.5zM23 53c0-25.213 18.571-31.5 29-31.5 10.166.167 17.834-.167 28 0 2.459 0 4 .035 4 8 0 3.199 5.008 14.5 17.5 14.5h25c24.164-.009 48.336-.05 72.5 0h22c5.342 0 12.763-1.169 15.5-4 3.858-3.992 5.302-6.362 6-16.5 1.231-1.974 1.748-2 8.5-2h21.5c24.115 0 31 18.243 31 33.5 0 40.726-.5 533.954-.5 544.5 0 17.953-12.958 30-28 30H64c-27.193 1.56-41-6.625-41-35V53z"/></svg>