<svg xmlns="http://www.w3.org/2000/svg" width="257" height="513"><path fill-rule="evenodd" d="M255.54 189.542s-.04-.709-.04-.554v276.849c0 34.127-18.225 46.663-44.621 46.663H47.751C18.692 512.5 1 500.254 1 463.984V202.499c0-.045.063-.064.153-.069.234.056.476.076.704.076 0 0-.457-.092-.704-.076-.612-.149-1.153-.575-1.153-1.745v-35.547c0-1.346.401-1.581 1.013-1.622.038.125.388-.012.388-.012a5.29 5.29 0 0 0-.388.012c-.002-.007-.013-.006-.013-.015V154c0-.004.006-.005.007-.008.327.042.685.008.995.008 0 0-.955-.157-.995-.008-.547-.07-1.007-.353-1.007-1.364v-35.419c0-1.323.453-1.954 1.071-2.142.136.03.429-.069.429-.069-.15 0-.292.027-.429.069-.04-.009-.071-.026-.071-.064V97.997c0-.047.027-.057.044-.08a1.5 1.5 0 0 0 .456.078s-.351-.22-.456-.078A1.496 1.496 0 0 1 0 96.495v-17c0-.668.44-1.227 1.043-1.422.103.146.457-.078.457-.078-.16 0-.312.032-.457.078-.016-.023-.043-.031-.043-.078V47.793C1 9.27 23.507 0 44.295 0h165.371C238.458 0 255.5 13.062 255.5 46.93c0 0 .008 28.986.008 81.184a2.653 2.653 0 0 0-.839-.124h-.026l.865.501v-.377c.555.189.992.652.992 1.762V188c0 .653-.068 1.542-.96 1.542zM239.506 43.198c0-15.189-6.78-27.691-24.779-27.691l-20.02-.002c-1.015 0-4.375.546-4.375 3.565v1.535c0 5.062-4.179 12.896-13.651 12.896H80.319c-9.472 0-13.651-7.834-13.651-12.896V19.07c0-3.019-3.36-3.565-4.375-3.565l-20.02.002c-17.999 0-24.775 12.502-24.775 27.691v426.499c0 17.316 7.756 27.304 26.792 27.304l18.617-.004 131.186.004h18.617c19.036 0 26.796-9.988 26.796-27.304V43.198z"/></svg>