<svg xmlns="http://www.w3.org/2000/svg" width="181" height="360"><clipPath id="mask"><path fill-rule="evenodd" d="M179.768 123.929c-.043.778-.927.582-.927.582v203.515s1.718 23.376-17.214 29.268c-6.546 2.255-17.922 2.037-17.922 2.037l-43.821-.022-.377-.317-18.07-.009-.508.317-46.531-.022s-12.552.761-21.656-5.413C1.276 346.09 1.846 328.006 1.967 327.981V166.482l-.001-33.205s-.696-.07-.696-.871c0-.522.075-22.609.001-23.676-.072-1.038.698-1.123.698-1.123l-.002-7.063s-.706.146-.706-1.253l.002-23.311c0-1.391.696-1.238.696-1.238l.006-12.153s-1.061-.017-1.061-.87.02-11.715.02-11.715l1.043-1.126v-9.45c0-9.875-.024-19.367 3.756-25.526 2.951-4.809 4.728-6.511 9.393-9.501C19.99 1.276 29.23.576 32.328.576h113.975c2.653 0 20.268-1.147 28.633 12.707 3.106 5.145 3.903 13.818 3.903 13.818l.002 38.578v17.839c1.207 0 1.048.944 1.048.944s.08 35.847-.121 39.467zm-14.697-106.52c-2.69-3.501-6.248-6.389-16.789-6.389-3.904 0-11.778.005-11.778.005s-2.491-.22-2.514 1.041c-.02 1.078-.341 7.519-3.884 9.46-3.395 1.86-7.635 2.14-7.635 2.14l-65.603-.029s-1.412.362-5.623-1.456c-4.15-1.792-4.924-7.584-4.924-10.054 0-1.165-3.088-1.065-3.088-1.065l-13.215-.002s-4.556.051-6.088.51c-3.955 1.183-7.148 3.528-9.126 6.724-2.282 3.685-2.39 9.285-2.389 15.275 0-103.791-.058 153.89-.058 290.861 0 6.392-.253 13.022 2.247 16.927 5.724 8.939 15.502 7.483 15.502 7.483h123.025c3.753 0 10.617-2.683 13.03-8.31 2.379-5.547 1.838-10.15 1.838-10.15V29.019s.385-6.511-2.928-11.61z"/></clipPath></svg>