<svg xmlns="http://www.w3.org/2000/svg" width="230" height="466"><path fill-rule="evenodd" d="M185.319.2c5.456 0 22.318-.653 33.31 10.867 11.122 11.656 9.148 29.447 9.148 42.74 0 8.59.13 37.218.13 45.72 1.214 0 1.409.223 1.409.915 0 7.243-.009 22.229-.009 32.428 0 .628-.986.611-1.68.611 0 .303.037 27.589.036 36.608 0 62.387.232 124.649.232 187.037 0 18.084-.065 48.79-.065 66.874.001 10.533-1.118 20.158-6.222 27.262-6.154 8.565-16.04 14.345-30.582 14.345-15.13 0-60.688.14-62.357.14-1.319 0-1.272-.306-2.825-.306-1.57 0-20.259.027-21.903.027-1.644 0-1.709.283-2.767.283-1.058 0-46.766-.2-55.706-.2-11.888 0-22.867.21-32.067-8.142-6.696-6.08-11.769-16.489-11.778-27.719-.016-21.013.09-44.372.091-73.775 0-101.937.097-173.099.097-179.694-.379-.129-1.678.027-1.708-.526 0-11.076-.004-22.193-.004-33.27.005-.533.993-.488 1.691-.485.007-.774.006-4.672.006-8.455-.586.013-1.677-.029-1.677-.556l-.001-32.312c0-.736.667-1.058 1.693-1.061v-21.69c-.566 0-1.695-.133-1.695-.665L.113 60.084c0-.537 1.028-.225 1.698-.225 0-6.215-.007-16.415-.007-22.632 0-4.2.334-12.327 4.682-20.09C12.097 7.121 22.387.656 40.067.189 49.816.189 99.014.2 185.319.2z"/></svg>