<svg xmlns="http://www.w3.org/2000/svg" viewBox="0 0 54 38"><path d="M0 0h54v38H0V0z" fill="none"/><path d="M36.56 3.47c-2.96-1.61-9.3-1.46-9.3-1.46h-.51s-6.34-.17-9.3 1.46a6.97 6.97 0 0 0-3.13 6.13v16.33c0 .29.02.6.06.89.09 1.5.66 2.96 1.62 4.12 2.68 2.98 7.25 3.02 10.99 3.06 3.75-.03 8.31-.09 10.99-3.06a7.143 7.143 0 0 0 1.62-4.12c.04-.29.06-.59.06-.89V9.6a6.925 6.925 0 0 0-3.13-6.13h.02zm-9.55 1.51h-.25c-3.59-.02-6.47-.47-6.47-1.01s2.88-.99 6.47-1.01h.25c3.72 0 6.72.46 6.72 1.02S30.73 5 27.01 5v-.02zm5.21-1.02c0 .3-2.34.55-5.21.55s-5.21-.24-5.21-.55 2.34-.55 5.21-.55 5.21.24 5.21.55z" fill="#1d1d1f"/></svg>