<svg xmlns="http://www.w3.org/2000/svg" viewBox="0 0 54 47"><path d="M0 0h54v47H0V0z" fill="none"/><path d="M39.42 2.9C35.57.8 27.33 1 27.33 1h-.66S18.42.79 14.58 2.9a9.025 9.025 0 0 0-4.07 7.97v21.24c0 .38.03.77.08 1.15.12 1.96.86 3.84 2.11 5.35 3.49 3.88 9.43 3.94 14.3 3.98 4.87-.04 10.81-.11 14.3-3.98a9.32 9.32 0 0 0 2.11-5.35c.05-.38.08-.76.08-1.15V10.87c.15-3.19-1.4-6.22-4.07-7.97zM27 4.87h-.33c-4.67-.03-8.41-.61-8.41-1.32s3.74-1.3 8.41-1.32H27c4.83 0 8.74.6 8.74 1.33S31.83 4.89 27 4.89v-.02zm6.78-1.33c0 .39-3.04.71-6.78.71s-6.78-.32-6.78-.71 3.04-.71 6.78-.71 6.78.32 6.78.71z" fill="#f5f5f7"/></svg>
