<?xml version="1.0" encoding="utf-8"?>
<!-- Generator: Adobe Illustrator 27.1.1, SVG Export Plug-In . SVG Version: 6.00 Build 0)  -->
<svg version="1.1" id="Layer_1" xmlns="http://www.w3.org/2000/svg" xmlns:xlink="http://www.w3.org/1999/xlink" x="0px" y="0px"
	 viewBox="0 0 25.2 28" style="enable-background:new 0 0 25.2 28;" xml:space="preserve">
<style type="text/css">
	.st0{fill-rule:evenodd;clip-rule:evenodd;}
</style>
<path class="st0" d="M5.6,28H3c-1.7,0-3-1.3-3-3V3c0-1.7,1.3-3,3-3h2.4c1.7,0,3,1.3,3,3v22C8.4,26.7,7.1,28,5.6,28"/>
<path class="st0" d="M22.4,28h-2.6c-1.7,0-3-1.3-3-3V3c0-1.7,1.3-3,3-3h2.4c1.7,0,3,1.3,3,3v22C25.2,26.7,23.9,28,22.4,28"/>
</svg>
