<svg class="icon" xmlns="http://www.w3.org/2000/svg" viewBox="0 0 64 64">
  <path d="M2.41938054,38.513708 C3.79348673,38.513708 4.46761063,37.9951795 4.9601947,36.5432974 L8.30469028,27.3912744 L23.6012921,27.3912744 L26.9457877,36.5432974 C27.4384248,37.9951795 28.1124956,38.513708 29.4606903,38.513708 C30.8347965,38.513708 31.7162655,37.684062 31.7162655,36.3877381 C31.7162655,35.946993 31.6384779,35.53217 31.4310797,34.9877098 L19.2715753,2.60559292 C18.6752921,1.0240885 17.6122832,0.220353983 15.9529912,0.220353983 C14.3455752,0.220353983 13.2566549,0.998176993 12.6862832,2.57968142 L0.526778762,35.0136372 C0.319380532,35.5580921 0.241592921,35.9729151 0.241592921,36.4136655 C0.241592921,37.7099884 1.07123894,38.513708 2.41938054,38.513708 Z M9.57509736,23.4504425 L15.8752036,6.00196461 L16.0048673,6.00196461 L22.3049735,23.4504425 L9.57509736,23.4504425 Z M46.0017346,38.6951948 C49.9942302,38.6951948 53.7280355,36.51737 55.3352921,33.1469363 L55.438832,33.1469363 L55.438832,36.5692248 C55.438832,37.8655471 56.3202479,38.7211222 57.538832,38.7211222 C58.7834337,38.7211222 59.6648497,37.8655471 59.6648497,36.4655204 L59.6648497,19.1726018 C59.6648497,13.5206018 55.516885,9.86500887 48.9312213,9.86500887 C44.0572567,9.86500887 39.9868142,12.016885 38.5090089,15.3613806 C38.2238231,16.0095398 38.0164248,16.6317876 38.0164248,17.1762478 C38.0164248,18.3169912 38.8719824,19.0689027 39.9868142,19.0689027 C40.7905487,19.0689027 41.4127434,18.7577522 41.8016815,18.0318053 C43.2535222,15.0243717 45.4572744,13.6243009 48.8276815,13.6243009 C52.8721063,13.6243009 55.2832567,15.8799292 55.2832567,19.5096107 L55.2832567,21.7393275 L46.9092744,22.206 C40.3497877,22.5689735 36.6941417,25.6023186 36.6941417,30.4246726 C36.6941417,35.3766107 40.5053098,38.6951948 46.0017346,38.6951948 Z M47.0648496,35.0914195 C43.5646726,35.0914195 41.1794337,33.1728638 41.1794337,30.3209735 C41.1794337,27.5727611 43.3831859,25.7319823 47.4535222,25.472708 L55.2832567,24.9801239 L55.2832567,27.7283363 C55.2832567,31.8506018 51.6280355,35.0914195 47.0648496,35.0914195 Z" transform="translate(2 12.62)"></path>
</svg>
