<?xml version="1.0" encoding="utf-8"?>
<!-- Generator: Adobe Illustrator 27.1.1, SVG Export Plug-In . SVG Version: 6.00 Build 0)  -->
<svg version="1.1" id="Layer_1" xmlns="http://www.w3.org/2000/svg" xmlns:xlink="http://www.w3.org/1999/xlink" x="0px" y="0px"
	 viewBox="0 0 31 38.3" style="enable-background:new 0 0 31 38.3;" xml:space="preserve">
<path d="M15.2,18.2c0.6,0,1-0.2,1.3-0.5l7-7.1c0.4-0.4,0.6-0.9,0.6-1.4s-0.2-1-0.6-1.4l-7-7.1C16.2,0.2,15.7,0,15.2,0
	c-1.1,0-1.9,0.9-1.9,2c0,0.5,0.2,1,0.5,1.3l3.5,3.5c-0.7-0.1-1.3-0.1-1.9-0.1C6.9,6.7,0,13.7,0,22.5s6.9,15.8,15.5,15.8
	S31,31.2,31,22.5c0-1.2-0.8-2-2-2s-1.9,0.9-1.9,2c0,6.5-5.2,11.8-11.6,11.8S3.9,29,3.9,22.5S9,10.6,15.4,10.6c0.9,0,1.8,0.1,2.6,0.2
	L13.8,15c-0.3,0.4-0.5,0.8-0.5,1.3C13.3,17.3,14.1,18.2,15.2,18.2z"/>
</svg>
