<?xml version="1.0" encoding="utf-8"?>
<!-- Generator: Adobe Illustrator 23.1.1, SVG Export Plug-In . SVG Version: 6.00 Build 0)  -->
<svg version="1.1" id="Layer_1" xmlns="http://www.w3.org/2000/svg" xmlns:xlink="http://www.w3.org/1999/xlink" x="0px" y="0px"
	 viewBox="0 0 40 56" style="enable-background:new 0 0 40 56;" xml:space="preserve">
<style type="text/css">
	.st0{fill:#6E6E73;}
</style>
<path class="st0" d="M20,10.7c9.6,0,17.3,7.7,17.3,17.3S29.6,45.3,20,45.3S2.7,37.6,2.7,28C2.7,18.5,10.5,10.7,20,10.7 M20,8.5
	C9.2,8.5,0.5,17.2,0.5,28S9.2,47.5,20,47.5S39.5,38.8,39.5,28S30.8,8.5,20,8.5z"/>
<path class="st0" d="M7.4,33.1H5.5V22.5h4.2c2.3,0,3.7,1.3,3.7,3.3c0,1.4-0.7,2.6-2,3l2.3,4.3h-2.2l-2.1-4h-2
	C7.4,29.1,7.4,33.1,7.4,33.1z M7.4,27.6h2.1c1.2,0,1.9-0.7,1.9-1.8c0-1.1-0.7-1.8-1.9-1.8H7.4V27.6z"/>
<path class="st0" d="M23.9,33.1v-7.5h-0.1l-3.1,7.5h-1.3l-3.1-7.5h-0.1v7.5h-1.7V22.5h2.2l3.2,8.1H20l3.2-8.1h2.2v10.6H23.9z"/>
<path class="st0" d="M27.1,33.1V22.5h4.4c1.9,0,3.2,1,3.2,2.6c0,1.1-0.8,2.1-1.9,2.3v0.1c1.4,0.1,2.4,1.2,2.4,2.6c0,1.9-1.4,3-3.6,3
	H27.1z M29,26.9h1.7c1.3,0,2.1-0.6,2.1-1.5S32.2,24,31,24h-2V26.9z M31.1,31.6c1.4,0,2.1-0.6,2.1-1.7s-0.8-1.6-2.2-1.6h-2v3.3
	C29,31.6,31.1,31.6,31.1,31.6z"/>
</svg>
