<svg id="Exportable" xmlns="http://www.w3.org/2000/svg" viewBox="0 0 32 56">
  <defs>
    <style>
      .cls-1 {
        fill: none;
      }

      .cls-2 {
        fill: #6e6e73;
      }
    </style>
  </defs>
  <title>icon-user-vpat</title>
  <g id="doc.on.doc">
    <g id="Elevated">
      <rect id="Bounding_Box" data-name="Bounding Box" class="cls-1" y="-0.017" width="32" height="56"/>
      <g id="Icon">
        <path class="cls-1" d="M14.625,28.983h8.961L14,19.4v8.961A.625.625,0,0,0,14.625,28.983Z"/>
        <path class="cls-1" d="M2,21.858v23.25a2.943,2.943,0,0,0,3,2.875H21a2.943,2.943,0,0,0,3-2.875V30.983H14.625A2.625,2.625,0,0,1,12,28.358V18.983H5A2.943,2.943,0,0,0,2,21.858Z"/>
        <path class="cls-1" d="M20,17.358a.625.625,0,0,0,.625.625h8.961L20,8.4Z"/>
        <path class="cls-2" d="M31.177,16.746l-9.94-9.94A2.793,2.793,0,0,0,19.25,6H11a4.93,4.93,0,0,0-5,4.858v4.125H8V10.858a2.943,2.943,0,0,1,3-2.875h7v9.375a2.657,2.657,0,0,0,2.625,2.625H30V34.108a2.88,2.88,0,0,1-1.948,2.683V38.87A4.911,4.911,0,0,0,32,34.108V18.733A2.81,2.81,0,0,0,31.177,16.746ZM20.625,18A.64.64,0,0,1,20,17.358V8.4L29.586,18Z"/>
        <path class="cls-2" d="M5,17a4.93,4.93,0,0,0-5,4.858v23.25a4.944,4.944,0,0,0,5,4.875H21a4.944,4.944,0,0,0,5-4.875V29.733a2.81,2.81,0,0,0-.823-1.987l-9.94-9.94A2.793,2.793,0,0,0,13.25,17Zm9,2.4L23.586,29H14.625A.64.64,0,0,1,14,28.358Zm-2-.414v9.375a2.625,2.625,0,0,0,2.625,2.625H24V45.108A2.957,2.957,0,0,1,21,48H5a2.957,2.957,0,0,1-3-2.892V21.858a2.943,2.943,0,0,1,3-2.875Z"/>
        <path class="cls-2" d="M7,37H19a1,1,0,0,0,0-2H7a1,1,0,0,0,0,2Z"/>
        <path class="cls-2" d="M7,42H19a1,1,0,0,0,0-2H7a1,1,0,0,0,0,2Z"/>
      </g>
    </g>
  </g>
</svg>
