<?xml version="1.0" encoding="UTF-8"?>
<svg width="34px" height="34px" viewBox="0 0 34 34" version="1.1" xmlns="http://www.w3.org/2000/svg" xmlns:xlink="http://www.w3.org/1999/xlink">
    <title>FPO</title>
    <g id="Page-3" stroke="none" stroke-width="1" fill="none" fill-rule="evenodd">
        <g id="01-StoreDetails-S-FullyOpened-Copy-8" transform="translate(-19.000000, -1337.000000)">
            <g id="Group-6" transform="translate(0.000000, 619.000000)">
                <g id="Group-3" transform="translate(19.000000, 455.000000)">
                    <g id="Group-7" transform="translate(0.000000, 40.000000)">
                        <g id="FPO" transform="translate(0.000000, 223.000000)">
                            <rect id="Rectangle" x="0" y="0" width="34" height="34"></rect>
                            <g id="Group-12" transform="translate(9.000000, 7.000000)" fill="#000000">
                                <path d="M7.2645,14.6982 C7.0995,14.6982 6.9425,14.6252 6.8375,14.4962 L3.7495,10.7022 C3.5585,10.4672 3.5935,10.1202 3.8285,9.9272 C4.0675,9.7372 4.4115,9.7712 4.6035,10.0082 L7.2115,13.2122 L12.0075,5.7342 C12.1705,5.4782 12.5115,5.4042 12.7675,5.5682 C13.0235,5.7322 13.0975,6.0722 12.9335,6.3282 L7.7275,14.4452 C7.6325,14.5942 7.4715,14.6872 7.2955,14.6982 L7.2645,14.6982 Z" id="Fill-1"></path>
                                <path d="M8.495,0 C8.211,0 7.94,0.073 7.668,0.157 C6.18,0.638 2.87,1.906 1.383,2.492 C0.419,2.869 0,3.246 0,4.367 L0,12.327 C0,15.931 1.959,17.178 7.803,20.603 C8.034,20.738 8.306,20.822 8.495,20.822 C8.694,20.822 8.956,20.738 9.197,20.603 C15.062,17.209 17,15.931 17,12.327 L17,4.367 C17,3.246 16.581,2.88 15.618,2.492 C14.13,1.896 10.82,0.67 9.333,0.157 C9.06,0.062 8.778,0 8.495,0 M8.495,1 C8.639,1 8.81,1.034 9.006,1.103 C10.455,1.603 13.741,2.816 15.244,3.42 C15.975,3.714 16,3.788 16,4.367 L16,12.327 C16,15.236 14.709,16.257 8.704,19.732 C8.588,19.798 8.498,19.82 8.52,19.823 C8.493,19.819 8.401,19.794 8.309,19.739 C2.515,16.344 1,15.332 1,12.327 L1,4.367 C1,3.79 1.028,3.705 1.75,3.423 C3.456,2.75 6.614,1.549 7.962,1.112 C8.188,1.043 8.355,1 8.495,1" id="Fill-3"></path>
                            </g>
                        </g>
                    </g>
                </g>
            </g>
        </g>
    </g>
</svg>