<svg xmlns="http://www.w3.org/2000/svg" viewBox="0 0 50 54"><defs><style>.cls-1{fill:#333;}</style></defs><title>family-chapternav-iPhone-6-lf-lily</title><g id="Light"><path class="cls-1" d="M36,12.19A3.2,3.2,0,0,0,32.81,9H23v3h6a1,1,0,0,0,1-1v-.5a.5.5,0,0,1,.5-.5h2.31A2.19,2.19,0,0,1,35,12.19V47.81A2.19,2.19,0,0,1,32.81,50H22.44a4,4,0,0,1-.83,1H32.81A3.2,3.2,0,0,0,36,47.81Zm-9.75-1.47h-2a.25.25,0,0,1,0-.5h2a.25.25,0,0,1,0,.5Zm1.08.08a.33.33,0,1,1,.33-.33A.33.33,0,0,1,27.33,10.8ZM47,11H37v5H49V46H37v2a4,4,0,0,1-1.38,3H47a3,3,0,0,0,3-3V14A3,3,0,0,0,47,11Zm-4.25,2.75h-4.5a.25.25,0,0,1,0-.5h4.5a.25.25,0,0,1,0,.5ZM40.5,50.25a1.75,1.75,0,1,1,1.75-1.75A1.75,1.75,0,0,1,40.5,50.25ZM22,8a3,3,0,0,0-3-3H3A3,3,0,0,0,0,8V48a3,3,0,0,0,3,3H19a3,3,0,0,0,3-3ZM13.33,6.15a.33.33,0,1,1-.33.33A.33.33,0,0,1,13.33,6.15Zm-3.08.08h2a.25.25,0,0,1,0,.5h-2a.25.25,0,0,1,0-.5ZM21,48a2,2,0,0,1-2,2H3a2,2,0,0,1-2-2V8A2,2,0,0,1,3,6H5.5a.5.5,0,0,1,.5.5V7A1,1,0,0,0,7,8h8a1,1,0,0,0,1-1V6.5a.5.5,0,0,1,.5-.5H19a2,2,0,0,1,2,2Zm19.5-.62a1.13,1.13,0,1,0,1.13,1.13A1.13,1.13,0,0,0,40.5,47.38Z"/></g></svg>