<svg xmlns="http://www.w3.org/2000/svg" width="22" height="54" viewBox="0 0 22 54"><path fill="none" d="M0 0h22v54H0z"/><path fill="#1d1d1f" d="M22 10.392c-.001-.59-.001-1.2-.127-1.78-.127-.59-.379-1.12-.794-1.566a3.096 3.096 0 0 0-1.493-.882c-.569-.151-1.155-.16-1.738-.163-.11 0-13.93 0-14.12.005a6.754 6.754 0 0 0-.937.078c-.296.05-.58.126-.855.246-.302.132-.582.31-.83.534a3.177 3.177 0 0 0-.95 1.62C.002 9.105.002 9.755 0 10.391V45.609c.001.59.001 1.199.127 1.78.127.59.379 1.12.794 1.565.413.443.923.73 1.493.882.569.152 1.155.164 1.738.164h13.552c.595-.001 1.196 0 1.777-.138a3.127 3.127 0 0 0 1.549-.855c.433-.443.7-.982.835-1.583C22 46.83 22 46.217 22 45.61V10.392zM9.34 6.512a.13.13 0 0 1 .13-.13h3.058a.13.13 0 0 1 .13.13v.02a.13.13 0 0 1-.13.129H9.471a.13.13 0 0 1-.13-.13zm-1.571.832a.423.423 0 0 1 .393-.204c.194.017.373.185.373.41s-.179.392-.373.41a.423.423 0 0 1-.394-.205.43.43 0 0 1 0-.41zM21 10.767v34.862c-.001.564-.002 1.096-.11 1.575-.102.451-.29.812-.575 1.104a2.12 2.12 0 0 1-1.064.58c-.463.11-.982.111-1.547.112H4.156c-.574-.003-1.048-.014-1.485-.13a2.11 2.11 0 0 1-1.02-.598c-.272-.292-.45-.65-.547-1.095-.102-.472-.103-.998-.104-1.568V10.376c.001-.592.002-1.151.127-1.65a2.19 2.19 0 0 1 .65-1.12c.163-.148.351-.27.558-.359.184-.08.386-.138.62-.177.22-.036.467-.056.797-.065A498.8 498.8 0 0 1 6.617 7c.051 0 .106-.002.164.009a.27.27 0 0 1 .144.07c.038.036.061.085.073.141.012.06.011.113.013.165.004.127.005.242.028.37.023.124.062.237.124.345.095.168.238.312.405.409.134.076.274.12.427.139.158.02.301.014.456.014h5.098c.155 0 .298.006.456-.014.153-.02.293-.063.427-.14.167-.096.31-.24.405-.408.062-.108.101-.22.124-.344.023-.13.024-.244.028-.37.002-.053 0-.107.013-.166a.272.272 0 0 1 .073-.142.27.27 0 0 1 .143-.07c.06-.01.113-.008.165-.008h2.46c.575.003 1.05.014 1.486.13.408.11.75.31 1.02.598.272.293.45.65.547 1.095.102.473.103 1 .104 1.57v.373z"/></svg>