<svg version="1.1" id="Layer_1" xmlns="http://www.w3.org/2000/svg" x="0" y="0" viewBox="0 0 25 25" style="enable-background:new 0 0 25 25" xml:space="preserve"><style>.st0{fill-rule:evenodd;clip-rule:evenodd;fill:#1d1d1f}</style><g id="Comps"><g id="Default-Online-Icon-Copy" transform="translate(-740 -966)"><g id="Group-12" transform="translate(740 961)"><g id="Icon" transform="translate(0 5)"><path id="Fill-1" class="st0" d="M17.5 18v-.5h-14V7.1c0-.3.3-.6.7-.6h16.6c.4 0 .7.3.7.6v1.4h1V7.1c0-.9-.8-1.6-1.7-1.6H4.2c-.9 0-1.7.7-1.7 1.6v10.4H1c-.6 0-1 .4-1 1s.4 1 1 1h17c-.2-.3-.4-.6-.5-1V18"/><path id="Fill-3" class="st0" d="M23.5 17.6v.4c0 .3-.2.5-.5.5h-3c-.3 0-.5-.2-.5-.5v-7c0-.3.2-.5.5-.5v.3c0 .1 0 .2.1.3.1.1.2.1.3.1h2.2c.1 0 .2 0 .3-.1.1-.1.1-.2.1-.3v-.3c.3 0 .5.2.5.5v6.6zm0-8c-.2-.1-.3-.1-.5-.1h-3c-.8 0-1.5.7-1.5 1.5v7c0 .2 0 .3.1.5.2.6.8 1 1.4 1h3c.2 0 .3 0 .5-.1.1 0 .2-.1.3-.2.4-.3.7-.7.7-1.2v-7c0-.7-.4-1.2-1-1.4z"/><path id="Fill-5" class="st0" d="M22.8 17.7h-2.5c-.1 0-.2.1-.2.2s.1.2.2.2H22.7c.1 0 .1 0 .2-.1 0 0 .1-.1.1-.2v-.1c-.1.1-.1 0-.2 0"/></g></g></g></g></svg>