<svg xmlns="http://www.w3.org/2000/svg" width="370" height="798"><path fill-rule="evenodd" d="M60.556.104h206.499c44.414.075 77.997-3.139 95.269 24.995 8.391 13.667 7.482 36.556 7.482 58.486v630.856c0 17.882 1.299 37.795-3.991 50.988-5.51 13.745-15.849 23.84-29.927 28.994-12.158 4.451-28.96 3.318-45.39 3.499H91.98c-31.85.001-55.613 1.084-73.821-12.497C-5.344 767.894 1.168 714.678.661 672.077c0-99.967.04-198.091.04-298.058V132.074 73.088c0-18.051.199-34.756 6.485-46.49C14.052 13.782 25.583 6.376 41.103 2.104 44.937 1.049 52.56.53 60.556.104zm83.115 11.344h83.604c9.224 0 16.702 7.477 16.702 16.701s-7.478 16.702-16.702 16.702h-83.604c-9.224 0-16.701-7.478-16.701-16.702 0-9.224 7.477-16.701 16.701-16.701z"/></svg>