<svg xmlns="http://www.w3.org/2000/svg" width="222" height="482"><path fill-rule="evenodd" d="M33.067.395C76.553.404 119.07.614 162.11.366c25.934-.001 48.313-1.117 56.337 16.624 4.306 9.52 3.489 24.054 3.489 37.962v377.122c0 12.132.647 24.399-3.489 32.468-3.244 6.327-9.45 11.947-16.448 14.485-8.452 3.066-19.662 2.498-30.901 2.498H49.983c-17.515 0-34.437-.504-41.866-10.49C-2.942 456.171.64 423.248.641 397.609V222.784 76.43C.64 58.162-1.784 27.134 4.628 15.491 8.13 9.132 14.575 4.419 22.072 2.005 25.352.949 29.861.93 33.067.395zm53.799 7.107c-.429.323-1.618.243-2.044.574-5.047 1.261-7.022 4.269-6.402 11.783 1.673 2.699 2.644 5.523 6.951 6.636H140.694c3.786-1.078 5.56-3.145 6.978-6.494.17-3.491.383-4.526-.226-8.082-.998-1.863-1.729-2.062-4.758-3.419-2.726-1.437-10.991-.856-16.946-.998H86.866z"/></svg>