<svg xmlns="http://www.w3.org/2000/svg" width="222" height="482"><path fill-rule="evenodd" d="M183.79 481.994H38.92C14.107 481.994.3 472.801.3 443.69V38.92C.3 22.844 2.52.5 38.92.5h144.87c35.689 0 38.206 22.344 38.206 38.42v404.77c0 29.111-14.104 38.304-38.206 38.304zM86.297 6.765h24.366c6.167 0 9.814 4.394 9.814 9.814v.004c0 5.717-3.647 9.814-9.814 9.814H86.297c-5.42 0-9.814-4.097-9.814-9.814v-.004c0-5.42 4.394-9.814 9.814-9.814zm49.403 0c5.42 0 9.814 4.394 9.814 9.814v.004c0 5.717-4.394 9.814-9.814 9.814s-9.814-4.097-9.814-9.814v-.004c0-5.42 4.394-9.814 9.814-9.814z"/></svg>