<svg xmlns="http://www.w3.org/2000/svg" width="142" height="308"><path fill-rule="evenodd" d="M117.104 307.996H24.895C9.23 307.996.2 302.121.2 283.123V24.87C.2 14.597 1.612.3 24.895.3h92.209c23.283 0 24.893 14.297 24.893 24.57v258.253c0 18.998-9.021 24.873-24.893 24.873zM55.194 4.323h15.595c3.464 0 6.821 2.808 6.821 6.272 0 3.995-3.357 6.273-6.821 6.273H55.194c-3.464 0-6.273-2.278-6.273-6.273a6.273 6.273 0 0 1 6.273-6.272zm31.6 0h.01c3.464 0 6.956 2.808 6.956 6.272 0 3.995-3.492 6.273-6.956 6.273h-.01c-3.464 0-6.273-2.278-6.273-6.273a6.273 6.273 0 0 1 6.273-6.272z"/></svg>