<svg xmlns="http://www.w3.org/2000/svg" width="330" height="712"><path fill-rule="evenodd" d="M272.144 706.992H57.855C20.97 706.992.4 693.506.4 649.896V57.88C.4 33.508 3.746.7 57.855.7h214.289c54.109 0 57.851 32.808 57.851 57.18v592.016c0 43.61-20.705 57.096-57.851 57.096zM128.89 9.923h35.799c7.952 0 15.181 6.447 15.181 14.399 0 7.951-7.229 14.398-15.181 14.398H128.89c-8.753 0-15.199-6.447-15.199-14.398 0-7.952 6.446-14.399 15.199-14.399zm72.636 0h.38c7.952 0 14.399 6.447 14.399 14.399 0 7.951-6.447 14.398-14.399 14.398h-.38c-7.952 0-14.398-6.447-14.398-14.398 0-7.952 6.446-14.399 14.398-14.399z"/></svg>