<svg xmlns="http://www.w3.org/2000/svg" width="370" height="798"><path fill-rule="evenodd" d="M305.131 798.7H64.868C23.512 798.7.5 782.785.5 733.561V64.452C.5 37.836 4.2.7 64.868.7H305.131c60.668 0 64.863 37.136 64.863 63.752v669.109c0 49.224-23.507 65.139-64.863 65.139zM143.723 11.216h40.82c8.976 0 16.252 7.276 16.252 16.252 0 8.975-7.276 16.251-16.252 16.251h-40.82c-8.975 0-16.251-7.276-16.251-16.251 0-8.976 7.276-16.252 16.251-16.252zm82.887 0h-.338c8.975 0 16.251 7.276 16.251 16.252 0 8.975-7.276 16.251-16.251 16.251h.338c-8.75 0-16.8-7.276-16.8-16.251 0-8.976 8.05-16.252 16.8-16.252z"/></svg>