<svg xmlns="http://www.w3.org/2000/svg" viewBox="0 0 16 16"><path d="M9.4 14.3l-3.6-2-3.3 1.8c-.2.1-.4.2-.5.2-.5 0-.7-.3-.7-.8v-9c0-.4.2-.7.6-1l3.4-1.9c.2-.1.4-.2.7-.2.2 0 .5.1.6.2L10 3.8l3.4-1.9c.2-.1.4-.2.5-.2.5 0 .7.3.7.7v9c0 .4-.2.7-.6 1l-3.4 1.9c-.2.1-.4.2-.6.2-.1 0-.4-.1-.6-.2zm-6.9-1.4l2.9-1.6V2.8c-.1 0-.1.1-.2.1L2.5 4.4c-.1.1-.2.2-.2.4v8c0 .1 0 .1.2.1-.1 0 0 0 0 0zm7-8.1L6.7 3c-.1 0-.2-.1-.2-.1v8.5L9.3 13c.1.1.2.1.3.1V4.8zm1.4 8.3l2.6-1.5c.1-.1.2-.2.2-.4v-8c0-.1 0-.1-.1-.1h-.1l-2.9 1.6v8.5c.1 0 .2-.1.3-.1z" fill="#2670b8"/></svg>