<svg height="66.182" width="483.917" xmlns="http://www.w3.org/2000/svg"><path fill-rule="evenodd" d="M0 65.259h10.24V20.17h.307l18.281 45.088h7.69L54.8 20.17h.351v45.088h10.196V1.846H52.25L32.827 50.273h-.307L13.096 1.846H0zM86.716 66.05c6.153 0 11.338-3.076 14.019-7.954h.264v7.163h10.942V33.223c0-9.36-7.515-15.513-19.16-15.513-11.821 0-18.985 6.196-19.644 14.458l-.044.527h10.152l.088-.395c.703-3.428 3.867-5.845 9.052-5.845 5.537 0 8.614 2.857 8.614 7.559v3.208l-12.173.747c-11.294.703-17.71 5.669-17.71 13.93v.088c0 8.306 6.284 14.063 15.6 14.063zm-4.702-14.502v-.044c0-3.692 2.945-6.02 8.35-6.372l10.635-.66v3.516c0 5.537-4.746 9.712-11.03 9.712-4.79 0-7.955-2.329-7.955-6.152zM139.946 66.182c11.778 0 19.644-7.383 20.479-17.095l.044-.308h-10.327l-.088.396c-1.01 4.878-4.526 8.174-10.064 8.174-6.899 0-11.381-5.625-11.381-15.337v-.044c0-9.536 4.438-15.381 11.337-15.381 5.801 0 9.141 3.647 10.064 8.174l.088.395h10.327l-.044-.351c-.66-9.317-8.306-17.095-20.566-17.095-13.58 0-22.369 9.316-22.369 24.17v.044c0 14.941 8.658 24.258 22.5 24.258zM166.721 65.259h26.587c13.536 0 21.753-6.856 21.753-17.93v-.088c0-8.35-6.064-14.59-14.985-15.38v-.22c6.812-.923 11.953-7.032 11.953-13.843v-.088c0-9.624-7.427-15.864-18.984-15.864H166.72zm23.467-54.58c6.724 0 10.635 3.076 10.635 8.569v.088c0 5.977-4.394 9.316-12.568 9.316h-10.196V10.68zm-.132 26.191c8.877 0 13.448 3.34 13.448 9.712v.088c0 6.372-4.483 9.756-12.788 9.756h-12.657V36.87zM241.309 66.182c13.667 0 22.544-9.097 22.544-24.214v-.088c0-15.03-9.009-24.17-22.588-24.17-13.535 0-22.5 9.228-22.5 24.17v.088c0 15.073 8.833 24.214 22.544 24.214zm.044-8.833c-6.987 0-11.426-5.581-11.426-15.381v-.088c0-9.668 4.527-15.293 11.338-15.293 6.943 0 11.426 5.581 11.426 15.293v.088c0 9.756-4.439 15.38-11.338 15.38zM290.145 66.182c13.667 0 22.543-9.097 22.543-24.214v-.088c0-15.03-9.008-24.17-22.587-24.17-13.536 0-22.5 9.228-22.5 24.17v.088c0 15.073 8.833 24.214 22.544 24.214zm.043-8.833c-6.987 0-11.425-5.581-11.425-15.381v-.088c0-9.668 4.526-15.293 11.338-15.293 6.943 0 11.425 5.581 11.425 15.293v.088c0 9.756-4.438 15.38-11.338 15.38zM318.853 65.259h10.943V49.087l3.69-3.867 14.723 20.039h12.612l-19.204-26.543 18.457-20.04h-12.656l-17.403 19.337h-.22V1.846h-10.942zM377.061 65.259h11.866l5.36-16.392h23.6l5.36 16.392h11.91L412.481 1.846h-12.744zm28.916-52.12h.264l8.79 26.983h-17.887zM445.233 11.997c3.428 0 6.064-2.725 6.064-5.976 0-3.34-2.636-6.021-6.064-6.021s-6.109 2.68-6.109 6.02c0 3.252 2.681 5.977 6.109 5.977zM439.74 65.26h10.942V18.677H439.74zM458.604 65.259h10.943V38.232c0-6.899 3.735-10.81 9.932-10.81 1.845 0 3.515.264 4.438.615V18.15c-.835-.22-2.11-.439-3.472-.439-5.361 0-9.228 3.384-10.678 9.009h-.22v-8.042h-10.943z"/></svg>
