<?xml version="1.0" encoding="utf-8"?>
<!-- Generator: Adobe Illustrator 26.0.1, SVG Export Plug-In . SVG Version: 6.00 Build 0)  -->
<svg version="1.1" id="Layer_1" xmlns="http://www.w3.org/2000/svg" xmlns:xlink="http://www.w3.org/1999/xlink" x="0px" y="0px"
	 viewBox="0 0 85 85" style="enable-background:new 0 0 85 85;" xml:space="preserve">
<style type="text/css">
	.st0{fill:none;}
	.st1{fill:none;stroke:#1D1D1F;stroke-width:4;stroke-linecap:round;stroke-linejoin:round;}
	.st2{fill-rule:evenodd;clip-rule:evenodd;fill:#1D1D1F;}
</style>
<path class="st0" d="M0,0h85v85H0V0z"/>
<path class="st0" d="M0,0h85v85H0V0z"/>
<path class="st1" d="M42.5,2.5c22.1,0,40,17.9,40,40s-17.9,40-40,40s-40-17.9-40-40S20.4,2.5,42.5,2.5z"/>
<path class="st2" d="M50,28.2c1.1,0,2,0.9,2,2v24c0,1.1-0.9,2-2,2s-2-0.9-2-2v-24C48,29.1,48.9,28.2,50,28.2z"/>
<path class="st2" d="M35,28.2c1.1,0,2,0.9,2,2v24c0,1.1-0.9,2-2,2s-2-0.9-2-2v-24C33,29.1,33.9,28.2,35,28.2z"/>
</svg>
