<?xml version="1.0" encoding="utf-8"?>
<!-- Generator: Adobe Illustrator 26.0.1, SVG Export Plug-In . SVG Version: 6.00 Build 0)  -->
<svg version="1.1" id="Layer_1" xmlns="http://www.w3.org/2000/svg" xmlns:xlink="http://www.w3.org/1999/xlink" x="0px" y="0px"
	 viewBox="0 0 85 85" style="enable-background:new 0 0 85 85;" xml:space="preserve">
<style type="text/css">
	.st0{fill:none;stroke:#1D1D1F;stroke-width:4;stroke-linecap:round;stroke-linejoin:round;}
	.st1{fill:none;}
	.st2{clip-path:url(#SVGID_00000117669321739237097590000011910078000695588013_);}
	.st3{fill:#1D1D1F;}
</style>
<path class="st0" d="M42.5,2.5c22.1,0,40,17.9,40,40s-17.9,40-40,40s-40-17.9-40-40S20.4,2.5,42.5,2.5z"/>
<path class="st1" d="M0,0h85v85H0V0z"/>
<path class="st1" d="M0,0h85v85H0V0z"/>
<g>
	<defs>
		<rect id="SVGID_1_" x="33" y="28.2" width="22.9" height="28"/>
	</defs>
	<clipPath id="SVGID_00000035514824255776584230000009881487277381342339_">
		<use xlink:href="#SVGID_1_"  style="overflow:visible;"/>
	</clipPath>
	<g style="clip-path:url(#SVGID_00000035514824255776584230000009881487277381342339_);">
		<path class="st3" d="M55.7,41.5c0.3,0.4,0.3,1,0,1.5c-0.1,0.2-0.3,0.4-0.5,0.5L35.3,56.1c-0.2,0.1-0.5,0.2-0.7,0.2
			c-0.8,0-1.4-0.7-1.5-1.5v-25c0-0.3,0.1-0.5,0.2-0.7c0.1-0.2,0.3-0.4,0.5-0.5c0.2-0.1,0.5-0.2,0.7-0.2c0.3,0,0.5,0.1,0.7,0.1
			L55.2,41C55.4,41.2,55.6,41.4,55.7,41.5"/>
	</g>
</g>
</svg>
