<svg viewBox="0 0 71 21" xmlns="http://www.w3.org/2000/svg">
<g fill="#af1e2d">
<path d="m6.08618 15.78768v-10.57536h2.48036c2.13175 0 3.12157.86443 3.12157 3.11961 0 2.25605-.98982 3.11979-3.12157 3.11979h-.75263v4.336zm1.72773-5.82974h.66914c1.12934 0 1.47688-.3661 1.47688-1.626 0-1.25939-.34754-1.62566-1.47688-1.62566h-.66914z"/><path d="m14.44932 15.78768h-1.72789v-10.57536h2.425c1.937 0 2.92572.86443 2.92572 3.11961 0 1.69878-.62683 2.38811-1.21238 2.66623l1.46311 4.78952h-1.75538l-1.22612-4.37935a8.14368 8.14368 0 0 1 -.89206.04339zm0-5.82974h.61335c.93349 0 1.28156-.3661 1.28156-1.626 0-1.25939-.34807-1.62566-1.28156-1.62566h-.61335z"/><path d="m19.02532 7.77587a2.481 2.481 0 0 1 2.64709-2.70978 2.48163 2.48163 0 0 1 2.64791 2.70978v5.44861a2.48129 2.48129 0 0 1 -2.64791 2.70943 2.4807 2.4807 0 0 1 -2.64709-2.70943zm1.728 5.40505c0 .791.22289 1.17141.91911 1.17141.69672 0 .91994-.38044.91994-1.17141v-5.36028c0-.79218-.22322-1.173-.91994-1.173-.69622 0-.91911.38079-.91911 1.173z"/><path d="m25.49481 5.21232h2.56388c1.7838 0 2.73047 1.02518 2.73047 3.19238v4.1903c0 2.167-.94667 3.19273-2.73047 3.19273h-2.56388zm1.72769 9.08089h.59883c.92035 0 1.24026-.36592 1.24026-1.47874v-4.62894c0-1.113-.31991-1.47926-1.24026-1.47926h-.59883z"/><path d="m31.79887 5.13929h1.72728v7.98294c0 .77645.29274 1.15689.919 1.15689.62773 0 .9201-.38044.9201-1.15689v-7.98294h1.72715v7.90949a2.49161 2.49161 0 0 1 -2.64725 2.81193 2.49148 2.49148 0 0 1 -2.64627-2.81193z"/><path d="m41.585 8.74228v-.82018c0-.89364-.39-1.27443-.8357-1.27443-.69717 0-.92006.38079-.92006 1.173v5.36028c0 .791.22289 1.17141.92006 1.17141.62646 0 .8357-.38044.8357-1.06909v-1.27446h1.7276v1.21567a2.60769 2.60769 0 1 1 -5.21139 0v-5.44861a2.482 2.482 0 0 1 2.64812-2.70978c1.7276 0 2.56327 1.31851 2.56327 2.89974v.77645z"/><path d="m45.57425 6.7946h-1.67182v-1.58228h5.0717v1.58228h-1.67166v8.99308h-1.72822z"/><path d="m2.68623 18.82934a14.0809 14.0809 0 0 1 -2.37523-5.36062 14.28977 14.28977 0 0 1 -.311-2.98172 14.04325 14.04325 0 0 1 1.2188-5.79271 13.59114 13.59114 0 0 1 3.4332-4.69429l1.14367 1.41237a11.97319 11.97319 0 0 0 -2.96067 4.08014 12.17441 12.17441 0 0 0 -1.04437 4.99449 12.26589 12.26589 0 0 0 1.04437 5.00839 11.68429 11.68429 0 0 0 2.96067 4.06649l-1.14367 1.43812a13.26755 13.26755 0 0 1 -1.96577-2.17066z"/><path d="m48.48707 19.56188a11.68 11.68 0 0 0 2.96059-4.06649 12.25772 12.25772 0 0 0 1.04474-5.00839 12.16632 12.16632 0 0 0 -1.04474-4.99453 11.96873 11.96873 0 0 0 -2.96059-4.08014l1.14443-1.41233a13.60449 13.60449 0 0 1 3.4333 4.69429 14.0607 14.0607 0 0 1 1.2192 5.79271 14.291 14.291 0 0 1 -1.21921 5.79223 14.03606 14.03606 0 0 1 -1.46808 2.55007 13.29846 13.29846 0 0 1 -1.96521 2.1707z"/><path d="m56.05425 7.00477h-1.1356v-6.95344h1.59335c1.27405 0 1.92333.56781 1.92333 2.05157 0 1.11627-.41166 1.56966-.79563 1.75219l.96122 3.14968h-1.15456l-.80611-2.87934a4.987 4.987 0 0 1 -.586.02921zm0-3.83262h.403c.61482 0 .84347-.24009.84347-1.06925 0-.82883-.22865-1.06943-.84347-1.06943h-.403z"/><path d="m59.24463 7.00477v-6.95344h3.04388v1.04056h-1.90762v1.79039h1.466v1.04108h-1.466v2.04137h2.0337v1.04z"/><path d="m63.06.05133h1.6851c1.17362 0 1.79539.67429 1.79539 2.09927v2.75594c0 1.42447-.62177 2.09823-1.79539 2.09823h-1.6851zm1.13563 5.97217h.39325c.606 0 .81634-.24217.81634-.97367v-3.04339c0-.73237-.21031-.973-.81634-.973h-.39325z"/><path d="m67.0042.05133h1.56905v.18046h-.6797v2.23012h-.20965v-2.23012h-.6797z"/><path d="m68.98927 2.46191v-2.41058h.3685l.6321 2.04327h.00641l.63522-2.04327h.3685v2.41058h-.20966v-2.23012h-.00641l-.68931 2.23012h-.2l-.68927-2.23012h-.00626v2.23012z"/>
</g>
</svg>