<svg height="41.18" width="306.704" xmlns="http://www.w3.org/2000/svg"><path fill-rule="evenodd" d="M0 40.605h6.371V12.551h.191l11.375 28.054h4.786l11.375-28.054h.218v28.054h6.344V1.148h-8.148L20.426 31.281h-.192L8.148 1.148H0zM54.517 41.098c3.828 0 7.055-1.914 8.723-4.95h.164v4.457h6.808V20.672c0-5.824-4.676-9.652-11.922-9.652-7.355 0-11.812 3.855-12.222 8.996l-.028.328h6.317l.054-.246c.438-2.133 2.407-3.637 5.633-3.637 3.446 0 5.36 1.777 5.36 4.703v1.996l-7.575.465c-7.027.437-11.02 3.527-11.02 8.668v.055c0 5.168 3.911 8.75 9.708 8.75zm-2.926-9.024v-.027c0-2.297 1.832-3.746 5.195-3.965l6.618-.41v2.187c0 3.446-2.954 6.043-6.864 6.043-2.98 0-4.949-1.449-4.949-3.828zM88.198 41.18c7.328 0 12.222-4.594 12.742-10.637l.027-.191h-6.425l-.055.246c-.629 3.035-2.817 5.086-6.262 5.086-4.293 0-7.082-3.5-7.082-9.543v-.028c0-5.933 2.762-9.57 7.055-9.57 3.61 0 5.687 2.27 6.262 5.086l.054.246h6.426l-.027-.219c-.41-5.797-5.168-10.636-12.797-10.636-8.45 0-13.918 5.796-13.918 15.039v.027c0 9.297 5.387 15.094 14 15.094zM105.418 40.605h16.543c8.422 0 13.535-4.265 13.535-11.156v-.054c0-5.196-3.774-9.079-9.324-9.57v-.138c4.238-.574 7.437-4.375 7.437-8.613v-.054c0-5.989-4.62-9.872-11.812-9.872h-16.38zm14.601-33.96c4.184 0 6.618 1.914 6.618 5.332v.054c0 3.719-2.735 5.797-7.82 5.797h-6.344V6.645zm-.082 16.296c5.524 0 8.368 2.079 8.368 6.043v.055c0 3.965-2.79 6.07-7.958 6.07h-7.874V22.941zM152.388 41.18c8.504 0 14.027-5.66 14.027-15.067v-.054c0-9.352-5.605-15.04-14.055-15.04-8.421 0-14 5.743-14 15.04v.054c0 9.38 5.497 15.067 14.028 15.067zm.027-5.496c-4.347 0-7.11-3.473-7.11-9.57v-.055c0-6.016 2.817-9.516 7.055-9.516 4.32 0 7.11 3.473 7.11 9.516v.054c0 6.07-2.762 9.57-7.055 9.57zM183.334 41.18c8.504 0 14.028-5.66 14.028-15.067v-.054c0-9.352-5.606-15.04-14.055-15.04-8.422 0-14 5.743-14 15.04v.054c0 9.38 5.496 15.067 14.027 15.067zm.028-5.496c-4.348 0-7.11-3.473-7.11-9.57v-.055c0-6.016 2.817-9.516 7.055-9.516 4.32 0 7.11 3.473 7.11 9.516v.054c0 6.07-2.762 9.57-7.055 9.57zM201.757 40.605h6.81V30.543l2.296-2.406 9.16 12.468h7.848L215.92 24.09l11.485-12.469h-7.875l-10.828 12.031h-.137V1.148h-6.809zM239.096 40.605h7.383l3.336-10.199h14.683l3.336 10.2h7.41L261.135 1.147h-7.93zm17.992-32.43h.164l5.469 16.79h-11.129zM282.074 7.465c2.133 0 3.773-1.695 3.773-3.719 0-2.078-1.64-3.746-3.773-3.746s-3.801 1.668-3.801 3.746c0 2.024 1.668 3.719 3.8 3.719zm-3.418 33.14h6.808V11.621h-6.808zM290.954 40.605h6.809V23.79c0-4.293 2.324-6.727 6.18-6.727 1.148 0 2.187.165 2.76.383v-6.152a8.87 8.87 0 00-2.16-.273c-3.335 0-5.741 2.105-6.644 5.605h-.136v-5.004h-6.81z"/></svg>
