<svg xmlns="http://www.w3.org/2000/svg" width="48" height="56" viewBox="0 0 48 56">
  <g fill="none" fill-rule="evenodd">
    <path d="M24.685 42.122C24.6825084 42.0248916 24.7041554 41.9286828 24.748 41.842 24.7976477 41.7559557 24.86948 41.6848141 24.956 41.636 24.902461 41.5575856 24.8303063 41.4936771 24.746 41.45 24.6599762 41.4035374 24.5637693 41.3791421 24.466 41.379 24.4296296 41.3793198 24.3934074 41.3836799 24.358 41.392 24.3112678 41.4034704 24.2651988 41.4174914 24.22 41.434 24.161 41.456 24.114 41.472 24.082 41.483 24.0617595 41.4921835 24.0401298 41.4979289 24.018 41.5 23.9541733 41.4916776 23.8922634 41.4723942 23.835 41.443 23.7621279 41.41035 23.6837667 41.3916926 23.604 41.388 23.5188933 41.3874699 23.4347776 41.4062762 23.358 41.443 23.2809054 41.481364 23.2127587 41.5355406 23.158 41.602 23.0994132 41.6741343 23.0540477 41.7560631 23.024 41.844 22.991769 41.9407186 22.9755555 42.0420533 22.9759911 42.144 22.976687 42.2174682 22.983713 42.29074 22.997 42.363 23.0092384 42.4384301 23.0266122 42.5129366 23.049 42.586 23.0726547 42.6596152 23.1007051 42.7317449 23.133 42.802 23.1924092 42.9256793 23.2673469 43.0412782 23.356 43.146 23.3856784 43.1827981 23.4192019 43.2163216 23.456 43.246 23.483498 43.2678748 23.5137584 43.2860311 23.546 43.3 23.5743424 43.3096739 23.6040532 43.3147383 23.634 43.315 23.6621611 43.313288 23.690021 43.308253 23.717 43.3 23.749 43.288 23.786 43.278 23.826 43.265 23.866 43.252 23.904 43.24 23.944 43.229 23.9789282 43.2178832 24.0153457 43.2121508 24.052 43.212 24.0857468 43.2129748 24.119283 43.2176699 24.152 43.226 24.189 43.239 24.226 43.249 24.264 43.262L24.373 43.296C24.4021784 43.305069 24.4324575 43.3101155 24.463 43.311 24.5016093 43.3119168 24.5398142 43.3029679 24.574 43.285 24.6122761 43.264731 24.6481658 43.2402455 24.681 43.212 24.698 43.193 24.724 43.165 24.756 43.127 24.788 43.089 24.818 43.042 24.856 42.991 24.894 42.94 24.918 42.884 24.949 42.825 24.9782707 42.7636557 25.0036542 42.7005311 25.025 42.636 24.9228309 42.5924725 24.8363308 42.5188777 24.777 42.425 24.7174534 42.3351272 24.6854755 42.2298086 24.685 42.122zM24.2 41.311C24.2576575 41.279916 24.3088963 41.2381784 24.351 41.188 24.3961073 41.1365498 24.4319698 41.0776811 24.457 41.014 24.4840336 40.9507865 24.4979808 40.8827515 24.498 40.814L24.498 40.787C24.4993827 40.7783885 24.4993827 40.7696115 24.498 40.761 24.4312996 40.7649484 24.3661976 40.7830133 24.307 40.814 24.247336 40.8468586 24.1933188 40.8890596 24.147 40.939 24.1017389 40.9907297 24.0646445 41.049069 24.037 41.112 24.0099227 41.1713649 23.9956139 41.2357544 23.995 41.301L23.995 41.338C23.995 41.348 24.008 41.351 24.032 41.351 24.0904761 41.3520375 24.1482657 41.3382781 24.2 41.311L24.2 41.311z"/>
    <path fill="#F5F5F7" fill-rule="nonzero" d="M20.11 49.119C19.8072731 50.4701356 18.5645279 51.3986917 17.183 51.306L17.113 51.311C17.0214188 51.3107334 16.9335117 51.3469959 16.8687538 51.4117538 16.8039959 51.4765117 16.7677334 51.5644188 16.7679985 51.656 16.7695845 51.8052439 16.8680416 51.9361148 17.011 51.979 17.0241543 51.9863327 17.0383011 51.9917219 17.053 51.995L17.053 52 30.953 52 30.953 51.995C30.9678958 51.9924067 30.9821544 51.9869749 30.995 51.979 31.1387448 51.9370402 31.2379314 51.8057399 31.239 51.656 31.239 51.5643268 31.202515 51.4764228 31.1375985 51.4116939 31.072682 51.3469651 30.9846728 51.3107343 30.893 51.311L30.824 51.306C29.4423612 51.3983402 28.1995381 50.470043 27.896 49.119L27.112 45.5 20.892 45.5 20.11 49.119zM46.469 12L1.531 12C.730986346 12.1009565.100956521 12.7309863 0 13.531L0 43.469C.119326105 44.2751652.762963505 44.9020156 1.572 45L46.472 45C47.2708458 44.8977782 47.8993452 44.2680448 48 43.469L48 13.531C47.8990435 12.7309863 47.2690137 12.1009565 46.469 12zM24.946 42.829C24.915 42.888 24.885 42.945 24.853 42.995 24.821 43.045 24.787 43.095 24.753 43.131 24.719 43.167 24.695 43.197 24.678 43.216 24.6451658 43.2442455 24.6092761 43.268731 24.571 43.289 24.5368142 43.3069679 24.4986093 43.3159168 24.46 43.315 24.4294575 43.3141155 24.3991784 43.309069 24.37 43.3L24.261 43.266C24.223 43.253 24.186 43.243 24.149 43.23 24.116283 43.2216699 24.0827468 43.2169748 24.049 43.216 24.0123457 43.2161508 23.9759282 43.2218832 23.941 43.233 23.901 43.244 23.862 43.256 23.823 43.269 23.784 43.282 23.746 43.292 23.714 43.304 23.687021 43.312253 23.6591611 43.317288 23.631 43.319 23.6010532 43.3187383 23.5713424 43.3136739 23.543 43.304 23.5107584 43.2900311 23.480498 43.2718748 23.453 43.25 23.4162019 43.2203216 23.3826784 43.1867981 23.353 43.15 23.2643469 43.0452782 23.1894092 42.9296793 23.13 42.806 23.0977051 42.7357449 23.0696547 42.6636152 23.046 42.59 23.0256382 42.5167932 23.0102696 42.4422886 23 42.367 22.986713 42.29474 22.979687 42.2214682 22.9789911 42.148 22.9785555 42.0460533 22.994769 41.9447186 23.027 41.848 23.0570477 41.7600631 23.1024132 41.6781343 23.161 41.606 23.2157587 41.5395406 23.2839054 41.485364 23.361 41.447 23.4377776 41.4102762 23.5218933 41.3914699 23.607 41.392 23.6867667 41.3956926 23.7651279 41.41435 23.838 41.447 23.8952634 41.4763942 23.9571733 41.4956776 24.021 41.504 24.0431298 41.5019289 24.0647595 41.4961835 24.085 41.487 24.117 41.476 24.164 41.46 24.223 41.438 24.2681988 41.4214914 24.3142678 41.4074704 24.361 41.396 24.3964074 41.3876799 24.4326296 41.3833198 24.469 41.383 24.5667693 41.3831421 24.6629762 41.4075374 24.749 41.454 24.8333063 41.4976771 24.905461 41.5615856 24.959 41.64 24.87248 41.6888141 24.8006477 41.7599557 24.751 41.846 24.7071554 41.9326828 24.6855084 42.0288916 24.688 42.126 24.6868002 42.2348631 24.7177604 42.3416584 24.777 42.433 24.8363308 42.5268777 24.9228309 42.6004725 25.025 42.644 25.0025221 42.7072427 24.976138 42.7690283 24.946 42.829L24.946 42.829zM24 41.306C24.0006139 41.2407544 24.0149227 41.1763649 24.042 41.117 24.0696445 41.054069 24.1067389 40.9957297 24.152 40.944 24.1983188 40.8940596 24.252336 40.8518586 24.312 40.819 24.3711976 40.7880133 24.4362996 40.7699484 24.503 40.766 24.5043827 40.7746115 24.5043827 40.7833885 24.503 40.792L24.503 40.819C24.5029808 40.8877515 24.4890336 40.9557865 24.462 41.019 24.4369698 41.0826811 24.4011073 41.1415498 24.356 41.193 24.3138963 41.2431784 24.2626575 41.284916 24.205 41.316 24.1528423 41.3455148 24.0939296 41.3610182 24.034 41.361 24.01 41.361 23.998 41.361 23.997 41.348L24 41.306zM46 39L2 39 2 14 46 14 46 39z"/>
  </g>
</svg>
