<?xml version="1.0" encoding="utf-8"?>
<!-- Generator: Adobe Illustrator 26.0.1, SVG Export Plug-In . SVG Version: 6.00 Build 0)  -->
<svg version="1.1" id="Layer_1" xmlns="http://www.w3.org/2000/svg" xmlns:xlink="http://www.w3.org/1999/xlink" x="0px" y="0px"
	 viewBox="0 0 1024.6 437" style="enable-background:new 0 0 1024.6 437;" xml:space="preserve">
<style type="text/css">
	.st0{fill:#FFFFFF;}
</style>
<g>
	<path class="st0" d="M969.3,291.9c18.7-3.2,37.7,3.8,43.4,21.9c4.8,15.4-3.5,29.8-17.5,37.3c10.8-2.4,19-4.3,27.7-6.3
		c0.6-0.1,1.1-0.4,1.7-0.6v-67.4c-19.9,5.4-39.9,10.7-59.9,15.8C966.2,292.5,967.8,292.2,969.3,291.9z"/>
	<path class="st0" d="M0,0v349c14.1-7.4,28.3-14.7,42.5-21.9c8.6-4.4,17.1-8.7,25.8-13c-3.4,1.2-6.7,2.3-10.1,3.5
		C25.4,329.1,7.5,284,34.6,267.9c31.7-18.9,70.3-30.1,105.3-42.6C251.4,185.7,364.6,150,477.5,114c22.9-7.3,46-14.5,69-21.7
		c-64,13.7-127.5,30-190,48.4c-18.3,5.4-25.6-19.9-8.2-26.1c78.6-27.8,158.3-50.4,240.5-67c56.8-11.5,114-19.9,171.3-28.6
		c10.2-1.5,19.8,1.3,24.1,10.5c3.6,7.6,1.2,19.7-8,23.5c-44.4,18.7-90.2,34.8-135.7,51.2c-5.1,1.8-10.1,3.6-15.2,5.4
		C707.6,95.9,790.6,85.2,874,77.7c35.6-3.2,40.3,45.9,8.9,55.1c-36.6,10.8-73.5,20.8-110.5,30.5c65.2-10.9,130.9-19,196.5-21.9
		c33.3-1.5,47,42.8,17.9,57.9c-15,7.7-32.7,11.9-49,16.3c-4.7,1.3-9.4,2.5-14,3.7c33.6-4,67.2-7.6,100.9-10.6V0H0z"/>
</g>
</svg>
