<?xml version="1.0" encoding="UTF-8"?>
<svg width="21px" height="27px" viewBox="0 0 21 27" version="1.1" xmlns="http://www.w3.org/2000/svg" xmlns:xlink="http://www.w3.org/1999/xlink">
    <!-- Generator: Sketch 63.1 (92452) - https://sketch.com -->
    <title>doc_base@1x@`x</title>
    <desc>Created with Sketch.</desc>
    <g id="Sharesheet/Media_PDF_Deliverable" stroke="none" stroke-width="1" fill="none" fill-rule="evenodd">
        <g id="02_L_View_PDF" transform="translate(-477.000000, -2963.000000)" fill="#000000" fill-rule="nonzero">
            <g id="doc_base@1x" transform="translate(477.000000, 2963.000000)">
                <path d="M15.5,19 L5.5,19 C5.22385763,19 5,19.2238576 5,19.5 C5,19.7761424 5.22385763,20 5.5,20 L15.5,20 C15.7761424,20 16,19.7761424 16,19.5 C16,19.2238576 15.7761424,19 15.5,19 Z" id="Path"></path>
                <path d="M5,15.5 C5,15.7761424 5.22385763,16 5.5,16 L15.5,16 C15.7761424,16 16,15.7761424 16,15.5 C16,15.2238576 15.7761424,15 15.5,15 L5.5,15 C5.22385763,15 5,15.2238576 5,15.5 Z" id="Path"></path>
                <path d="M20.122,8.415 L12.595,0.88 C12.0324406,0.316740087 11.2690746,0 10.473,0 L3.5,0 C1.56700338,0 0,1.56700338 0,3.5 L0,23.5 C0,25.4329966 1.56700338,27 3.5,27 L17.5,27 C19.4329966,27 21,25.4329966 21,23.5 L21,10.535 C21,9.73990558 20.6840365,8.97739678 20.122,8.415 Z M12.009,1.708 L19.294,9 L13.009,9 C12.4567153,9 12.009,8.55228475 12.009,8 L12.009,1.708 Z M20,23.5 C20,24.8807119 18.8807119,26 17.5,26 L3.5,26 C2.11928813,26 1,24.8807119 1,23.5 L1,3.5 C1,2.11928813 2.11928813,1 3.5,1 L11.009,1 L11.009,8 C11.009,9.1045695 11.9044305,10 13.009,10 L20,10 L20,23.5 Z" id="Shape"></path>
            </g>
        </g>
    </g>
</svg>