<svg enable-background="new 0 0 36 54" height="54" viewBox="0 0 36 54" width="36" xmlns="http://www.w3.org/2000/svg"><path d="m29.1492 22.0262h-22.2985c-3.7678 0-6.8507 3.0828-6.8507 6.8507v14.2724c0 3.7678 3.0829 6.8507 6.8507 6.8507h22.2985c3.7679 0 6.8508-3.0829 6.8508-6.8508v-14.2723c0-3.7679-3.0829-6.8507-6.8508-6.8507zm2.3213 13.4874h-8.8507c-.489 0-.8639.3103-.9779.8-.4403 1.8284-1.646 3.004-3.6671 3.004-2.021 0-3.2112-1.1756-3.6505-3.004-.1305-.4898-.4899-.8-.9944-.8h-8.8341v-.1859c0-1.1264.7656-1.8123 2.0045-1.8123h22.9492c1.2555 0 2.0211.6859 2.0211 1.8123v.1859zm0-3.4968h-26.9747v-.2808c0-1.0774.7656-1.7173 2.0045-1.7173h22.9492c1.2555 0 2.0211.6399 2.0211 1.7173v.2808zm0-3.4967h-26.9747v-.2808c0-1.0616.7656-1.7173 2.0045-1.7173h22.9492c1.2555 0 2.0211.6558 2.0211 1.7173v.2808z" fill="#1d1d1f"/><path d="m0 0h36v54h-36z" fill="none"/></svg>