<svg xmlns="http://www.w3.org/2000/svg" xmlns:xlink="http://www.w3.org/1999/xlink" viewBox="0 0 16 16"><defs><path id="a" d="M-189.5-3810.5c-1.1 0-2.2-.4-3-1.2-1.6-1.6-1.6-4.3 0-6 .8-.8 1.8-1.2 3-1.2 1.1 0 2.2.4 3 1.2.8.8 1.2 1.8 1.2 3s-.4 2.2-1.2 3c-.8.8-1.9 1.2-3 1.2zm8 2.7l-3.4-3.4c1.7-2.2 1.6-5.5-.5-7.5-1.1-1.1-2.6-1.7-4.1-1.7-1.5 0-2.9.6-4.1 1.7-2.2 2.2-2.2 5.9 0 8.1 1.1 1.1 2.6 1.7 4.1 1.7 1.2 0 2.5-.4 3.5-1.2l3.5 3.4c.2.2.3.2.6.2.2 0 .4-.1.6-.2.1-.3.1-.8-.2-1.1z"/></defs><clipPath id="b"><use xlink:href="#a" overflow="visible"/></clipPath><g clip-path="url(#b)"><defs><path id="c" d="M-712.2-3881.6h1440v7779h-1440z"/></defs><clipPath id="d"><use xlink:href="#c" overflow="visible"/></clipPath><path clip-path="url(#d)" fill="#787878" d="M-200.2-3825.5h24v24h-24z"/></g><defs><path id="e" d="M-189.5-3810.5c-1.1 0-2.2-.4-3-1.2-1.6-1.6-1.6-4.3 0-6 .8-.8 1.8-1.2 3-1.2 1.1 0 2.2.4 3 1.2.8.8 1.2 1.8 1.2 3s-.4 2.2-1.2 3c-.8.8-1.9 1.2-3 1.2zm8 2.7l-3.4-3.4c1.7-2.2 1.6-5.5-.5-7.5-1.1-1.1-2.6-1.7-4.1-1.7-1.5 0-2.9.6-4.1 1.7-2.2 2.2-2.2 5.9 0 8.1 1.1 1.1 2.6 1.7 4.1 1.7 1.2 0 2.5-.4 3.5-1.2l3.5 3.4c.2.2.3.2.6.2.2 0 .4-.1.6-.2.1-.3.1-.8-.2-1.1z"/></defs><clipPath id="f"><use xlink:href="#e" overflow="visible"/></clipPath><g clip-path="url(#f)"><defs><path id="g" d="M-712.2-3881.6h1440v7779h-1440z"/></defs><clipPath id="h"><use xlink:href="#g" overflow="visible"/></clipPath><path clip-path="url(#h)" fill="#787878" d="M-200.2-3825.5h24v24h-24z"/></g><defs><path id="i" d="M-189.5-3810.5c-1.1 0-2.2-.4-3-1.2-1.6-1.6-1.6-4.3 0-6 .8-.8 1.8-1.2 3-1.2 1.1 0 2.2.4 3 1.2.8.8 1.2 1.8 1.2 3s-.4 2.2-1.2 3c-.8.8-1.9 1.2-3 1.2zm8 2.7l-3.4-3.4c1.7-2.2 1.6-5.5-.5-7.5-1.1-1.1-2.6-1.7-4.1-1.7-1.5 0-2.9.6-4.1 1.7-2.2 2.2-2.2 5.9 0 8.1 1.1 1.1 2.6 1.7 4.1 1.7 1.2 0 2.5-.4 3.5-1.2l3.5 3.4c.2.2.3.2.6.2.2 0 .4-.1.6-.2.1-.3.1-.8-.2-1.1z"/></defs><clipPath id="j"><use xlink:href="#i" overflow="visible"/></clipPath><g clip-path="url(#j)"><defs><path id="k" d="M-712.2-3881.6h1440v7779h-1440z"/></defs><clipPath id="l"><use xlink:href="#k" overflow="visible"/></clipPath><path clip-path="url(#l)" fill="#787878" d="M-200.2-3825.5h24v24h-24z"/></g><defs><path id="m" d="M-712-503H728V519H-712z"/></defs><clipPath id="n"><use xlink:href="#m" overflow="visible"/></clipPath><path d="M207.1-440.3c.9.4 1.8 1 2.5 1.7s1.3 1.6 1.7 2.5c.4 1 .6 2 .6 3.1s-.2 2.1-.6 3.1c-.4.9-1 1.8-1.7 2.5s-1.6 1.3-2.5 1.7c-1 .4-2 .6-3.1.6s-2.1-.2-3-.6c-.9-.4-1.8-1-2.5-1.7s-1.3-1.6-1.7-2.5c-.4-1-.6-2-.6-3.1s.2-2.1.6-3.1c.4-.9 1-1.8 1.7-2.5s1.6-1.3 2.5-1.7c1-.4 2-.6 3-.6 1.1-.1 2.1.1 3.1.6zm-2.2 7.2l2.3-2.3-.8-.8-2.3 2.3-2.3-2.3-.8.8 2.3 2.3-2.3 2.3.8.8 2.3-2.3 2.3 2.3.8-.8-2.3-2.3z" clip-path="url(#n)" fill="#999"/><path d="M11 .8c.9.4 1.8 1 2.5 1.7s1.3 1.6 1.7 2.5c.4 1 .6 2 .6 3.1s-.2 2.1-.6 3.1c-.4.9-1 1.8-1.7 2.5S11.9 15 11 15.4c-1 .4-2 .6-3.1.6s-2.1-.2-3-.6c-.9-.4-1.8-1-2.5-1.7S1.1 12.2.7 11.2c-.4-1-.6-2-.6-3.1S.3 6 .7 5c.4-.9 1-1.8 1.7-2.5S4 1.2 5 .8c1-.4 2-.6 3-.6 1.1 0 2.1.2 3 .6zM8.8 8l2.3-2.3-.8-.8L8 7.1 5.7 4.9l-.8.8L7.2 8l-2.3 2.3.8.8L8 8.8l2.3 2.3.8-.8L8.8 8z" fill="#999"/></svg>